<mxfile host="Electron" modified="2023-10-26T13:51:04.314Z" agent="Mozilla/5.0 (Windows NT 10.0; Win64; x64) AppleWebKit/537.36 (KHTML, like Gecko) draw.io/22.0.2 Chrome/114.0.5735.289 Electron/25.8.4 Safari/537.36" etag="8J_pN7lnIv15g7d6FnLG" version="22.0.2" type="device">
  <diagram name="Page-1" id="-4eLiCZreyF3rMpUVQOR">
    <mxGraphModel dx="2350" dy="1987" grid="1" gridSize="10" guides="1" tooltips="1" connect="1" arrows="1" fold="1" page="1" pageScale="1" pageWidth="850" pageHeight="1100" math="0" shadow="0">
      <root>
        <mxCell id="0" />
        <mxCell id="1" parent="0" />
        <mxCell id="Mia9fNSxajARVFUBqXhb-1" value="GIAOVIEN&lt;br&gt;" style="rounded=0;whiteSpace=wrap;html=1;" parent="1" vertex="1">
          <mxGeometry x="190" y="120" width="120" height="60" as="geometry" />
        </mxCell>
        <mxCell id="Mia9fNSxajARVFUBqXhb-3" value="" style="shape=partialRectangle;whiteSpace=wrap;html=1;bottom=1;right=1;left=1;top=0;fillColor=none;routingCenterX=-0.5;rotation=-90;" parent="1" vertex="1">
          <mxGeometry x="90" y="120" width="140" height="60" as="geometry" />
        </mxCell>
        <mxCell id="Mia9fNSxajARVFUBqXhb-5" value="&lt;ul&gt;&lt;li&gt;&lt;u&gt;MAGIAOVIEN&lt;/u&gt;&lt;/li&gt;&lt;li&gt;HOTEN&lt;/li&gt;&lt;li&gt;ĐIACHI&lt;/li&gt;&lt;li&gt;SDT&lt;/li&gt;&lt;li&gt;NGAYSINH&lt;/li&gt;&lt;li&gt;LUONG&lt;/li&gt;&lt;li&gt;PHAI&lt;/li&gt;&lt;li&gt;&lt;u&gt;MABOMON&lt;/u&gt;&lt;/li&gt;&lt;/ul&gt;" style="text;strokeColor=none;fillColor=none;html=1;whiteSpace=wrap;verticalAlign=middle;overflow=hidden;" parent="1" vertex="1">
          <mxGeometry x="65" y="80" width="130" height="130" as="geometry" />
        </mxCell>
        <mxCell id="Mia9fNSxajARVFUBqXhb-6" value="BOMON" style="rounded=0;whiteSpace=wrap;html=1;" parent="1" vertex="1">
          <mxGeometry x="730" y="105" width="120" height="60" as="geometry" />
        </mxCell>
        <mxCell id="Mia9fNSxajARVFUBqXhb-7" value="" style="shape=partialRectangle;whiteSpace=wrap;html=1;bottom=1;right=1;left=1;top=0;fillColor=none;routingCenterX=-0.5;rotation=90;" parent="1" vertex="1">
          <mxGeometry x="830" y="105" width="112.5" height="60" as="geometry" />
        </mxCell>
        <mxCell id="Mia9fNSxajARVFUBqXhb-8" value="&lt;ul&gt;&lt;li&gt;&lt;u&gt;MABOMON&lt;/u&gt;&lt;/li&gt;&lt;li&gt;TENBOMON&lt;/li&gt;&lt;li&gt;PHONGBOMON&lt;/li&gt;&lt;li&gt;SDT&lt;/li&gt;&lt;li&gt;TRUONGBOMON&lt;/li&gt;&lt;li&gt;NGAYNHANCHUCTRBOMON&lt;/li&gt;&lt;/ul&gt;" style="text;strokeColor=none;fillColor=none;html=1;whiteSpace=wrap;verticalAlign=middle;overflow=hidden;" parent="1" vertex="1">
          <mxGeometry x="850" y="70" width="220" height="130" as="geometry" />
        </mxCell>
        <mxCell id="Mia9fNSxajARVFUBqXhb-9" value="KHOA" style="rounded=0;whiteSpace=wrap;html=1;" parent="1" vertex="1">
          <mxGeometry x="260" y="450" width="120" height="60" as="geometry" />
        </mxCell>
        <mxCell id="Mia9fNSxajARVFUBqXhb-10" value="" style="shape=partialRectangle;whiteSpace=wrap;html=1;bottom=1;right=1;left=1;top=0;fillColor=none;routingCenterX=-0.5;rotation=-90;" parent="1" vertex="1">
          <mxGeometry x="150" y="450" width="150" height="60" as="geometry" />
        </mxCell>
        <mxCell id="Mia9fNSxajARVFUBqXhb-11" value="&lt;ul&gt;&lt;li&gt;&lt;u&gt;MAKHOA&lt;/u&gt;&lt;/li&gt;&lt;li&gt;TENKHOA&lt;/li&gt;&lt;li&gt;NAMTHANHLAP&lt;/li&gt;&lt;li&gt;PHONGLAMVIEC&lt;/li&gt;&lt;li&gt;SDT&lt;/li&gt;&lt;li&gt;MGVTRKHOA&lt;/li&gt;&lt;li&gt;NGAYNHANCHUC&lt;/li&gt;&lt;/ul&gt;" style="text;strokeColor=none;fillColor=none;html=1;whiteSpace=wrap;verticalAlign=middle;overflow=hidden;" parent="1" vertex="1">
          <mxGeometry x="97.5" y="415" width="160" height="130" as="geometry" />
        </mxCell>
        <mxCell id="Mia9fNSxajARVFUBqXhb-12" value="DETAI" style="rounded=0;whiteSpace=wrap;html=1;" parent="1" vertex="1">
          <mxGeometry x="750" y="310" width="120" height="60" as="geometry" />
        </mxCell>
        <mxCell id="Mia9fNSxajARVFUBqXhb-13" value="" style="shape=partialRectangle;whiteSpace=wrap;html=1;bottom=1;right=1;left=1;top=0;fillColor=none;routingCenterX=-0.5;rotation=90;" parent="1" vertex="1">
          <mxGeometry x="840" y="300" width="125.62" height="60" as="geometry" />
        </mxCell>
        <mxCell id="Mia9fNSxajARVFUBqXhb-14" value="&lt;ul&gt;&lt;li&gt;&lt;u&gt;MADETAI&lt;/u&gt;&lt;/li&gt;&lt;li&gt;TENDETAI&lt;/li&gt;&lt;li&gt;CAPQUANLY&lt;/li&gt;&lt;li&gt;KINHPHI&lt;/li&gt;&lt;li&gt;NGBD&lt;/li&gt;&lt;li&gt;NGKT&lt;/li&gt;&lt;li&gt;&lt;u&gt;MACHUDE&lt;/u&gt;&lt;/li&gt;&lt;/ul&gt;" style="text;strokeColor=none;fillColor=none;html=1;whiteSpace=wrap;verticalAlign=middle;overflow=hidden;" parent="1" vertex="1">
          <mxGeometry x="870" y="265" width="220" height="130" as="geometry" />
        </mxCell>
        <mxCell id="0j6411GIjp9ZerRHx4sB-1" value="CHUDE" style="rounded=0;whiteSpace=wrap;html=1;" parent="1" vertex="1">
          <mxGeometry x="327.5" y="670" width="120" height="60" as="geometry" />
        </mxCell>
        <mxCell id="0j6411GIjp9ZerRHx4sB-2" value="" style="shape=partialRectangle;whiteSpace=wrap;html=1;bottom=1;right=1;left=1;top=0;fillColor=none;routingCenterX=-0.5;rotation=-90;" parent="1" vertex="1">
          <mxGeometry x="262.5" y="670" width="65" height="60" as="geometry" />
        </mxCell>
        <mxCell id="0j6411GIjp9ZerRHx4sB-3" value="&lt;ul&gt;&lt;li&gt;&lt;u&gt;MACHUDE&lt;/u&gt;&lt;/li&gt;&lt;li&gt;TENCHUDE&lt;/li&gt;&lt;/ul&gt;" style="text;strokeColor=none;fillColor=none;html=1;whiteSpace=wrap;verticalAlign=middle;overflow=hidden;" parent="1" vertex="1">
          <mxGeometry x="195" y="640" width="125" height="120" as="geometry" />
        </mxCell>
        <mxCell id="0j6411GIjp9ZerRHx4sB-4" value="" style="shape=partialRectangle;whiteSpace=wrap;html=1;bottom=1;right=1;left=1;top=0;fillColor=none;routingCenterX=-0.5;rotation=90;" parent="1" vertex="1">
          <mxGeometry x="817.81" y="662.19" width="90" height="60" as="geometry" />
        </mxCell>
        <mxCell id="0j6411GIjp9ZerRHx4sB-5" value="CONGVIEC" style="rounded=0;whiteSpace=wrap;html=1;" parent="1" vertex="1">
          <mxGeometry x="710" y="670" width="120" height="60" as="geometry" />
        </mxCell>
        <mxCell id="0j6411GIjp9ZerRHx4sB-6" value="&lt;ul&gt;&lt;li&gt;&lt;u&gt;SOTHUTU&lt;/u&gt;&lt;/li&gt;&lt;li&gt;TENCONGVIEC&lt;/li&gt;&lt;li&gt;NGBD&lt;/li&gt;&lt;li&gt;NGKT&lt;/li&gt;&lt;/ul&gt;" style="text;strokeColor=none;fillColor=none;html=1;whiteSpace=wrap;verticalAlign=middle;overflow=hidden;" parent="1" vertex="1">
          <mxGeometry x="820" y="629.69" width="190" height="125" as="geometry" />
        </mxCell>
        <mxCell id="0j6411GIjp9ZerRHx4sB-9" value="" style="endArrow=none;html=1;rounded=0;exitX=1;exitY=0.5;exitDx=0;exitDy=0;" parent="1" source="Mia9fNSxajARVFUBqXhb-1" target="0j6411GIjp9ZerRHx4sB-15" edge="1">
          <mxGeometry width="50" height="50" relative="1" as="geometry">
            <mxPoint x="580" y="460" as="sourcePoint" />
            <mxPoint x="370" y="210" as="targetPoint" />
          </mxGeometry>
        </mxCell>
        <mxCell id="0j6411GIjp9ZerRHx4sB-11" value="1,N" style="edgeLabel;html=1;align=center;verticalAlign=middle;resizable=0;points=[];" parent="0j6411GIjp9ZerRHx4sB-9" vertex="1" connectable="0">
          <mxGeometry x="-0.8756" y="-2" relative="1" as="geometry">
            <mxPoint x="5" y="-7" as="offset" />
          </mxGeometry>
        </mxCell>
        <mxCell id="0j6411GIjp9ZerRHx4sB-12" value="&lt;ul&gt;&lt;li&gt;SONHA&lt;/li&gt;&lt;li&gt;DUONG&lt;/li&gt;&lt;li&gt;QUAN&lt;/li&gt;&lt;li&gt;THANHPHO&lt;/li&gt;&lt;/ul&gt;" style="text;strokeColor=none;fillColor=none;html=1;whiteSpace=wrap;verticalAlign=middle;overflow=hidden;" parent="1" vertex="1">
          <mxGeometry x="-150" y="35" width="130" height="130" as="geometry" />
        </mxCell>
        <mxCell id="0j6411GIjp9ZerRHx4sB-13" value="" style="endArrow=none;html=1;rounded=0;entryX=1;entryY=0.423;entryDx=0;entryDy=0;entryPerimeter=0;" parent="1" source="Mia9fNSxajARVFUBqXhb-5" target="0j6411GIjp9ZerRHx4sB-12" edge="1">
          <mxGeometry width="50" height="50" relative="1" as="geometry">
            <mxPoint x="310" y="430" as="sourcePoint" />
            <mxPoint x="360" y="380" as="targetPoint" />
          </mxGeometry>
        </mxCell>
        <mxCell id="0j6411GIjp9ZerRHx4sB-15" value="Thuoc" style="rhombus;whiteSpace=wrap;html=1;" parent="1" vertex="1">
          <mxGeometry x="460" width="80" height="40" as="geometry" />
        </mxCell>
        <mxCell id="0j6411GIjp9ZerRHx4sB-16" value="" style="endArrow=none;html=1;rounded=0;exitX=0;exitY=0.5;exitDx=0;exitDy=0;" parent="1" source="Mia9fNSxajARVFUBqXhb-6" target="0j6411GIjp9ZerRHx4sB-15" edge="1">
          <mxGeometry width="50" height="50" relative="1" as="geometry">
            <mxPoint x="310" y="420" as="sourcePoint" />
            <mxPoint x="360" y="370" as="targetPoint" />
          </mxGeometry>
        </mxCell>
        <mxCell id="0j6411GIjp9ZerRHx4sB-23" value="1,N" style="edgeLabel;html=1;align=center;verticalAlign=middle;resizable=0;points=[];" parent="0j6411GIjp9ZerRHx4sB-16" vertex="1" connectable="0">
          <mxGeometry x="-0.7498" y="1" relative="1" as="geometry">
            <mxPoint as="offset" />
          </mxGeometry>
        </mxCell>
        <mxCell id="0j6411GIjp9ZerRHx4sB-17" value="Truong_Bo_mon" style="rhombus;whiteSpace=wrap;html=1;" parent="1" vertex="1">
          <mxGeometry x="450" y="-110" width="120" height="70" as="geometry" />
        </mxCell>
        <mxCell id="0j6411GIjp9ZerRHx4sB-18" value="" style="endArrow=none;html=1;rounded=0;exitX=0.75;exitY=0;exitDx=0;exitDy=0;entryX=0;entryY=0.5;entryDx=0;entryDy=0;" parent="1" source="Mia9fNSxajARVFUBqXhb-1" target="0j6411GIjp9ZerRHx4sB-17" edge="1">
          <mxGeometry width="50" height="50" relative="1" as="geometry">
            <mxPoint x="310" y="420" as="sourcePoint" />
            <mxPoint x="360" y="370" as="targetPoint" />
          </mxGeometry>
        </mxCell>
        <mxCell id="0j6411GIjp9ZerRHx4sB-20" value="0,1" style="text;html=1;align=center;verticalAlign=middle;resizable=0;points=[];autosize=1;strokeColor=none;fillColor=none;" parent="1" vertex="1">
          <mxGeometry x="260" y="95" width="40" height="30" as="geometry" />
        </mxCell>
        <mxCell id="0j6411GIjp9ZerRHx4sB-21" value="" style="endArrow=none;html=1;rounded=0;exitX=0.4;exitY=0.014;exitDx=0;exitDy=0;entryX=0.892;entryY=0.443;entryDx=0;entryDy=0;entryPerimeter=0;exitPerimeter=0;" parent="1" edge="1" source="Mia9fNSxajARVFUBqXhb-6">
          <mxGeometry width="50" height="50" relative="1" as="geometry">
            <mxPoint x="800" y="111.99" as="sourcePoint" />
            <mxPoint x="567.04" y="-72.00000000000001" as="targetPoint" />
          </mxGeometry>
        </mxCell>
        <mxCell id="0j6411GIjp9ZerRHx4sB-22" value="1,1" style="edgeLabel;html=1;align=center;verticalAlign=middle;resizable=0;points=[];" parent="0j6411GIjp9ZerRHx4sB-21" vertex="1" connectable="0">
          <mxGeometry x="-0.786" y="-2" relative="1" as="geometry">
            <mxPoint x="-13" y="-4" as="offset" />
          </mxGeometry>
        </mxCell>
        <mxCell id="0j6411GIjp9ZerRHx4sB-24" value="Thuoc" style="rhombus;whiteSpace=wrap;html=1;" parent="1" vertex="1">
          <mxGeometry x="510" y="190" width="80" height="59.06" as="geometry" />
        </mxCell>
        <mxCell id="0j6411GIjp9ZerRHx4sB-26" value="" style="endArrow=none;html=1;rounded=0;exitX=0.938;exitY=0.389;exitDx=0;exitDy=0;exitPerimeter=0;entryX=0;entryY=1;entryDx=0;entryDy=0;" parent="1" source="0j6411GIjp9ZerRHx4sB-24" target="Mia9fNSxajARVFUBqXhb-6" edge="1">
          <mxGeometry width="50" height="50" relative="1" as="geometry">
            <mxPoint x="710" y="190" as="sourcePoint" />
            <mxPoint x="730" y="170" as="targetPoint" />
          </mxGeometry>
        </mxCell>
        <mxCell id="0j6411GIjp9ZerRHx4sB-27" value="1,1" style="edgeLabel;html=1;align=center;verticalAlign=middle;resizable=0;points=[];" parent="0j6411GIjp9ZerRHx4sB-26" vertex="1" connectable="0">
          <mxGeometry x="0.7518" y="2" relative="1" as="geometry">
            <mxPoint as="offset" />
          </mxGeometry>
        </mxCell>
        <mxCell id="0j6411GIjp9ZerRHx4sB-28" value="" style="endArrow=none;html=1;rounded=0;exitX=1;exitY=0;exitDx=0;exitDy=0;entryX=0;entryY=1;entryDx=0;entryDy=0;" parent="1" source="Mia9fNSxajARVFUBqXhb-9" target="0j6411GIjp9ZerRHx4sB-24" edge="1">
          <mxGeometry width="50" height="50" relative="1" as="geometry">
            <mxPoint x="710" y="190" as="sourcePoint" />
            <mxPoint x="540" y="260" as="targetPoint" />
          </mxGeometry>
        </mxCell>
        <mxCell id="0j6411GIjp9ZerRHx4sB-29" value="1,N" style="edgeLabel;html=1;align=center;verticalAlign=middle;resizable=0;points=[];" parent="0j6411GIjp9ZerRHx4sB-28" vertex="1" connectable="0">
          <mxGeometry x="-0.7383" relative="1" as="geometry">
            <mxPoint as="offset" />
          </mxGeometry>
        </mxCell>
        <mxCell id="0j6411GIjp9ZerRHx4sB-30" value="truong_khoa" style="rhombus;whiteSpace=wrap;html=1;" parent="1" vertex="1">
          <mxGeometry x="247.5" y="260" width="80" height="80" as="geometry" />
        </mxCell>
        <mxCell id="0j6411GIjp9ZerRHx4sB-31" value="" style="endArrow=none;html=1;rounded=0;exitX=0.5;exitY=0;exitDx=0;exitDy=0;" parent="1" source="0j6411GIjp9ZerRHx4sB-30" target="Mia9fNSxajARVFUBqXhb-1" edge="1">
          <mxGeometry width="50" height="50" relative="1" as="geometry">
            <mxPoint x="710" y="420" as="sourcePoint" />
            <mxPoint x="760" y="370" as="targetPoint" />
          </mxGeometry>
        </mxCell>
        <mxCell id="0j6411GIjp9ZerRHx4sB-32" value="0,1" style="edgeLabel;html=1;align=center;verticalAlign=middle;resizable=0;points=[];" parent="0j6411GIjp9ZerRHx4sB-31" vertex="1" connectable="0">
          <mxGeometry x="0.6581" y="4" relative="1" as="geometry">
            <mxPoint as="offset" />
          </mxGeometry>
        </mxCell>
        <mxCell id="0j6411GIjp9ZerRHx4sB-33" value="" style="endArrow=none;html=1;rounded=0;exitX=0.5;exitY=1;exitDx=0;exitDy=0;entryX=0.5;entryY=0;entryDx=0;entryDy=0;" parent="1" source="0j6411GIjp9ZerRHx4sB-30" target="Mia9fNSxajARVFUBqXhb-9" edge="1">
          <mxGeometry width="50" height="50" relative="1" as="geometry">
            <mxPoint x="710" y="420" as="sourcePoint" />
            <mxPoint x="760" y="370" as="targetPoint" />
          </mxGeometry>
        </mxCell>
        <mxCell id="0j6411GIjp9ZerRHx4sB-34" value="1,1" style="edgeLabel;html=1;align=center;verticalAlign=middle;resizable=0;points=[];" parent="0j6411GIjp9ZerRHx4sB-33" vertex="1" connectable="0">
          <mxGeometry x="0.5375" y="-2" relative="1" as="geometry">
            <mxPoint as="offset" />
          </mxGeometry>
        </mxCell>
        <mxCell id="0j6411GIjp9ZerRHx4sB-35" value="thuoc" style="rhombus;whiteSpace=wrap;html=1;" parent="1" vertex="1">
          <mxGeometry x="560" y="395" width="80" height="80" as="geometry" />
        </mxCell>
        <mxCell id="0j6411GIjp9ZerRHx4sB-36" value="" style="endArrow=none;html=1;rounded=0;exitX=1;exitY=0.5;exitDx=0;exitDy=0;entryX=0;entryY=0.75;entryDx=0;entryDy=0;" parent="1" source="0j6411GIjp9ZerRHx4sB-35" target="Mia9fNSxajARVFUBqXhb-12" edge="1">
          <mxGeometry width="50" height="50" relative="1" as="geometry">
            <mxPoint x="710" y="650" as="sourcePoint" />
            <mxPoint x="760" y="600" as="targetPoint" />
          </mxGeometry>
        </mxCell>
        <mxCell id="0j6411GIjp9ZerRHx4sB-37" value="1,N" style="edgeLabel;html=1;align=center;verticalAlign=middle;resizable=0;points=[];" parent="0j6411GIjp9ZerRHx4sB-36" vertex="1" connectable="0">
          <mxGeometry x="0.7612" y="3" relative="1" as="geometry">
            <mxPoint y="-1" as="offset" />
          </mxGeometry>
        </mxCell>
        <mxCell id="0j6411GIjp9ZerRHx4sB-38" value="" style="endArrow=none;html=1;rounded=0;exitX=0.883;exitY=0.05;exitDx=0;exitDy=0;exitPerimeter=0;entryX=0;entryY=1;entryDx=0;entryDy=0;" parent="1" source="0j6411GIjp9ZerRHx4sB-1" target="0j6411GIjp9ZerRHx4sB-35" edge="1">
          <mxGeometry width="50" height="50" relative="1" as="geometry">
            <mxPoint x="710" y="650" as="sourcePoint" />
            <mxPoint x="760" y="600" as="targetPoint" />
          </mxGeometry>
        </mxCell>
        <mxCell id="0j6411GIjp9ZerRHx4sB-39" value="1,1" style="edgeLabel;html=1;align=center;verticalAlign=middle;resizable=0;points=[];" parent="0j6411GIjp9ZerRHx4sB-38" vertex="1" connectable="0">
          <mxGeometry x="-0.7572" y="1" relative="1" as="geometry">
            <mxPoint x="1" y="1" as="offset" />
          </mxGeometry>
        </mxCell>
        <mxCell id="0j6411GIjp9ZerRHx4sB-40" value="Chia" style="rhombus;whiteSpace=wrap;html=1;" parent="1" vertex="1">
          <mxGeometry x="750" y="530" width="80" height="60" as="geometry" />
        </mxCell>
        <mxCell id="0j6411GIjp9ZerRHx4sB-41" value="" style="endArrow=none;html=1;rounded=0;entryX=0.5;entryY=1;entryDx=0;entryDy=0;exitX=0.5;exitY=0;exitDx=0;exitDy=0;" parent="1" source="0j6411GIjp9ZerRHx4sB-44" target="Mia9fNSxajARVFUBqXhb-12" edge="1">
          <mxGeometry width="50" height="50" relative="1" as="geometry">
            <mxPoint x="470" y="420" as="sourcePoint" />
            <mxPoint x="520" y="370" as="targetPoint" />
          </mxGeometry>
        </mxCell>
        <mxCell id="0j6411GIjp9ZerRHx4sB-42" value="" style="endArrow=none;html=1;rounded=0;exitX=0.5;exitY=0;exitDx=0;exitDy=0;entryX=0.5;entryY=1;entryDx=0;entryDy=0;" parent="1" source="0j6411GIjp9ZerRHx4sB-5" target="0j6411GIjp9ZerRHx4sB-40" edge="1">
          <mxGeometry width="50" height="50" relative="1" as="geometry">
            <mxPoint x="470" y="420" as="sourcePoint" />
            <mxPoint x="520" y="370" as="targetPoint" />
          </mxGeometry>
        </mxCell>
        <mxCell id="0j6411GIjp9ZerRHx4sB-43" value="1,N" style="edgeLabel;html=1;align=center;verticalAlign=middle;resizable=0;points=[];" parent="0j6411GIjp9ZerRHx4sB-42" vertex="1" connectable="0">
          <mxGeometry x="-0.66" y="-1" relative="1" as="geometry">
            <mxPoint as="offset" />
          </mxGeometry>
        </mxCell>
        <mxCell id="0j6411GIjp9ZerRHx4sB-45" value="" style="endArrow=none;html=1;rounded=0;entryX=0.5;entryY=1;entryDx=0;entryDy=0;exitX=0.5;exitY=0;exitDx=0;exitDy=0;" parent="1" source="0j6411GIjp9ZerRHx4sB-40" target="0j6411GIjp9ZerRHx4sB-44" edge="1">
          <mxGeometry width="50" height="50" relative="1" as="geometry">
            <mxPoint x="790" y="530" as="sourcePoint" />
            <mxPoint x="810" y="370" as="targetPoint" />
          </mxGeometry>
        </mxCell>
        <mxCell id="0j6411GIjp9ZerRHx4sB-44" value="1,N" style="text;html=1;align=center;verticalAlign=middle;resizable=0;points=[];autosize=1;strokeColor=none;fillColor=none;" parent="1" vertex="1">
          <mxGeometry x="790" y="380" width="40" height="30" as="geometry" />
        </mxCell>
        <mxCell id="0j6411GIjp9ZerRHx4sB-46" value="Tham gia" style="rhombus;whiteSpace=wrap;html=1;" parent="1" vertex="1">
          <mxGeometry x="270" y="780" width="80" height="80" as="geometry" />
        </mxCell>
        <mxCell id="0j6411GIjp9ZerRHx4sB-48" value="" style="endArrow=none;html=1;rounded=0;exitX=1;exitY=0.5;exitDx=0;exitDy=0;entryX=0.5;entryY=1;entryDx=0;entryDy=0;" parent="1" source="0j6411GIjp9ZerRHx4sB-46" target="0j6411GIjp9ZerRHx4sB-5" edge="1">
          <mxGeometry width="50" height="50" relative="1" as="geometry">
            <mxPoint x="470" y="650" as="sourcePoint" />
            <mxPoint x="770" y="770" as="targetPoint" />
            <Array as="points">
              <mxPoint x="750" y="850" />
            </Array>
          </mxGeometry>
        </mxCell>
        <mxCell id="0j6411GIjp9ZerRHx4sB-50" value="N,N" style="edgeLabel;html=1;align=center;verticalAlign=middle;resizable=0;points=[];" parent="0j6411GIjp9ZerRHx4sB-48" vertex="1" connectable="0">
          <mxGeometry x="0.9248" relative="1" as="geometry">
            <mxPoint as="offset" />
          </mxGeometry>
        </mxCell>
        <mxCell id="0j6411GIjp9ZerRHx4sB-49" value="" style="endArrow=none;html=1;rounded=0;exitX=0;exitY=0.5;exitDx=0;exitDy=0;entryX=0.5;entryY=1;entryDx=0;entryDy=0;" parent="1" source="0j6411GIjp9ZerRHx4sB-46" target="Mia9fNSxajARVFUBqXhb-1" edge="1">
          <mxGeometry width="50" height="50" relative="1" as="geometry">
            <mxPoint x="470" y="650" as="sourcePoint" />
            <mxPoint x="130" y="290" as="targetPoint" />
            <Array as="points">
              <mxPoint x="100" y="770" />
              <mxPoint x="80" y="340" />
            </Array>
          </mxGeometry>
        </mxCell>
        <mxCell id="0j6411GIjp9ZerRHx4sB-51" value="1,N" style="edgeLabel;html=1;align=center;verticalAlign=middle;resizable=0;points=[];" parent="0j6411GIjp9ZerRHx4sB-49" vertex="1" connectable="0">
          <mxGeometry x="0.9175" relative="1" as="geometry">
            <mxPoint as="offset" />
          </mxGeometry>
        </mxCell>
        <mxCell id="0j6411GIjp9ZerRHx4sB-53" value="&lt;div&gt;&lt;br&gt;&lt;/div&gt;&lt;ul&gt;&lt;li&gt;KETQUATHUCHIEN&lt;/li&gt;&lt;li&gt;PHUCAP&lt;/li&gt;&lt;/ul&gt;" style="text;strokeColor=none;fillColor=none;html=1;whiteSpace=wrap;verticalAlign=middle;overflow=hidden;" parent="1" vertex="1">
          <mxGeometry x="185" y="890" width="165" height="75" as="geometry" />
        </mxCell>
        <mxCell id="0j6411GIjp9ZerRHx4sB-55" value="" style="endArrow=none;html=1;rounded=0;exitX=0.5;exitY=0;exitDx=0;exitDy=0;entryX=0.338;entryY=0.838;entryDx=0;entryDy=0;entryPerimeter=0;" parent="1" source="0j6411GIjp9ZerRHx4sB-53" target="0j6411GIjp9ZerRHx4sB-46" edge="1">
          <mxGeometry width="50" height="50" relative="1" as="geometry">
            <mxPoint x="470" y="850" as="sourcePoint" />
            <mxPoint x="520" y="800" as="targetPoint" />
          </mxGeometry>
        </mxCell>
        <mxCell id="JBRq2sOy_99XVFB9aw8e-1" value="" style="endArrow=none;html=1;rounded=0;" edge="1" parent="1" source="Mia9fNSxajARVFUBqXhb-5" target="JBRq2sOy_99XVFB9aw8e-2">
          <mxGeometry width="50" height="50" relative="1" as="geometry">
            <mxPoint x="80" y="30" as="sourcePoint" />
            <mxPoint x="30" y="10" as="targetPoint" />
          </mxGeometry>
        </mxCell>
        <mxCell id="JBRq2sOy_99XVFB9aw8e-2" value="Nguoithan" style="rhombus;whiteSpace=wrap;html=1;" vertex="1" parent="1">
          <mxGeometry x="-90" y="-70" width="130" height="80" as="geometry" />
        </mxCell>
        <mxCell id="JBRq2sOy_99XVFB9aw8e-4" value="&lt;ul&gt;&lt;li&gt;&lt;u&gt;MAGIAOVIEN&lt;/u&gt;&lt;/li&gt;&lt;li&gt;TEN&lt;/li&gt;&lt;li&gt;NGSINH&lt;/li&gt;&lt;li&gt;PHAI&lt;/li&gt;&lt;/ul&gt;" style="text;strokeColor=none;fillColor=none;html=1;whiteSpace=wrap;verticalAlign=middle;overflow=hidden;" vertex="1" parent="1">
          <mxGeometry x="80" y="-150" width="130" height="130" as="geometry" />
        </mxCell>
        <mxCell id="JBRq2sOy_99XVFB9aw8e-5" value="" style="endArrow=none;html=1;rounded=0;exitX=1;exitY=0;exitDx=0;exitDy=0;" edge="1" parent="1" source="JBRq2sOy_99XVFB9aw8e-2" target="JBRq2sOy_99XVFB9aw8e-4">
          <mxGeometry width="50" height="50" relative="1" as="geometry">
            <mxPoint x="400" y="110" as="sourcePoint" />
            <mxPoint x="450" y="60" as="targetPoint" />
          </mxGeometry>
        </mxCell>
        <mxCell id="JBRq2sOy_99XVFB9aw8e-7" value="" style="shape=image;imageAspect=0;aspect=fixed;verticalLabelPosition=bottom;verticalAlign=top;image=data:image/png,iVBORw0KGgoAAAANSUhEUgAABCIAAAMwCAIAAAB6ClYaAADqYElEQVR4nOy9fdAc1X2gi0B8XtuwcbADgViBwMKigJFkAZZBPbwIRLjYK5BBL1pLiyCENR95L9cutryboKLKAxYEXWu9XpupcG3saL0izn3LqaJqqzZUuSzIhlpbdlXyR/7e/JEqNllvyEetd6u4Z+Z0n/6dr56emZ7p7unnqS7pne7Tp3t6+kz/njlfp10HAAAAAABQKafVfQIAAAAAALBsoBkAAAAAAFAxaAYAAAAAAFQMmgEAAAAAABWDZgAAAAAAQMWgGQAAAAAAUDFoBgAAAAAAVAyaAQAAAAAAFYNmAAAAAABAxaAZAABw3WkP/wELSyuWussKAJQFzQAAADSDpTVL3WUFAMqCZgAAAJrB0pql7rICAGVBMwAAINeMTQCNBM0AaB1oBgAAoBnQdNAMgNaBZgAAAJoBTQfNAGgdaAYAAKAZ0HTQDIDWgWYAAACaAU0HzQBoHWgGAACgGdB00AyA1oFmAAAAmmGx4YU/Oe3oqeJFJbvkuhvqPtMOgWYAtA40AwAA0IycMo5hTEOwcvj1Hw8ObSqxEqYBzQBoHWgGAACgGTklHQPNWDBoBkDrQDMAAADNyFH+8PAfv+Ms/ko0Y8GgGQCtA80AAAA0IyemGas/+MvSmjH8+8fDV3qlfql4/fCKvYNBuojcYO3RadAMgNaBZgAAAJqRM3ttxqGB0QNtDOkLsV5vMG5hvVo5PMjcwk7VbdAMgNaBZgAAAJqRM2PfDOkSeqX9ypiIXU8Ra13lJewsaAZA60AzAAAAzcjx/CG8MqgZr7/+ut/+KX9tpGPoIo5UWD5htadCM0agGQCtA80AAAA0IyemGZde/auFyYxmSC2YQjOG2/I8qM3IQDMAWgeaAQAAaEbOaS/9KLCyXG1G2uk7N4OIZthtqayEkT0AzQBoHWgGAACgGRaTd8zYJP1AdNyOSsOozsLqAi46jVv9xNEMDZoB0DrQDAAAQDNmxzKKkUWkQ9nG6iZi49bm69VaGk1loBkArQPNAAAANAOaDpoB0DrQDAAAQDOg6aAZAK0DzQAAADQDmg6aAdA60AwAAEAzoOmgGQCtA80AAAA0A5oOmgHQOtAMAABAM6DpoBkArQPNAAAANAOaDpoB0DrQDAAAyDWDhaXhS91lBQDKgmYAAECuGQlAI0EzAFoHmgEAAGgGNB00A6B1oBkAAIBmQNNBMwBaB5oBAABoBjQdNAOgdaAZAACAZkDTQTMAWgeaAQAAaAY0HTQDoHWgGQAAgGZA00EzAFoHmgEAAGgGNB00A6B1oBkAAIBmQNNBMwBaB5oBAACVaUavt9pfP5my3l/t9cwmsWGwJtaLPYY7+FmptematYHIIN2q/sx30Qns45qd/EMXn8Ds10Ge23QMT36wZuU8XJWepz5G0b7eO/J3sa5Pdunsi5ZfvIkOEbwIw/OXRwnmGXpTaAZA60AzAAAgoBmnv/j2aUdPnXnkzTTIO3pKLybBxiNvqZcqmRVESs0QMX1sfWLpR24UiacZPSMZoyC1jGbku1iEwuLQCcxCJZoxPH3HMdJ3nb8F9Tp2zumb92UvyzO9PiLB6LX16cSC/jKHQDMAOg6aAQAArmZox5BqUfBSuoeJg9dtB9Cr07Uh/Ug3iYDV0YzMGNJ9x2qGEJs0KO/ZtSFjT2AWZteMUQ7BioLBQGhGT7tI6JxH8Xx/YLuT1IysXqTn7CWj/LGaUXAINAOg46AZAADgaoajE/oPs0mudzCaMRisy2Y2eu0wQnaifCMLuVMENKMnJMPZGtWMzDICCTz/CZ7ARLiVNWmE7aqOOKJVD5Cl1+c3ysCvykiD9rWBfZKxCo00nQ7be3ntR+YA6QZnr9FR8vxLaEbBIdAMgE6DZgAAQEAz8vAu84pz+m+opaRm9NeMBZiQP4uinZD0pNXXIu+Jka/pGznwDhRiFMUKy5D9PfJmPmNPoDyjPbNqltV+f63ntG6S9Qar/UFWu5LuZ/5eXx/EWkOZkL3naYYvJBqdLrED99wBbDdwLpFxgzKaET0EmgHQbdAMAAAI12Y4raTUv+d88Y+cTWo5+7nvO9GwrB3IA3j9Q7zV8Cl/neQVAm6zKGkP/oEm1Ix89dgTKEmwWqCXVQqkLzNHcPfNYm4nvY62ZZ4m+A5oRtq6ys3cOICsoJiTZoQPgWYAdBs0AwAASjWakst7I+J9M4bBpSMcw5DW0QzRgzgLVfOgP1CbEepTEWs0VaY2o/gEShKM150I22mJZBmS0Ay7SZhoZyVC84BmRLpnGAdIj2guyxw0I3wINAOg26AZAAAQbTS1ed/jvmYYwTB/iCA10AppPbMMRzPCo6bmVQ2BvhlilKRxfTO8bhh5gmxl8QmUZCLNcAZ3cmoznOoLR7diJzm2NiPJ5EG9zB3ANp/8zCfvmxE9hFdFk6AZAF0CzQAAgLLzZkymGTI+zn9BzzaGR5s9KRIER5pyg+9pRppKE4w5geJLkR80FK9HNcNuPZXbR0gzgr1EpuibIS7OoO+MNDUuyi+vGcFDhKfpmOQEDGgGQOtAMwAAYDLNKNloKhGtg1I3kJphN1hKd5dNnWLzZtgjSRXNmxGuBsisY9wJFF8KNzIOdQGPaIbdRiuiGTF58DWjeKQp7zxljVB64sE3kq8prRmBQ2S94/M3Na6qBM0AWBrQDAAAmFgzZFVGgWbIuo3E0owsnLdb+9hdKryxp/LqB9n1I6oZVoYnrcP1SpxA8aUIBMeeBQX7ZuQnpFbEG035OhFcP27eDLvBUtZLJvB+T4bf9aSaETiE1xMldNHyK+ev1InRDIDWgWYAAEBltRlQIbEKDUmsKmP5QDMAWgeaAQAAZTUjOKCtWrmYQLODFFcm+D0flhg0A6B1oBkAAFBWMwDqAs0AaB1oBgAAoBnQdNAMgNaBZgAAAJoBTQfNAGgdaAYAAKAZ0HTQDIDWgWYAAACaAU0HzQBoHWgGAADkmsHC0vCl7rICAGVBMwAAgNoMaDpoBkDrQDMAAADNgKaDZgC0DjQDAADQDGg6aAZA60AzAAAAzYCmg2YAtA40AwAA0AxoOmgGQOtAMwAAAM2ApoNmALQONAMAANAMaDpoBkDrQDMAAADNgKaDZgC0DjQDAADQDGg6aAZA60AzAACgMs1YG5wMMFhTm1b76/ba9f5qL9sl/dswTDzay/lb0ct28DeZc9Bbw2c1PFTP2aXXG51daFM30RdksDbr1Rhe+dEH1HPuDPGp5Vuy6x/8WNEMgNaBZgAAQEAzTn/x7dOOnjrzyJtpkHf0lF5Mgo1H3lIvVbLi+NIQjB3zKNMO8WOaoXXAhL9jNaNnpCTLfPRaZWAF0MNsFZ7tdJZKNGN47c0HJ/6WDA8z+nR62Udr1juuiGYAtA40AwAAXM3QjiHVouCldA/DRJqx3u8PTlpVEEHN0M4QS2ZnuJqfhldH4Z+b3sVf31lm14xRDrm2BT8p/YGao/Qy58g2WTaIZgC0DjQDAABczXB0Qv9hNsn1MSbUjNUs4AxEpWnAmwWhY/M0muFEsXl0K8LZLNnIRbIjFbyvZuJc7byKQLZUy3Qre5+6Gil9vzLhcFWaxqwWl6tcnk71RVgz7AvufF5OhQaaAdA60AwAAAhoRh7eZV5xTv8NtcxJM5xdfM0IVjWM0QxbXfLo1vkRPbOMqjokLB7zFhK7ImK1P8gqB/ImSamwrQ+sqobsQqmN/TUjKKL/TN5xomyebr2T1zFDnnbiVaE4ooJmALQONAMAAMK1GU4rKbPJJNiy56Batu456Ae+Yc1we4CnIWxqBaKSwdUM+wf1aJ4i76S0ZshGVjEXajimQibxqgjyNLZNOd1XHLly00yYZzK6qkFhS3vLmH7hnmZYBxVb0QyA1oFmAABAqUZTetnw0g+T6vtmiChfNF+SO8pf3IvznKg2w21AZb9sEeZdO9fEMrFQpU3wKrlp7MsyPk+7Y4aDOeKY2gy7ewaaAdA60AwAAIg2mtq873FHMz529zCW3dm71ay5+bY7glHvFJphOnkHu4D7g0SN0YyIM7jVJpHKkHaRhex5pO6MshVrGzaRZpTMM4nXZiSibsQ5dKBHOLUZAG0GzQAAgOqn55tOM5Is6u2HR5pyZ7coNdJUKIHVo8DvVt7CCTTSqoG1vHWT09LJGTo2VlOR5RbRjHJ5JqHZS/LMTW2GaOvlnzB9MwDaDpoBAAAN0ozEzKQRnDdDtOyP5RmYN8OdDE4G4l6EbU/N0SKGb3w973htjQ+b9+gOK0GwC3hEM0rlaU2a0dP9xvO9/BGHfeVjpCmAtoNmAADAojTDRkelvmak8WtsFnAR3Y7VjMTUgXjDHCWRWTWceeJaRNbizG5UZtqBFQ6oJSbpzofCDdZ4lMzT6pVufwTRQ8tPmXkzANoPmgEAANVrBkBs5u8yrDILOED7QTMAAADNgLkw3cTqwUoqNAOgdaAZAACAZkDTQTMAWgeaAQAAaAY0HTQDoHWgGQAAgGZA00EzAFoHmgEAAGgGNB00A6B1oBkAAIBmQNNBMwBaB5oBAABoBjQdNAOgdaAZAACAZkDTQTMAWgeaAQAAaAY0HTQDoHWgGQAAgGZA00EzAFoHmgEAAGgGNB00A6B1oBkAABDQjNOOnlKL/nvbp/brl2pRf5utG1760Rkv/GeTTLM2OHny5Hp/tSdXrvbXTw7W5Jpeb7hulLA3dvdR+tGWUSajvzzMJvtA0DTSD7LnfsTFoBkArQPNAAAAVzOUOfzCUy8bf1B/fGLXnUnmGyby29m79RO37Q5phusPAc1QqxSeUejd1VonykyT25n4UoFmLAdDqbRvITQDoHWgGQAA4GrGjb92TzKyCyf4U7JhacatK36aUXzYH9iq4GuGDiODnjDUCfvXbl31gWZ0BzQDYAlAMwAAINw3w1cItWbTo8+bv8/80pu/8tAzTpo0PtTxfhYmOprRM1Gk3iCiydGGNb3WCTrXQq6CZrQO/dknmT0O1kbN507mjeWsRnHZp4lmALQONAMAAMZrhq7HuOSJLzsho7/SBJEy4nc1I7MM4xnO7qPKi/zH7HwlmtF+HM2w7CL70KnNAFgC0AwAABijGbpLxubVJ4JRo983Iw0iM1dIPM0waWKbTHVHls+wxgPNWA4czTB3gqzaQjMAlgA0AwAAxmiGGWBKI3toOJ3CE18hRNsoEU3mPb+dl7IyRP9h9kUzlgOv0VTgTkAzAJYANAMAAFzNuOSJL8sRbM3fZpRbPQ6VHOLWDyKTbBRap72TaYkvMbvYlSEqBB0OMRWsEknQjHaCZgB0BDQDAACmmZ7vxl+758oH/1VBEJnGjqPAv58ZgtNORiN7Yrgx6CAPN9GM5QDNAOgIaAYAAFQ5C7ijGYkZOEhrht1ESsSXabhpVYZkc/Xpl2jGclBWM+whyNAMgNaBZgAAwHw1Ix1PyMzS7c383cs8Iwm0uYqOipvENMNujDX7O4JqKaUZvaxtHQPaArQWNAMAAKrUDIB5gGYAtA40AwAA0AxoOmgGQOtAMwAAAM2ApoNmALQONAMAANAMaDpoBkDrQDMAAADNgKaDZgC0DjQDAADQDGg6aAZA60AzAAAAzYCmg2YAtA40AwAA0AxoOmgGQOtAMwAAAM2ApoNmALQONAMAANAMaDpoBkDrQDMAAADNgKaDZgC0DjQDAADQDGg6aAZA60AzAACgSs1YG5wUrPdXe3r9an/95GDNT6xSRHcf7t2zN+UZxrLt2WfgHxSmptfT17s3Pmkhw49o9LnID8vcCcFbBc0AaB1oBgAABDTj9BffPu3oqTOPvJkGeUdP6cUk2HjkLfVSJfMjSCtezMRgrGb0esYjenkwOoxp5UvXPWS2OgiWuwzztNPDLFSiGcPPOfvI1gbph6U/fZOzOozjn2gGQOtAMwAAwNUM7RhSLQpeSvdIXHMYRqX65VjNGIaZnhKYn72zxP3BSasCRGabHgypmBuza8YoB7dKSiM/6552EfFRohkArQPNAAAAVzMcndB/mE1yfTBYnEIznB+z86g0UweTOEvotsWK5QCzoKuHstZnvUwzzOpcGHoyaSZ7WXpdETXKQFRlODgt6JwKDTQDoHWgGQAAENCMPLzLvOKc/htqmUIzdOg/RjNseTBIeTCJ5c/euWZEcoCpGYlD1qhptd/PNOOkED9jFKv9gV6Zpkndb6SJ6wPZRcdpDaXxPz5HSNAMgNaBZgAAQLg2w2klZTaZBFv2HFTL1j0HZbzotoPKYkf5Y7fTSTwYZaaxZkgzZBVHTDPE4XCPaQjWDsnqqST9IEKfWlrx1HPSJ6MPUebZM33AvdZuWeuqdCWaAdA60AwAACjVaEovG176YTKub0ZwqKgKazMS0Q2juDYjFgfDWMLX0+6bIX0vcUxSaEaePt4xo5cNFyCOZXXPQDMAWgeaAQAA0UZTm/c97mjGx+4eBoI7e7eaNTffdoeMF/0xavMYtEAz7IDVjj6tvhkiBh2+zDUjlAOaMTUTaYYzSphTmyGrL5zajIIjUpsB0HbQDAAAqHjejCk0I7F7XMgE9khT4tfu0ba+yNbPAc2YmrC2xTTDvs65fYQ0I3h7JL5m0DcDoOWgGdAJzPOJhaXhS+1lZPbwdGrNSH8RF2n8eTPCc/lZo6BaLbXQjFmQ1192AY9oRuokopd4QDOkPKjPq+9VT5mUjDQF0HbQDOgEtceOLCwll9rLSCWx6XSakeTz64Un8PZzNtPxOcnsScBxjOmxJ+mOakYiO2aoFfFGU72sQVXifdwFHTMSNAOghaAZ0Alqjx1ZWEoutZeRBUWv0GEKps4wMAs4wBKAZkAnMM+nTQCNpPYQCs2ARRLsh2MIVnzVXkYAYFLQDOgEaAY0nNpDKDQDGk7tZQQAJgXNgE6AZkDDqT2EQjOg4dReRgBgUtAM6ARoBjSc2kMoNAMaTu1lBAAmBc2AToBmQMOpPYRCM6Dh1F5GAGBS0AzoBGgGNJzaQyg0AxpO7WUEACYFzYBO0E3N2PDCn5x29FTxopJdct0NdZ8poBkAY6i9jADApKAZ0Ak6qBllHMOYhuTQ4MevH16p5Zy7TO0hFJoBDaf2MgIAk4JmQCfooGaUdAw0oyHUHkKhGdBwai8jADApaAZ0gm5qxsN//I6z+CvRjIZQewiFZkDDqb2MAMCkoBnQCdAMIxWrP/jLMpqxcvj1H2ts58jXKwaH7L0OmY3DLSvWq3E5DFcPDpmNnTOd2kMoNAMaTu1lBAAmBc2AToBmTFSbIcL8UdyfyYD1wn412ivdKXUF+Wp8DnqndJ9hbh0TjdpDqAo1Y7W/ftJmvb8qE6wNTp4crEUSq7S9NE32t5XzaMfRVo/RJpPGOWLgHKxj9pxder3RqXmb5MkvMfrtD9bcyzIpzuUKZpt/FtnVDn6ItZcRAJgUNAM6QTc1Y+q+GVb1wzD+1yG/15xK10AE9vJe5foQyyE/jJNzR6g9hPI14/QX31a3x5lH3kyDvOyGMQk2HnlLvVTJnHDQiRF7PR1Gqtiy54eewYAyDz3tKN9P7Af9YzUjPR+R8+h1fnppMpWRwlMdNGOCTNTFEtfK6ITMdniY0WeRep24MRwzrL2MAMCkoBnQCbqpGWVWluibka1w/WNTXCAir4pysMXClo4uUHsI5WiGdgypFgUvpXskoUDfiSBLasZ6vz+wa0Iq0Yy1Qak6Cr1LcD2aUTqHXNJ6+sJl/2Vp7JeZc2SbLPervYwAwKSgGdAJ0Ayz8tKrf7U4GZpRC7WHUI5mODqh/zCb5HqfYKCfxZNZg6hSmrEq9womnlQznLg2Pz0R4GbJRi6SBts9mdVSaoZsvTZ8w+k7N6vFxZFJM2HL0uc1V05VRrpvwCvyy+tsdSo0ai8jADApaAZ0gi5qxks/CqwsV5thuYB57Yf+dqOp8ZpRlAOa0TjNyMO7zCvO6b+hlik1Q8Tx5TVjbOKJNcP2lvz0nPA3swz/R/2l1Iy0skkLw2q/n2mG1VUm7zgxyCoc8koq/ff6+sDYiN/qKYlf52yrdbUdUam9jADApKAZ0Ak6qBmbynXP8PfSXcBl124T7482WR245abxmlGUA5rROM3wW0mZTSbBlj0H1bJ1z0E3Zg3/jB3RDLcHeJomFQPhJ2U1I8REmiEbWTkHXT7NCNbw9LLrnr70anXS9baPSa/QbZ6KjxXUDOugYmvtZQQAJgXNgE7QTc2YDmdoWqeVkxyOVnpASc2I54BmNFEz/D/UsuGlHyYT9s1IZqjNSEQv4cXUZrgNqOyXS6gZoWviVizYF8FyuVC1j9MxQ2Q7SW2G3T2j9jICAJOCZkAnQDOg4dQeQsUaTW3e97ijGR+7exiv7+zdatbcfNsdMpSM9s0QNRUTaYaOTdXLCjTDDpfz03PqTCKVIcEjtp2JNMMZp6u4dVmp2ox43wxqMwDaDpoBnQDNgIZTewhV8bwZ7khTbpOkiTTDxKP9qkaaCiWw+hjYnQpMjB3bvdUE1SuqGXbrKWc4WkczxvfNEE3psqMI66BvBkDLQTOgE6AZ0HBqD6HmpxlpX+JI94aSmpGYWReqmjfDnc8h7wAdiLmzLtLBIy4BzhXor3mNoCzNyMaczXuJBzSjzEhTiehc7gseI00BtB00AzoBmgENp/YQap6zgLsNcgpnAc+jeUczfF1JptKMxAyRJA5pZejNqiGHVFpKzUisadF11B/tm5FfOz2xSEwz7JoKsdJtTJUf2p3VkXkzANoNmgGdAM2AhlN7CFWhZgBoghUaJWEWcIAlAM2AToBmQMOpPYRCM2AeTFf5E6ySqr2MAMCkoBnQCdAMaDi1h1BoBjSc2ssIAEwKmgGdwDyfWFgavsy7LJy/97mLdj+2ecsNsTJSdzAJEGZhZQQAqgLNgE5ACAUNZzEh1JU33XH2/pc/dNdTGw+++nN7nrnqxhXKCLQFNAOgdaAZ0AkIoaDhLCaE+vCdT6pF/XHt9VsvXTmglOPcB776gb1HKCPQfNAMgNaBZkAnIISChrOYEOp99x+9/BOfkmt++ZZPn7v/3539zwaUEWg4aAZA60AzoBMQQkHDWUAItXnLDWc8eNxfv2nnfefvfY4yAg0HzQBoHWgGdAJCKGg4CwihLrrjs+c+8G/99bqKgzICDQfNAGgdaAZ0AkIoaDhzDaE+0tt/3r5jp/36/3f+3r6z6cqb7jj3ga9SRqD5oBkArQPNgE5ACAUNZ34h1Ac/+YU084e++6H/83P+1kt2PUQZgeaDZgC0DjQDOgEhFDSc+YVQl3/iU2fvf1m5xFU3rvzcnmfOOvDKpSsH9KZrtu1QL6+9fitlBJoPmgHQOtAM6ASEUNBwqgqhLrvl3ot2P1aQ4OrtO41sXHz7Ixfe/XS1ZWRtcDLAYC2wabRS0eut9tfVq57Mp6dSr/dXe71wzoFNw1UyB52pm2foBJyUvSy7YCb6cHprmXOT7zG4qV0EP6wpGF6x0YWVH4q5qsHLjmYAtA40AzpBVSFUGiuEggmxQT2C8/ViDzcMCgRkWZ5THGiRVB5q5DkPV6UXKhhqWPuWiCyD8V9BKFz+EGODY//dxVYmM4dQZh4MncmVN91RnF7LxhkPHr9m245YGTn9xbdPO3rqzCNvpmd49JReTIKNR95SL1Wy6Afkfxa5WqSfdJkr2TOBf3bDj17n93/6gfolxTYZucswzyy9lXKU0JzMWM0Ye255tgrvdmodlZT94TXLruraIL1W+krKK++4HJoB0DrQDOgEVYVQVvRvhSzh9YllBYW/gNqh8BQHWiSVhxoyWxnZ+6GGoURkOT7+iwX9ZQ7RKM0wgnHWgVcu2v3Y5i03zFhGdAGR5aLgpSw4Be/UWTO8fOJuH3MlvXoAmdsobX9gFzF5M5hj+eeZWJ/pWkEm8tAmzdhzk7sU32+tYPayP8ohrFueiFqlFc0AaB1oBnSCqkIoEwevr6dhfrpeN4jQa0NWkG4KNgIRoZLZfdIDLZg5hRqjTAcDoRl+qGEYG1mWif/GakbBIRqlGRff/sh5+459pLe/qjLilAX9h9kk1xdcvfGaUeJKOj9y5wkydcg+qdUsoVsREcvBOZNelqO/yX9rWT3M+HPLko3eTHak2Jk0EPeHjfQ9mNXibTq/qYiK2cGa/nobZeD9vmBwWqM5vzKgGQCtA82ATlBVCGWi/8FgXRpC2iBjMHCi/+y5ax7KVmAtNSOvprBelj3QvFlAqJFFYGsD+yrFKjSmiyyd+K+EZhQcojbNUDqhvGLeZSQ/t6xQnNN/Qy2VaIb8IMZohn398wTiIzbhqTxE/klFcjDkd6f30YzRjBLnZr2XilobLoysBdnoY1rt99d6TpWjlPnV/kB+oLKYrK8PxlZR+hfT+ZZAMwBaB5oBnaCqECp/xK5l/pDXPGRRtBOSpityzzC5+Y2m8rhkwgPNlQWEGvnPvJ5mxH77nC6ydOK/MpoRPcTCNWPzlhsu2v3YWQdeUck2HDqhR4iaXxnxq/jMJpNgy56Datm652Dw6gU0w1PQsVdyIs2Q9hK7GfzeTdmaQEseac0n7dP3cw6eW2L/SF/c46hRBF3dqfOJ1c84ZuV878k8e6YPuFf3mFV5pivRDIDWgWZAJygZQp3zxT9yNqnl7Oe+7zxiZfVEbhD6h3gRu/TE6ySPV7x+q8HwZZIDzZXFhBomJA1ohh1qyF3KR5axt1NSM8KHmJtm7P3Mwx996tXLnzz+y498/aobV/Q9rKTijAeP6zRn73/50pUDC9AM/w+1XLbyG/4SvHqx2gz3x/7qNCMR3TCKbwZ504q6OTfZ7LUZbgMq+2WTCV83+8Ny3o5lZaEKnIKOGWYsLnEsq80kmgHQOtAM6ATlQyi9vDci3jdj+OhzPGD4MHQ0Yy3vQWweoiedGPek2yAqezhPcKC5soBQwxtTyNaMSPeMKSLLZFrNCB9iPpqhHOPCJ777m19+7Zmvvfb5r7z287/+TWMaF9799Pl7n7vslnsXU0b0H5v3Pe5rxnv/86/ksn3v08GrV9RoSnxAwU4RuWZE4nK/b0a6PuvGnX9SoRx8zUhCgwSM0YwS5xasD4kNbNAoJir7zogLBe3EnJ8YCo5IbQZA20EzoBOUD6G0Yzh/OI9Yq24h7Y+dtfcR0X+wskJ6haMZ0kMmOtBcmXeoYY+dFbhKY2szktKRpb++vGYEDlEYHMcyH6sZWz//e8oxTmT89le+fd6+Y4svIwUozfjZP/z1h7d8Ri//6+//eu8TR4NXr0gz7KvnR/My8dgrKT+pJLtp+yJPP4egZvizWxRrxthzi3Yrjw971RzCehYr+3aVZv6VECr7MctyNYO+GQAtB82ATlAyhJpMM2R8bM0zpftRRC3D9RC3NsPTjMIDjY0VZmTBocYUfTPyZOMiS39lec0IHmLG4FhibtEPfPa7L3/LWMaJ48ePLyaumkgz3v3bn2rHePfd//Huuz/93Je+E7x6BRcnu55WXZ/VZ9odqcn74MSd5t9OrsN7oxsHNcM/1ljNKD63eEVK9Bf9RuG8F9MvK1L27ZrbSNmXJVpdvb5n8iblKiNNAbQcNAM6wUSaUbLRVGKLQeJoht1iSjyS8/RhERHP5jIHmjRumIJ5hxoSXzNWC0ea8s7TiyzjsWkyoWYEDlEYHE+nGb/w5B8887W8NmPtt/pnHXilOWUkGWnGOz/9G+UY7/z03eG///1v/s23v+8nG68ZdtWBXa0VNlup6k7ObrVS1sTQPQFb9/V6xyXkrTtWM4rPLbsjQu+lJR3BxUXLG7EFG0zmV2F9NEVIrOyLMt7zPnU7mVVa0QyA1oFmQCeYVDNkVUaBZsgqh8SK/q1+Fv7uoiG4jd2kpMSBFvSD6FxDDYmzfty8GWMiy+LYNJlcMwKHiAfH7uc7uhT+Sp3Y3KLvf+ArFz1+QldoPPPFIxfs+51NO+9rThlJRprxX//b3/3FcPnbv/irv1Om8dp//NOxewEYCqbOMPi/L6AZAK0DzYBOUFVtBlTIdKHGsiJDqMtuuXfjwVfV32c8eHyWGffmUUaSkWZs3/v0vU+89LkvfefYt7+vHGPzricXcIlgmSg2/GAlEpoB0DrQDOgEJUOo4IC2amUFD1UIMUWosazUHkKV1wyAWqi9jADApKAZ0AkIoaDh1B5CUUag4dReRgBgUtAM6ASEUNBwag+hKCPQcGovIwAwKWgGdAJCKGg4tYdQlBFoOLWXEQCYFDQDOgEhFDSc2kMoygg0nNrLCABMCpoBnYAQChpO7SEUZQQaTu1lBAAmBc2ATmCeTywsDV9qLyN1B5MAYWovIwAwKWgGdAJCKGg4tYdQlBFoOLWXEQCYFDQDOgEhFDSc2kOoojKya/fHH31+++HvbXvhLbWoP9RLtXLhFwk6Te1lBAAmBc2AToBmQMOpPYSKlZGb9z78sS/+p60v/RdnUSvVplquFXST2ssIAEwKmgGdAM2AhlN7CBUsI0okpFrc+fWf3D34iVwTNI3h5O4n1/urPbnSn9O9N0qX42ztDfcYZdPLs7XTDFOMEow9YnBGebWX2qf4oBO9o9HO4v2MMik+tD6iSupeGfscgjk3n+B7n5raywgATAqaAZ0AzYCGU3sIFSgju3Y79RhXvPCT9957z6nT8FtPpfrgB8pZxJlG8yJcHpqCnX6YRCGC+15mFfkuJ9MAfewRy2qGd9Dp39HaQJ/bjJpRkHPzKaMZvlPFqL2MAMCkoBnQCdAMaDi1h1B+Gfn4o887DaV8zVDLsJ+GzShu7A9OWkG8G/SPiyx18OnUYMiXMpNSRyyhGcGDzviOZtSMMteqsaAZAB0HzYBOgGZAw6k9hPLLyPbDf1hGM7Yf/p7zXtK4Ma1sSMNHE3HKWogYPRN7pkG4rNAYvnSi8+IjJuU0I3bQGd/RLJpR5lo1jbwp3Hp/TVb4yIZfwg/9VnMioVWtVHsZAYBJQTOgE6AZ0HBqD6H8MrLthbfKaIZK5rwXE0O7lQ86KLeD9SAizrai8J5pOGX/BF58xKSkZkQOOuM7mkkzSlyrRrE2yBUi7XuTX66Bdoa0GZjRD/ujlLU3ztuvvYwAwKSgGdAJ0AxoOLWHUMWasePYj5Rj/P3P/vdEmiF7U8SCcvHTdb5SCoATpveyBkxBDQge0T6KhdSMgoNO9I4cig+9TJphqoPMGr/5WZpSdj6xOqJYOTgXp/YyAgCTgmZAJ6hKM5yhcWRdvxdMpA/LUmPgxOMef9/sYRx+fkMZgrHdFJgoqmDQJNmGJG9t7312tYdQoUZT3xt2vfjyD3UlhkL9cefXf1Ky0ZT+2/w4XRyUy3ZKbldvt+d3YDCo4iPGrrncq/igU7wjQ3dqM/zGZs57t77rgpoR+oZFMwDaC5oBncAPoU5/8e3Tjp4688ib6QPs6Cm9mAQbj7ylXqpkwQdqeGzNUNw/0Rg4WWuCntzX6aWqdxkOh4NmTEslmjEMiWTDj9DHYUJSp6HI8BO0P9baQ6hgF/DP/v6fv/Puz5Rg7P3Gn/pTZxR2Ac/C917ajiYPyu0IPk0mItTgz/+xvtdljhjcJfHlIX7QKd5Rwdkmnma4A14ZzSjMuWn4UuR0X4mqRaSVlEPtZQQAJgXNgE7ghFDaMaRaFLyU7mGYSDMmGgNH5jzcd33dee6moQeaMQOza8Yohzz+C376Tv9dGTL2tJeIj7X2ECo4oO1dx35w/6t/FhOMggFt3T4PJwd9cYn84uP07XbCbme0pWLNCB5xiljfG8kqmr/jkA6lDMd7O2Vybhq+FOVvxK7ocDtgmL8Ltar2MgIAk4JmQCdwQihHJ/QfZpNcH2NCzZhgDBwZf4z+XnMC4p5YW3CGy4RztfMqgtDYNZlCZP1PvR/IR8GsTmNWO61lxufpVF+ENcMZJcm2DqdCo/YQqsz0fP4Sm57PHyhWtiVzftuW1ype12FdumLN8I84RjPGHXSad1Ru3gz/3WWVJb2xOTeQWBdwy7F1EYvUYKTtQU25G+RvvPYyAgCTgmZAJ/A1wzwXjVec039DLXPSDGeXaKMp74mbts3wBtWJHW4p8WcrywK4wNg1WW3PwKpqEO3++2tGUET/mbzjRNk83eopr2OGM4SOO2iSLSq1h1Cx/ktKJJxJ+kw9RtAxkti0dyfdIuP1Z3E/i3x3r8nZWM1wjlgc6489aJl3ZFvvmK44bvWI12shcCZezg3EOlXt8X4ntPXR1CR2iZYFR94YQRXftPO+e/75Yx996tXLnzz+y498/aobV+oqNQBQDJoBnSBYm+G0kjKbTIItew6qZeueg/7TNKwZTrNuu7lFyTFw/PFz5Ogr5kffbmlG6Aq4aUxzdrsBTHDmATfNhHkmo48m+Iuy7J0f1AzroOsN+qW2aJiEXbs//ujz2w//4bYX3lLL9sPfG/bH8NpKAcwVc4vu+MKJC5/47m9++bVnvvba57/y2s//+jcxDYBmgmZAJyjTaEovG176YVJ934yyY+A4v9rKX1v1HyZxpzQjCV0BjT92TaDSwFMIN43dZmZ8nnbHDAdzxDG1GXb3jEZrBkADMLfoR59+TTnGiYzf/sq3z9t3rK6CAwAFoBnQCWKNpjbve9zRjI/dPYxld/ZuNWtuvu0O/4E3nWaUGQNHhrx2TYgKSfPotmuakYXseaQeG7tmFs0omWcSr81IRN2Ic+hAj/C21GYANABzi57/2e++/C1jGSeOHz9Ohw2AZoJmQCeoPISaTjOSEmPgyAY87uD6g/zX8c5phuz53gu0nspNobCmIsstohnl8kxCjfXzzE1thjPXmNMjvCV9MwAagrlFL330G898La/NWPut/lkHXqmr4ABAAWgGdILmaEZSOAZOrNFUkg3bUjAI5tKjh/e1O1QExq4JKkGwC3hEM0rlaU2aIcbDMXPH5YeO9O5oxUhTAM3B3KJX7rznF//Ft3SFxjNfPHLBvt/ZtPO+ugoOABSAZkAnWJBm2MSGwgyMgWPvJo9iN7gKD4nbEZyBPpPI2DXBOTHE2DX5ULjBGo+SeVq90u2BgKKHtkYlasO8GQBNQpaRy265d+PBV9XfZzx4/CO9/foevnr7zrqKDwAEQTOgExBCQeXEZv4uw2qDZwFnYWn4EryBr7zpjg2HTlxwz7PXXr91wWUHAGKgGdAJzPOpivASIMWv1CpDsCaqOIRaZBlhYWn4EryBN+28T2mG2nruA1+lWgOgIaAZ0AnM86mi8BKgYopDqEWWERaWhi+xe/iqG1fO3v/yaaOWVMykAdAE0AzoBOb5VHcwCRBmbAgFAGPZvOWG8/c+9777j9J0CqAJoBnQCdAMaDhoBkBVKNmo+xQAYAiaAZ0AzYCGg2YAzAlqNgDqAs2AToBmQMNBMwDmwRU77tp48NXFT6xRew8WliVbFnwDVwWaAZ3AFNS6g0mAMG1/lgA0kw9+8gu6ZF18+yOLPG7tUSnLki2LvHsrBM2ATmAKat3BJECYtj9LABrLh+98UheuRc6qUXtUyrJky2Lu28pBM6ATmIJadzAJEKbtzxKAJrNp531nPHj8vH3HFq8ZmwBmoO2PBjQDOgGaAQ2n7c8SgIZz1Y0r12zbsbDDoRlQCW1/NKAZ0AnQDGg4bX+WAIAEzYBKaPujAc2ATlChZqwNTgrW+6s9vX61v35ysOYnVimiuw/37tmb8gxj2fbsM/APClPT6+nr3RuftJDhRzT6XOSHZe6E4K3S9mcJQLu4YsddF9zz7Pxm2EAzoBLa/mhAM6AT+Jpx+otvn3b01JlH3kyDvKOn9GISbDzylnqpkvkRpBUvZmIwVjN6PeMRvTwYHca08qXrHjJbHQTLXYZ52ulhFirRjOHnnH1ka4P0w9KfvslZHcbxz7Y/SwBaxLXXbz33ga+q4nb2/pevunFlHodAM6AS2v5oQDOgEziaoR1DqkXBS+keiWsOw6hUvxyrGcMw01MC87N3lrg/OGlVgMhs04MhFXNjds0Y5eBWSWnkZ93TLiI+yrY/SwDaxdXbd2rTOOPB4/OYVQPNgEpo+6MBzYBO4GiGoxP6D7NJrg8Gi1NohvNjdh6VZupgEmcJ3bZYsRxgFnT1UNb6rJdphlmdC0NPJs1kL0uvK6JGGYiqDAenBZ1TodH2ZwlA67j2+q0X3POsrtOoPPNWa8aGF/7E+a3NX1SyS667oe4zXX7a/mhAM6AT+JqRh3eZV5zTf0MtU2iGDv3HaIYtDwYpDyax/Nk714xIDjA1I3HIGjWt9vuZZpwU4meMYrU/0CvTNKn7jTRxfSC76DitoTT+x+cISdufJQAt5eLbH7l6+87Ks22vZpRxDGMaJTk0+PGPfzw4VOl5ziPPBtL2RwOaAZ0gWJvhtJIym0yCLXsOqmXrnoMyXnTbQWWxo/yx2+kkHowy01gzpBmyiiOmGeJwuMc0BGuHZPVUkn4QoU8trXjqOemT0Yco8+yZPuBea7esdVW6su3PEgCQtFczSjrGRJoBU9P2RwOaAZ2gTKMpvWx46YfJuL4ZwaGiKqzNSEQ3jOLajFgcDGMJX0+7b4b0vcQxSaEZefp4x4xeNlyAOJbVPaPtzxKA5eDKm+6opKtGqzXj4T9+x1n8lWjGYmj7owHNgE4QazS1ed/jjmZ87O5hILizd6tZc/Ntd8h40R+jNo9BCzTDDljt6NPqmyFi0OHLXDNCOaAZUzORZjijhDm1GbL6wqnNKDgitRkATWPzlhvOOvCKKoYfvvPJGbNaPs1Y/cFfjtWMUUOmEa8fPnT4ddOmSa1//fBKmmhFbciTrYjd5Ra5r2wbNUwz2svK09rXrF4ZnYLZYh+sJbT90YBmQCeodt6MKTQjsXtcyAT2SFPi1+7Rtr7I1s8BzZiasLbFNMO+zrl9hDQjeHskvmbQNwOgeVx8+yO6JL7v/qOzzKqxfJoxtjZj6AMmktfCEdKMlcODw0IDTBrrhXzlOYq/2rhHdmidRAtGusE6vfbQ9kcDmgGdoAmakf4iLtL482aE5/KzRkG1WmqhGbMgr7/sAh7RjNRJRC/xgGZIeVCfV9+rnjIpGWkKoJlc/olPbTz4qiqM5+99bupMWq0ZU/XNcGoXrFoId1tgJy9JUCjylXJtoGJjlMiyD7lvi2j7owHNgE7QBM1I8vn1whN4+zmb6ficZPYk4DjG9NiTdEc1I5EdM9SKeKOpXtagKvE+7oKOGQmaAdAkrtm2QznGLCNQtVozyqx013hB/Eqs0ZTTOEpvcJpG2TuZv8J55k21nCZX9jnZ0tEW2v5oQDOgE1SoGQDFFEydYWAWcIDlZvk049Krf7UomecJEc0YOYFs4FRCM7I/LW2wNSNYTYFm1A+aAZ0AzYBFEuyHYwhWfLX9WQKw3Fx50x0TddVosWa89KPAylK1GSUaTcUif98BfKc4ZO1r5xn0BzSjftAM6ARoBjSctj9LAJaYa7bt2Hjw1bMOvKJko+Qu7dWMTeW6Z3g7jVpCje0CLmN9q4e2M92e6wTDHBTOGutoYt/B4UKnaRNtfzSgGdAJ0AxoOG1/lgAsMUozztt3TBXPDYdOfKS3v8wurdaMaRF9LvQ4suGRprJEapXdaSM+1G1goCinv4fsoBHoML4JzagHNAM6AZoBDaftzxKA5eba67d+8JNf0IX04tsfGZu+k5phER1dCiah7Y8GNAM6AZoBDaftzxKALnDJroc2Hny1zAhUXdeMaLdsmIy2PxrQDOgEaAY0nLY/SwA6wrXXby2TrIOaYY8ri2NUQ9sfDWgGdAI0AxpO258lAN1k85Ybrrzpjss/8akP3/nkhXc//b77j56/9zmlIh3UDJgHbX80oBnQCdAMaDixZ8kVO+664J5nJxpJEwAWw7mr/1aV2Y0Hv6XsQmnGxbc/onzj7P0vK/FAM6AS0AyAFoBmQMPxnyXXXr/1Q3c9dd6+Y5fsekgFMfWVHgAIc9Znfvfym/c4K8/f+9ymnfehGVAJaAZAC0AzoOE4z5Irdtx17gNfvWj3Y/rlxbc/cuHdT9dXgAAggDKKX/LGt/3QXU+pkotmQCWgGQAtAM2AhmNu0Wuv33rOP/v6mQe/+Uu3/jN5D19wz7MlB+wHgMWgjcJZecmuh8zQtywsVS213OGzg2ZAJzAFdfZwcLW/ftJmvb8qE6wNTp4crEUSq7S9NE32t5XzaMfRVo/RJpPGOWLgHKxj9pxder3RqXmb5MkvMfrtD9bcyzIpzuWKZeusD36I5hZ93/1HzzzwzatuXHHuYaUf5+07duVNd3z4zifVsmnnfZd/4lNlBtYEgDmhjcJZqQqmKsUVPnSgy6AZAC3A/8Y//cW3Tzt66swjb6Yl+egpvZgEG4+8pV6qZE6Zd2LEXk+H9CqGTINIVzNCUXuqAXaU7yf2g/6xmpGej8h59Do/vTSZykjhqQ6aMUEm6mKJa2XUzsk2uH54+W0zNLfoP3n8d8+//8XgbaxbUhX/xKUMRIU+KtBRiedfsAA6jTYKZ+U123ZsPPgqmgGVgGYAtADnG187hlSLgpfSPZJQoJ/WDGQrS2rGer8/sGtCKtGMtUGpOgq9S3A9mlE6h1zSevrCZf/lyWLrtaOIj8ncoh/9l7//S0+e+Mcr+5x7+Mqb7lCOccltD/4f9730gb3Pv+/+3zlv9SsX3POsTHP19p3SQM548LjcunnLDZeuHFCBkcpq7kUOoANoo7huVDzlmLaq6KEZUAloBkALcL7xHZ3Qf5hNcr1PMNDPwsisQVQpzViVewUTT6oZPS+cTU9vuJuIiXvp8bNguyezWkrNkK3Xhm84fedmtbg4MmkmbFn6vObKqcpI941d/9B6p0LD3KIf+Ox3X/zdEx/8jeNyENuP9Paft+/YP9n2Cacqwxno9kO/9tQ/+qe//f77XlCBztn7X1ZaIrc6EnLWgVfk1muv36riJLWUnH0MABTaKFRZk2PayrJW/dcZdAk0A6AF+JqRl+HMK87pv6GWKTVDxPHlNWNs4ok1w/aW/PTsMNdYhv+j/lJqRlrZpIVhtd/PNMPqKpMZxWp/oFfKSir99/r6wNiI3+opmVAzHFExt+ilj37jma+99tn/57WPHEibTqnY5YJ7nlXRv1ou2fWQfqlFQt7kSjmK21MpV/nAp59XOypj0Z1A5NYrdtwl933/p484mdMKC6A8aAZUApoB0AKCtRlOKymzySTYsuegWrbuOSjLfFgzssg9Ke4CnsWyuRgIPymrGSEm0gzZyMo56PJpRjjEz657+tKr1UnX2z4mvUK3eSpzrOg5pK2u0pXmFr1y5z2/+C++9fK3Tvzq50/8ysoDyig+dNf/VeYmVyagG2zo/htOZcU123bIegyntdV1I80wBuJrxuWf+JTZXaVxRtdVh2YCQQAJmgGVgGYAtIAyjab0suGlHyYT9s1IZqjNSNOIFkxOssprM9wGVPbLJdSM0DVxqnGci2C5XKjax+mYIbKdRDPs7hnyWXLZLffqLqSnH/oPl6wcqqQIXHXjirII0zPVaU+ltqqVGw6dUGmUYFx8+yPOGFbqlGTvc8dSzGRkSmBUDh+666lKzhmgvaAZUAloBkALiDWa2rzvcUczPnb3MF7f2bvVrLn5tjtkmY/2zRA1FRNpho5B1csKNMMOl/PTc+pMIpUhwSO2nYk0wxmnq7h12ZxqMxZQHK7ZtsPpBa4sQraYOm/fMblVJT57/8vKH4ZVK7+2pizCGW9X7a4UxezuDPF56coBtdLkoJxkfm8NoCGgGVAJaAZAC6jwGz800pTbJGkizUiyULhf1UhToQRWHwO7U4GJsWO7t5qgekU1w249ldtHSDPm1DejxmJieoE78wCaygq9nL/3OblVScj7P31Ez+Zxya6HL7ntQacmRM6IrBanwdUlux7S3WdVtno+kPm9QYCFgWZAJTTh0TALaAZ0gvlpRtqXONK9oaRmJGZ2harmzXDnc8g7QAdi7qyLdPCIS4BzBfprXiMoSzPS6yN6iQc0Y34jTdVdVsJcseMupR+6A7pjAspJpEX4Y+yqXVSaX9z18C+tHNBzesgEaqvcXb2UWy9dOWAMRC1MRwhtoaqHTjZeRWSqJTF+Xr5LviFQuW0nkBlna+2jmFmeyp9thTOf9sRcs7EuhYF947Pf2skC3SYDBH+5ix8ieBFiTR78t+zQ8EfDWNAM6AQVa4bzDRSfpMJvoWSieUczfF0Jfu+UmQW85zxDHOXwZtWQQyotpWYk1sNDe0O0b4b1gI43mpKd/u2VpTSjYN6MusvKxFyzbYeyCOUAH7rrKaUESiTkVt1iyiw/t+cZZ19lHZt6+4b/7rxPZeK05rrw7qfl7hftfszJ3BiI2h0JgebgP3SmmxPW/j7PvzRi6xP7ueNXugYjaZ0s21EexViGm0+Qymc+XRtkvxDZ36LBsf6sNxif/bbMJLbFj8LiQ6AZEjQDOgH111A5wQqNkhTMAl53WakYPWfZ+z99RHdAdyornPZUjkUobfjHN92uG3Hpic8uu+VemUBJi9zdMRyVmzEQlYlSmvm9TQAH56Ez9ZywZvTt9fX8h6ok+2UqXRvSj3RTrALErpMf5L37AkeJ1Yr4VD7zqUQG4v4vNTJZ8ey3wZ/bnCh/rGYUHALNkKAZ0AnQDJgH01X+BKuk2v4smQ6lDXIUXUczTHsq3X380pUDzu5X3biiNUabjDOzxwX3PCslxO9wovZSJ6ByYDReqBx/3JHp5oQ1mjEYrEs9SOu/BwNXM1IxMLOPOhOzuo4ROpZXIe8F5da3maxSmc/Mpxqn3j5WobFWOPttyUlsS2hGwSHQjBw0AzoBmgENp+3Pktm59vqtToWDsg4zAq9fWaHbUyn90LMvO10+rssqUtSi0zjNsc7f+1yxhCirUTk4Y2oBlMTXjLywTzInbD6X6FrmDz0zwWgWnzvBbroid4Q0K9HWJ/ZFJL3CzyGUeBEzn2Ynb3dBiQjJWuHst+VnlxqrGdFDoBkCNAM6AZoBDaftz5K5omstHAlxPMGp61CKotTig5/8gu6A7reYUumNgZx14BXHUtRKmbmzVRmLWkNXECggWJvhzwl7zhf/yNmklrOf+775Zuh51RO5Qai/bM3oideJ19fC0Qy3D18+TEjmGYUtphYz82leA+P3KrTHBJc5FMx+W61mhA+BZgjQDOgEaAY0nLY/S2ph85YbTN9xJ+h3PMEZHUt321D/qt2dplaai29/RGmMNhC1u1MTImcqPOPB406Nh0oczBM6RZlGU3J5b0S8b8YwbHWEYxgsO5phi4TT16KUZki30OkjLaYWOfOpeS/2YCfh7hlrhbPfVqsZ4UOgGQI0AzoBmgENp+3PkqahR+DVOvH+Tx9xPMH0BglWVly6ckD3Go/12ZAGohbHcM7e/7LJWR3IqUihFVZHiDWa8ueE1Y7h/GG+GaRm2L27s54MQhLC47GezFooiRFr8/xjza50H+d4i6lFznwaPOLY2owkNPttmUlsk0k0I3CI0PxUaAbAMoNmQMNp+7OkXegKED0Cr1ocT5CVFX5VxtjKCmU10jQcV9G9TTYcOqEPzfhXy0rJh85kmiG7UVvTSugOG1HL8D3E67DhdyLXMhPtyLHImU/FqYrzHNc3Q+4lZ78tE+WX14zgIcLTdExyAoa2PxrQDOgEaAY0nLY/S5aJi29/xIzA63tCcWWFRM+q7qw0dSDBj/uMB4+bfu3OHCPQLibSjJKNphLR7shuByVrNqzQ3203FVWRyIwc8TGmkvnPfKrOtu9VGpiUxSNNeefpDIYbncQ2X1NaMwKHyHrH529qXFUJmgHQYtAMaDhtf5Z0B6eyQrmE3KrNRI/Ae8E9z8aaXeleJY6EqJXSQDYcOuHspcXGdG2v9G1BxUyqGbIqo0AzZN1GYmmGaBElh2PyxqhN4vPG+gnGzsonrKX6mU+dqWbLdMxIys1+WzCJbf6+JtGMwCG8niihi5ZfOX+lTtz2RwOaAZ0AzYCG0/ZnSQfxKyvUGukJ/qepJERJghIVPdJuLGfdscQZY/fq7TtlzioruVUpiqkDUTlffPsjs749mI2qajM6SJmZT2NVGctH2x8NaAZ0AjQDGk7bnyUgCXqCU1lxxoPHnb2UJHzorqf0CLx+a6vrMrHRXdsdkbjypjtk5mcdeEVuvWbbDl27og2EgbAWQMmHTnBAW7VyMV87jaW4MiE4w+my0vZHA5oBnQDNgIbT9mcJlEFPAKIswq9wGFtZoXa5ZNdDsRF4r8tm89DzgTiziKhdZObnPvBV59C6FZbO3+nyDtPBQwcqoe2PBjQDOkFV3/jh3nOjn1XcTXlvszFDaAdyDmxyB/Twf85xm3bKIS/svItzTkI95DpC8MOaAvNTXM9uuay3Bn+Ka/uzBGZE11Qo91Dh/vl7n1Nxv9xaXFmhJERXgMT6o+uuIMoiVOYq5wvvflpuveyWe2Xm77v/qNyqJEQ38dIVKbHeJuCAZkAltP3RgGZAJ/C/8U9/8e3Tjp4688ibaUn2WsRuPPKWeqmSBUu+X6Ur18gxMcZqhjOgeOKNeiGGD8kzkaGqmBLWDBWyNsjSWynt4S/M5EvOuxs2e13vUK20oRLNkA2L1wbW7LwmZ79hcdufJTBXrrpxRRuCcgDdv1xuVdG/9IT3f/qI3KrEoLiCQsmJ1hulHypnp9OIEhiZuVIguVVJiJ7lMNjKq8ugGVAJbX80oBnQCZxvfO0YUi0KXgZ74xVrRlI4Lnjiz9TjDRrojLGtJ0pyxvKz6iviww46v527Oa+vOwP5pUMPohnT5xAead4TUeuyt/1ZAjWiLEKPwLvh0AlfM0xlxRkPHldpnKqMsVyx4y5jIP4wu5euHJAS4mxVJ6YnOuzg9CBoBlRC2x8NaAZ0Aucb39GJREzR6qyPUUozxISgMc1wfuTOE4hxANO09sxEIv9wDv6ZmPM0ujL6ey0wbHm2tuAKLAeyRdkgH/RdDufoTFll1Sxl6XW1UDZ0feS6OWMgOhUabX+WQHNwZhtUmiEn63BMQGmA7q2hDUS9nOhYSiGMgSiN+dBdT8mtF9/+iJQQpyWYco8lboWFZkAltP3RgGZAJ/A1Iy/DmVec039DLZVohjUVUbFm2PKQJxDyYMJTeYhcMyI5GKxGU3ZinbNTGZKvXHbNyFqQuXNLnRSCdzJvezawhnIXDrm+PjA2Ehtm0f+YHCFp+7MEmo/SDxXWX3XjilxZbAJKUcwQVZfsesjZdyzqcMZAVOZOc6yLdj8me5s43dbV2U56uEYhryoLy+xL3Xf0lKAZ0AlMQU1DOq9NVLA2Y8ueg2rZuuegHzWGNSPUh7tCzXCnOgpphvjNPV3pdAGXZ5KdhZgOKT3Z3tJrRrAWyMxVm77Mroa7rz23lNOr3ptqKtC1Js1crGz7swRajR6BV480JdcrMZCBjlNZsWnnfXIEXqcWZSzKcJSBmMydobfMoTccOqGSORLSfJyHDsB0tP3RgGZAJwhqhv+HWi5b+Q1/8Ut+QW2GE79WqBmJ6IZRXJsh4+NAZ3Gr18eq/MMkXn7NCF63+BS2iSNsoY43BR0z9IUvmMW27c8SWErkCLzKKJwmVWqNlJCLdj8mtxpvKTNNx5U33eH031C5ybZeKiu59cK7nz4t622ilgZ2QEczoBLa/mhAM6AT+Jqh/9i873FfM977n38ll+17n/ZL/phGUyKE9X/wTqRm2IFsnsDrm5Guz8awyjUjlENMM2I5Z+nzKBnNSMS1ckYDc2oznAqiWD8Z54jUZkDbUW6gx7rVHdAvu+VeufWDn/yClBCnskILzLXXbx17FN2Fw5GQC+55Vmbu1HX83J5n9ITresbDWmYCQTOgEtr+aEAzoBOU/8ZXmvGzf/jrD2/5jF7+19//9d4njvrJxg1oa6mFH7I7wz35Ab030pT4FXy0rS/y9HMYpxnpplwz9NpBPv7V8mtGUM9immG3nioYRsz5sKzMHc2gbwYsNZt23qdkQI/Aq25spyZEmYC551UCR1FKonubqJyd9lpKe6SE+IdWCZSZlJGcqUEzoBLa/mhAM6ATTKQZ7/7tT7VjvPvu/3j33Z9+7kvf8ZONHWkqq3UwHR5E8Co2JaG58Px5M5zINW3vb0/TYXUImbDRVHZWY6aQWzLkdZZdwCOaYX2aMc2Q8qA+l75XDWVSMtIUdJkL7376vH3HzG3vaIb2BF0jof6eojpCT3eolot2P+ZIiOkQsuHQCaUck3YpKQmaAZXQ9kcDmgGdYCLNeOenf6Mc452fvjv897//zb/59vf9ZOM1wzTG74nYVLTrl/v27M1+zm6bq2w6PvcEQl29nS7gscFtna4CXdCMxLpoeSO2YN+M/DKqFfFGU1Z/eu9Tt5MxbwbAkCt23OUMa+tURzhdL3QbLd0g6sN3PjmpJygDuXTlgD6EMo05zemBZkAltP3RgGZAJ5hIM/7rf/u7vxguf/sXf/V3yjRe+49/uoCvElgaCqbOMDALOMBYdK+Mj/T2OxIiu4arxanr+OAnv3D+3ueUflx8+yPF3T+Un6jM5RptIJVM5YFmQCW0/dGAZkAnmEgztu99+t4nXvrcl75z7NvfV46xedeTC/gqgWUi2N/GEKwpavuzBGCR6AZRugO6YwUbD74qJcSp6yhWCD2puW5MNV13EQOaAZXQ9kcDmgGdgG98aDhtf5YANASlH8oWlH4oVXjf/Ued2gwlIec+8NVLdj0UbCulpyM0hdGZT3AieOhAJbT90YBmQCfgGx8aTtufJQDN56obV2RFx/s/fSSY7OrtO5VgnHXglTIzfsSo8KETrP+MDg1izwfq9NmTPfTcbntioHO/A2FHeusF57magnweLa/TpJXG/rCWsqIbzYBOgGZAw2n7swSgFWzecsOlKwfO3/ucKmsX3PPsRPue+8BXyzem8h86p7/49mlHT5155M20yGeTNZkEG4+8pV6qZM6Xw1jN8AcbdIYrTEItOWPmkIa/IreCxEtGJZphjTcY6arnjIpu0ixftz00AzoBmgENp+3PEoB2oXzD6bZxya6H3nf/0Vh7KpXYFNKzDrzyobueklv3fubhjz716uVPHv/lR75+1Y0r13kPHe0YUi0KXkr3SEpoRjZGes9J4P52Xloz1vt9fwBuNKN0DnldUPC69bJJlNKXcsD0pRuEEM2AToBmQMOp/VkiG5OwsCzNUr4IyF4Z6m+/xZQyjYt2P6bHuVIJzHrlGBc+8d3f/PJrz3zttc9/5bWf//VvytZZaQG3dUL/YTbJ9T7FmuHErAZnBtIJNWPVmU60mZrhvKm8ikA2CDPDyqcKoWtrxLxSYhT4LI1ZLWa4KpenU30R1gx7vlfnE1yyKZXQDOgEzjc+QNOo/VlSezjIwjKPpXwRuPb6rR/p7b/gnmf1jgUdM9QmOZXH1s//nnKMExm//ZVvy5kH0wIuFMJ4xTn9N9Qyq2bYPmBwgtdJNcPZpZmakU1TJCN+LQ8Da/Ii3U1Ci9f6wKpqCM3QanVTyTtOlM3TrQXyOmbI0068KhRHVKa4kxsFmgGdwPnGB2gatT9Lag8HWVjmsUxRFjZvucGZT0Oh9CPWnur8z3735W8Zyzhx/N//e3kCaQH32kQFazO27Dmolq17DsovB6+vtjXj50ya4fYAT2PrNGdnftIGaoacDtWuIsjT2LOpOh1anFogN82EeSajqxdsc5X2nzH9wj3NsA4qts5yJzcBNAM6gfOND9A0an+WmBPYBNB+qi1QV+y4y2So+2/Irb/42d975mt5bcahl35/4z9/NagZ/h9q2fDSD5MZ+mbMrzYjEc2QmqkZiThb5wwtiRJKYFUaeNfNTWM3PBufp90xw8EccUxtht09o/ZHw4ygGdAJ0AxoOLU/S9AMWCaqLVCmPdWGQydOEx0zLl05cNaBVy64/0VlGrpC4/8+9h/OfPjEpt6qrxn6j837Hnc042N3D6Pknb1bzZqbb7tDfjmM0Qw7FDbM2DcjzaSXthtqrGZkIXseqTvjbjk1D9NpRsk8k3htRiLqRpxDB3qEU5sB0C7QDGg4tT9L0AxYJuZUoLRv6I4Z5+07psRDD1d12S336tnHNzx04h/902euW+y8Gb5C+Cun04wkC8f7jdUMHfKv5a2bnJZOztCxsZqKLLeIZpTLMwnNZ5JnbmozRFsv/4TpmwHQPir8xg9OXZTYLS/FylEtqzfUoPP9bn4o8TeZg5aZianMoaGAyudmynPO+hImTZ2DCc2AZWIBBerCu5+++PZHnJXXbNtx1oH/V9nIIjXDf/rMOG9G+HHTSM1I9Amv5x2vrfFh8x7dYSUIdgGPaEapPK1JM3q633i+lz8Gsd+7g5GmANqH/40/9UxJ+gvX/7li+NWw7n5r99K1RTOqZqNWFI0bOOlMTAWHhgIqn5tJZivttIFzMKEZsEwsoECNjOIVZRTOeq0fi9QM8SXjDmok04/pAp49hnzNSPNuqmbIH3E0+VtTq+MNnBLrB7t8KNxgjUfJPK1e6faHEj20/M2ReTMA2ojzjT/LTEn6hxMnrM9GtXMfBvr7puBnJNPy1d/k55N/N42biang0FBA5XMzaUaZDqxa8uY9S9AMWCYWU6CCFRoX7X7s7P0v01K3s8Rm/i5DA3+BmhE0AzpBmUE/zCa53ke2A7W+VrK1+UrTTcwbFC9b4daWJmN7+5Wbiang0CCZ99xM2Y5qk9UYN2lezTiaUcyGF/7E+fXBX1SyS667oe4zhSGLKVBOhYbuEf5ze56RU4Yv5JsMmsV0P/A1sz3tjKAZ0Alig34kycQzJelo0bTYdFc6PS4i9ap5cOp9p1QydmHBocGwgLmZcs/zNKNp/fzQjALKOIYxjbmycvj1Hw8OzfsoS8DCCpSu0JCC4RSoRXyXwfJS+6NhRtAM6ATB2ozpZkrKAvjArECOIbijjweG9A50nKhqJqbYoUGzmLmZjEkGNKNhoxaiGQWUdIxFa8ahwY9fP7wy70O2k4UVqGu27TjjweNSMJwCVeXXFnSP2h8NM4JmQCco02hKL5et/Ia/yDJvInh/ViCvY7fT5Mae5SdtmuNGsbPXZhQfGjQLmJtJzsEU0IyGzcGEZhSgvhke/uN3nMVfiWY0h+YUqDl+i0EHqP1OnhE0AzpBrNGUP1OSkor3/udfyWX73qdlmbcnRVJhYh5ZSkMIVkr4NQz+IFGzz8RUfGjQzHtuJnfgF9EFJM+c2oyWENOM1R/85VjNUC6Q8vrhQ5kkDFeKtk9DeYgLQzQHA82oPJpToOb/ZQbLTO138oygGdAJyn/jK8342T/89Ye3fEYv/+vv/3rvE0dlAtEbWw4gZGlGtG93JKXs5jHjTExjDw2aBc/NRN+MVjN1bcZQBow/aDPQSmBVRBR1uIjm4GYCFs0pUBV9Y0FHqf1OnhE0AzrBRJrx7t/+VDvGu+/+j3ff/ennvvQdmcCawkJMq5dIeQiGsGJ+DKt5lT2z0owzMY09NBjmPTeTxNcMRppqEdP2zXA9QFRiiE1jLCOWA5pRRHMK1By+uqBD1H4nzwiaAZ1gIs1456d/oxzjnZ++O/z3v//Nv/n292UCL+K3f+Q2TaG82gM5QpE7JpWIXGeciWnsoUEy17mZJM565s1oF8HWUP5Kd43nD3KFcYQiyyjMAc0ooDkFap5fYLD81H4nzwiaAZ1gIs34r//t7/5iuPztX/zV3ynTeO0//ukCvkpgaSgzN1MD52BCMwqIacalV/9qUTKnB0ZYEgqHqC2VAwRoToGa31cNdIHa7+QZQTOgE0ykGdv3Pn3vEy997kvfOfbt7yvH2LzryQV8lcAyUTw3UzPnYEIzCjjtpR8FVpaqzYg3edKWcKhwIoziHNCMOM0pUPP8poHlp/Y7eUbQDOgEfONDw6n9WYJmFDPVpBlDS4h24NaaoDhcZApjuoAzyFSE5hSomr9ZoOXUfifPCJoBnYBvfGg4tT9L0Iz5MDKNbNhZt4GU5RBT5JBtwjU8mlOg8jKeTdOk2Pap/cZO1d9m64aXfnTGC//ZJNP4taN+r7DEnqgn39HufWZvcnuR+RWtPSsLOvjNhD9+fRlqv5NnBM2AToBmQMOp/VmCZiwAWjktjOYUqLSAHz31C0+9bPxB/fGJXXcmmW+Y74GdvVs/cdvu2TXDmeon8WLcVB9s97CHQNTDXuS7DPNkYPQ547ti7XfyjKAZ0AnQDGg4tT9L0Iy5M6aNkzXhHtPuzUhzCpQu4Df+2j2JmBnWoGTD0oxbV/w0U2hGcMhBmc8obX9gz9zqzjCLVCwcNAOglaAZ0HBqf5agGfPAVgesYXE0p0BZxdxTiGGXnkefN3+f+aU3f+WhZ5w0k2qGrsrwJ0qSI3SnadOE7pjssRxgFty5fdfMMOn5h+K3T6v9Tp4RNAM6AZoBDaf2ZwmaActEcwqUVcyFZuh6jEue+LL7VeCtnFgzbHkQe+XyYEJemXmuGZEcYBYczbDswrR2ozYDoI2gGdBwan+WoBmwTDSnQFnF3O4Cvnn1ifC3wWx9MybSDHcS0pBmiOlgcY/pcTQjn+c3/TDRDIDWgmZAw6n9WYJmwDLRnAJlFXPRBVwPMKWRPTScTuHJnDUjEd0wimszZDQMU+A1msr61gvTQzMAWkmRZuza/fFHn99++HvbXnhLLeoP9VKtXMS3DkBG7c8SNAOWieYUKF3AL3niy3IEW2fGFZVAj0Mlh7g1xDRD9t5OpGaIsNVK4PXNyHJLm+3kmhHKAc2YETQDYGmJacbNex/+2Bf/09aX/ouzqJVq06K+fADqf5aYE2BhWaal9gJV/kvgxl+758oH/5W/3teMJDTHhTOQlL+LN9JUbim6+qIv8gy4DZoxG2hGaHPdXxAsS7Ys5rYuuJNlmVciIdXizq//5O7BT+SaoGlUMqtR2gPMGdTcTmMqssce0T964j1Fgged6B2J5rl5C93iQ5ecQyqYc/MJvvepaWYZAWgpy1Sggs6gv87zUDXrR5y+7KXzZFiZ2PNmOA+I9JGVz5vhzryBZsxIWc2wL3Ltd/KMoBksC10Wc1sX3Ml5id+126nHuOKFn7z33ntOnYbfeqqSWY2GSRTyqWBXUjuNaIuPWFYzvINO/47WBvrcZtSMgpybTxnN8J0qRhPLCEBrWaYC5fxmlX9/Wr/QeG2ceu4POE6egQdEKJn9c1k7vpybSSnNMJ9aRwa0rT0qZVmyZTG3dcGdbAr8xx993mko5WuGWj6ejWhuf1PMOquR/rpxfqNyBxYUEy2NP2IJzQgedMZ3NKNmtHoGKDQDoLFQoGA5qP1OnpGymlF3by5oN7WXE/8bf/vhPyyjGdsPf88p87PPatQzsaddB21eOtF58RGTcpoRO+iM72gWzWjjDFD5b3vr/TVZ4SN/N5QT8Xo/JYqE1q+PDSwjAO2FAgXLQe138oygGbAIai8n/jf+thfeKqMZKplT5mef1UjE2XbNqak6tX8CLz5iUlIzIged8R3NpBltmwHKnUTJkoeBVeVt9MP+KGXtjfP2G1hGANoLBQqWg9rv5BlBM2AR1F5OijVjx7EfKcf4+5/974k0Y+pZjdwBy0WY3ssaMAU1IHhE+yhuC14/E/+gE70jh+JDL5NmmOogsybYLzNxOp9YHVGsHJyL08AyAtBeKFCwHNR+J88ImgGLoPZyEmo09b1h14sv/1BXYijUH3d+/SclG03pv6eY1cjt6u32/A4MBlV8xKREbUbxQad4R4bu1Gb4jc2c9+71xvQ0w+3IaXWpbGAZAWgvFChYDmq/k2cEzYBFUHs5CXYB/+zv//k77/5MCcbeb/ypP3VGYRfw6Wc1Cv78H+t7XeaIwV0SXx7iB53iHRWcbeJpxqRzSDUTX4qc7itRtYi0knJoYBkBaC8UKFgOar+TZwTNgEVQezkJfOPv2n3XsR/c/+qfxQSjYEDbqWc1CobdzmhLxZoRPOIUsb43klU0f6ezgUMpw4nMIVWcc9PwpSh/I3ZFh9sBwxp9MqpVTSwjAK2FAgXLQe138owsj2ZseOFPTjt6qnhRyS657oa6z7SL1F5Ogt/4zvR8/hKbnm/qWY3idR1545mxmuEfcYxmjDvoNO+o3LwZ/rsLzyEVyrmBxLqAW6Oe65qjSA3Gmpgha3g3DPI33swyMgXWaP3+ZCxeV6X8omU7BPL06uNMyz7/KGYemBnfyCIJNi+cglx9RQu9Aud39/Wuf/hnAq9xYKg9YGQW6vghxo5/HewNFesitTQFCjpO7XfyjCyJZpRxDGMacVYOv/7jwaEFnbPm0ODHP57wmDWc5czUXk5i3/hKJJxJ+kw9RtAxktlmNZJxar67/aN+Gc1wjlgc6489aJl35M70JCe+GDvIlddrIXAmXs4NxDrVwVq4F76emiTv9p1tkZVdXvyXNOBZ4peR0198W31nnnnkzfQMs29Rk2DjkbfUS5UsepXkeM2R9YndqM+5FZNICKuT5Re3Z4trKJ8mU4lmDN96fpsZm7WGjVaHiV2Z/MJFp+l0fxSQ2pyvGWMy0UOgGQA+td/JM7IkmlHSMQKaocL81w+vpC/aEcBbZ2mdf3OpvZwUfePv2v3xR5/ffvgPt73wllq2H/7esD+G11YKYK40rYxox5BqUfBSukemE8MJ50/Kiiw9usG6LwapLKSbYhUgUnpH9UCJMFjnKLFakcYyu2aMcgi/axmI97SLhEw+G+Uu2lUs+IOFE+WP1YyCQ8xPM/Z+5uGPPvXq5U8e/+VHvn7VjSu1FCiA6aj90TAjy6MZD//xO87ir0Qz6qL2csI3PjScppURRyf0H2aTXO9gNGMwWJd6kNaQDQauZqRioKuHLEMwVROxyNWvLBJ5NFoz3JqdNMI2q51x4UQljqglG6xlTfd6PVmV4eDULsYqNNammqbTH7ZunGYUHGIumqEc48InvvubX37tma+99vmvvPbzv/7NxZgGDx2ohNofDTOy5Jqx+oO/LNCMUYOljGHgrgP44b8jRPxu1tmrR0H+IbMtyyN/FTiW3iHb6GlO4Cix3b3zby61lxO+8aHhNK2MSIUwXnFO/w21lNSM0TTpWRBs2uGtuZqxmqfKHSHNSjSyiV036RV+Ds0k66+Udubpr/Xyi7bqtq4MzvyYdvNaH5grE5MHf3yzmJBYzSxLT9Pp6EcZzYgeYj6a8dF/OXSMExn/+t+9ZjbNb+GhA1VR+6NhRpZcM6aozTAB/jCIzzatHB5kiUZphCSYRKkjyFcymTmKloOQZhQdJbI7tRkl4RsfGk7TyojfJkr/e84X/8hvjHr2c983b6TnVU/kBqH+sjWjJ14nXl8LRzPsTjxyIprMM9rQYipYLeAMB+dP0pKuN4NBe8PHrdlzeuYVQX6/rLR1lZt5cNCIOWlG+BDz0YwPfPYPXv6WsYwTv/edE63TDLt70rp0y7Fd45LIdEwFlw58ahykofZHw4wsj2ZU1TdjfBMqscsw5s+TeK9yYbFUQKaLakK53dGMkqAZ0HCaVkaCjabkoie1jPfNGD6SHeEYRqmOZtgi4fS1KKUZ0i10+ma3mArP4GkHMU5LJG8MhZ6bPt4xw0SY4ljh7hnuONRG3OagGeFDzEczLn30G898La/NWPut/lkHXll8gUqmHVMhcN08Q4slTq/h8O5Y98cbRDPKU+MgDbU/GmZkeTSjzMrJ+mb40uG1aLKD/MgrT1dWYo2mgkcp3B3NKAmaAQ2naWXERD+b9z3ua4YRDPOHeSNSM+ze3VkXAiEJ4YFQT8qRgt1GUE4OiWg31R+4iRvIRJoRm/nRD3qc2oyCI46tzUiy0Ge9xDSdU/TNiB6icDbPWOZjNePKnff84r/4lq7QeOaLRy7Y9zubdt63+AI19ZgK3nXLr1JJzdBr/AuFZpSnxkEaan80zMiSa8alV//qmGSlNEO2jXJrM8Zrhl3JsSmqGZGjFO6OZpRkAbXkLCyVLLWXkeKH5WSaYQ8BnNiS0OtFLcP3EK/Dht+JXMtMo1tMJZF4PaoZduup3D5CmhHzK1czxvXNkHsVTzzqryyvGcFD+HGzzHDqkaYuu+XejQdfVX+f8eDxj/T211Kgph5TIZlNM3pG1LyWeGhGAc0ZpKH2R8OMLItmvPSjwMqqajPilRylazNKNJqKHaVwdzSjJLXHjiwsJZfay0jx03eiRlPyaW23g5I1G1bM7babiqpIZEaOZreY0qzJWRpFF/CIZtgtyiKaIYMYddH6XqWBSVk80pR3nt40nY5UTBK5jj9E1js+f1PjqkrKaEYTCtTUYyokIc0oOTtqMq4GDM0I0qhBGmq/k2dkSTRjU7nuGYHdrJi9QDPyzuCvT9poSu8ztgt44VGKuoA3fJCpEbWXk9pjRxaWkkvtZaT4ARxsOlWgGbJuI7E0Q7SIko9Yb4zaxO2VkWfuJ2h4iymD3f8zqhlJZObHgGZk4WTieFe5jhnJdNN0lg76JziE1xMldNHyK+ev1ImbVqBiYyokdm3Glj0H1bJ1z8HYdZNq55cL/xN3+3WUrnrqLE0bpKH2O3lGlkczpiXrDZEPaCu32KNI6dB/0kZTdgbpiLnhkabCRynY3T7/5tL2cgKw9EyqGbHaDKiLglYZhthPqstH7Q+doGb4f6hlw0s/TMb1zXDkSq8fW5vhtNCbqCNNZ2naIA2138kzgmbUQEsaOlVJ28sJwNJTUjOCA9qqldM8z6FqigPHYFS6rNT+0PE1Q//hj6nwsbuHIebO3q1mzc233SHfS6zjzVjNCFZ3WBUjnbkfytO0QRpqv5NnBM1YOC1p5lQtbS8nAEtPSc0AaAW1P3QqLFDTaUZw5C4THidoRoSmDdJQ+508I2jGIrCm6+6eY2xCMwAaD5oBy0TtD536NSMYLotO9mhGjEYN0lD7nTwjaAYsgraXE4ClB82AZaL2h07tmiFHQzLI0ZDQjAKaM0hD7XfyjKAZsAjaXk4Alh40A5aJ2h86FChwmG6Qhtrv5BlBM2ARtL2cACw9REWwTNT+0KFAgc8UgzTUfifPCJoBi6Dt5QRg6SEqgmWi9ocOBQoqofY7eUbKagYLSyXLYm5rAJgUU0jrfqoCVEDtDx0KFFRC7XfyjJTVjLqvM7SbtpcTgKWHb3tYJmp/6FCgoBJqv5NnBM2ARdD2cgKw9PBtD8tE7Q8dChRUQu138oygGbAI2l5OAJYevu1hmaj9oUOBgkqo/U6eETQDFkHbywnA0lPVt70zJLwcet6kScekH42pEkw/yObDMjubfdO1owzF2Pb+/mlCd4as2MmIPd13ZA2Mb22Vb6T8xZGnNB3OeDXBbPP3lb3f4Dg2dnr3Dfq7WJdLzicd+hQmOkTwXWSTDUSnk4sN3VP7Q4fwCSqh9jt5RtAMWARtLycAS4//bX/6i2+fdvTUmUfeTEvx0VN6MQk2HnlLvVTJZGEPa0YWwus0E2qGJQYVakYkg1AcLLbJTbVohjP6vnkPMlszSbGcji0Jjcrv5mM7mNSM9HKJBHKy5HzNGJOJHgLNAPCp/U6eETQDFkHbywnA0uN822vHkGpR8FK6h4nvTTgrgvk0JA1qhhP+Ovphok+pGSaxH+6P1Qy/tkRYRx4656e3Xuq4xcyuGaMcchHq6Sg7+y9LY78UMxb7cwzL97Le7w/sD0JqRnBWaSfKH6sZBYdAMwB8ar+TZwTNgEXQ9nICsPQ43/aOTug/zCa53iGoDSai10HkRJqRxvdZcFyZZmTnFEjgxuijFeLABcd1kKpkqmhMXjI3y6ry+hadXh9nlEFoIuGQV0hTsrbGKjTSeD5NK6Qu/ZisTPJDC4dJSmlGwSE6oxm7dn/80ee3H/7ethfeUov6Q71UK2PXDbpM7XfyjKAZsAjaXk4Alh5fM/Lym3nFOf031DKFZpiKAr1yXKOpUTwt8pHpJ9WMAKN9hWX0YueZH060wpLvq1gz0uZKWhhW+/28JVgal8v6gdX+IKtwyJs56b/X1wcmjg9KgqsZIjRPvPA9KCpJ5gCJHbjnDmC7QezQZTQjeohuaMbNex/+2Bf/09aX/ouzqJVqU+zSQWep/U6eETQDFkHbywnA0hOszXBaSal/z/niHzmb1HL2c983hX0emmF2VxvmrBn5annaOvb1dynQjODP/73sx//0pV3tkCfLYmsnvT5ioEqhhGZYB/XaPiXCAWQFxZw0I3yIDmiGEgmpFnd+/Sd3D34i1wRNo2TvfLerUagDj1wvL93YQwTHDzAfKEiKx1qYlNrv5BlZkGbEOvMlVp2y/XUfH9zDSxB6dgQfQuv98mdb4WAgsvBbP5Ix6AcANIMyjabk8t6IMn0zEvF1XaAZ0UZTo/UmxO9X1GiqTG2GeNWT7yLYl90hGJe7FQt2iyPrmSY0Q3S6sDpmOKddtjYj0j1DhoymB/mcNCN8iOV66ATCp127nXqMK174iSpETp2G33qqRO98fe/YLeVCYwAMc+sHrufYQ6AZ5SmjGU4hLaD2O3lGJtaMKsYeCfSu87/uCwb3SCKRtPM0clqmBvMJf/xVDwayNsjqzcu1kU1Kfa0w6AcAVEas0dTmfY/7mmEEw/yRf0sU9c0QjYUm1IxJu2KP75vhdcPIEzh9SHyc4GxmzXC+z53aDHmGZWsz4n0zxtZmmF3Uy/yJYBtRfujJ+2ZED+FV3SRtfuj44dPHH33eaSjla4Zahv00AtetqHe+uY/86xD74BJPM8YfAs0oB5ohmUwzZh57JH1AOL3rnB5+ybgnSm4g8qEyatlq8vSPEqsVCXz8VQ8GIpEFm0E/AKAhlKy7nkIz/G/sKTQjiXSS9jN0dp9mpKk0QdQygkNmOQTDu6hm2K2ncvsIacb4vhnZN7U4ini8juubIa7VqO4o1MbGuvKTPXSKDhGusZ/kBAy1P3T8ArX98B+W0Yzth78XvG6T9s5PL3J8q6cZ0UMEP5oEzRDkXxbr/TX5i3DoWyvYhs1p82Nyrv1OnpHJNGPmsUfWB4N1/7IOBqb5qyMGgcE95G9QwQ/baVybf3hxcXSrVOYzGIi5F52wPlhKp/taYdAPAJiOiTSjTKOpWGiejO+bYTVrCtWKVKAZSajlrfzCd1pMpTnYP2MVaEa2NdAFPKIZdtOsiGaUGWkqEb9D+VUExQ8d7/yd38X8Fv+TVaGPOUTawEdWy4x5ojX2oeMXqG0vvFVGM1Sy2HWTb3ZsezaDuaEKLl3xIRI0oxD5s28viwT1puDQDolXmyHro5wPtPY7eUYm1gxzWacae0RbXhaLm9aEa65m5M8H/wet0Fe/g/SK2E9lduJFDAbi3z1JiR+WJvpaYdAPAJiOSTVDVmWM1YyC4HIizXAqHIIZOqdRoBmBo9s/HvkHcn7GKtaMPEH+QAprRuIYVLzRlFNTIS+L83WdH9q6LMVV6HaFUvaIDrx9L+f8oJNoRuAQ1hGsd+rWLq2LwQHESp249odOsWbsOPYj5Rh//7P/PZFmlOmdL66f/9Otdf2DmhE8hJ2t+yHEPu6O4BfJWCmQEZT1t1P9aJf62u/kGZmmNmOWsUdMFUFuEOnMQnmRKB7cw9EM9zvP+o3KeVSFmi0uZDCQ2KMxKdFMlkE/AGABVFWbAfOmoLZ8LLGfwJaP2h86oUZT3xt2vfjyD3UlhkL9cefXf1Ky0ZT+22lnl0TigWDc4vzQHtSM4CESajPi+JfauVaeOHua4bpyHgAnDbiTZ6SCRlMTjT2SD0eYCcfww3E0wxYJp5K6lGZIt/B+vrLuj2D5nM9gIOa9eD/OMegHANRMSc0I/qikVhbvBdVS/N0eIxgpLiu1P3SCXcA/+/t//s67P1Nh0t5v/Kk/dUZhF/DJeudHfx4ViWOa4R8iQTPi+PGY0749qhaRVlIOtd/JMzJlo6mpxx6RzaDWM8twNCPkdSeNggfr/pwcEtFuqj9wExffH0lcM2YcDCR4RAb9AIAmUFIzAFpB7Q+d4IC2dx37wf2v/llMMAoGtPUCnjG986OaIX6LjGlG8BBoRgw/HjMXNja0Q+JoRiSi09R+J89INfNmTKYZsull/tt8trH84B6BDht+S0QtM9HPb5GDgYhTZdAPAGgWaAYsE7U/dIIFypmez19i0/OV6p0vOx1l4crwD7cBjwilIprhHwLNKGAt0gU8NrRD4oWCa3K4CD1waje7gMeYqNFUItod2e2gZM2GFfq77aaiKhKZkSPSYirw6c5hMBB1tn2v0sCkjLWULfu1wqAfAFAFaAYsE7U8dK7ZtuOSXQ9dcM+zBQVKiYQzSZ+pxwg6RlKu63zitQSJxEt2aBvXDOcQaEYBzq/n4a7zYmgHaxf5060IWk3mbQ+fKtaMsWOPpPe9qNtILM0oNbiH++HZhcpPMLYYiE+3+sFAnKE5ynTMSBj0AwAWC5oBy8QiHzraLt53/1Fz0Ct23FVUoHbt/vijz28//IfbXnhLLdsPf2/YH8NrKwWQtD98WlBtRgcpMxgIg34AQENAM2CZWMBDx7cLtaiXaqXaRIGCSmh7+FSNZjD2SJDiygQG/QCA5iBDJRaWpVkqLynFduEXqLofv9Bu5ncnL4ZqNAOgmLaXE4Clh297WCYqf+iUtAsKFFRL28MnNAMWQdvLCcDSw7c9LBNVPXQmtQsKFFRL28MnNAMWQdvLCcDSw7c9LBMzPnSmtgsKFFRL28MnNAMWQdvLCcDSU3sbehaWeSwTlYLZ7cIvUHU/fqHdTHcnNwc0AxZB28sJwNJTezjIwjKPpczNX6Fd+AWq7scvtJuJ7uQGgmbAImh7OQFYemoPB1lY5rEU3PPzsAu/QNX9+IV2U+ZObjJoBiyCtpcTAABYDuZqFwbCJ6iEtodPaAYsgraXEwAAaDWLsQsD4RNUQtvDJzQDFkHbywkAADScyz/xKb18pLf/w3c+qZfz9z6nXOK8fccWYxcGwieohLaHT2gGLIK2lxMAAFg8ygSMPFx8+yPaHD5011PKE/Sy8eCr5ftpLMAuDBWGT6v99ZM26/1VmWBtcPLkYE2u6fVGO6l0vd64DAdrozTDlXYmOmdzLP8oy4e+buqKzJiPuVa94V/WxbbSmI8z/hG0PXxakGakd7x9QTViQ3qvp7vkG4Y7hLM66ebpfKDBj7bk2VZ4n+U5D1elbyd4P1n72m88uIv1fosvQujro+AQwYvQ01855ijBPENvqu3lBAAAquKKHXdpc9i08z5T7XDBPc8aeZiiq/dZB14xuysP0XkqMzGWsnnLDYt8j374dPqLb5929NSZR95MH4tHT+nFJNh45C31UiVzHqDOo7+Xhq55yBQINtQ+Cu8Rn0VQ+b4qM/2gRzOSisK/4eeTXSj5t2R4mFE0lX4iWZrh52Y7ZNvDp4k1Y7pyYruBuL8j6xPbtuVFD2tGtn9zNMO/t7Izz4u9fz8Z0jfiK5m5d3tGE8QXjX0Ni78Uig+BZgAAQEnGVjsoDZhCHszuSkKMkCg50QdSulL3+47ihE86dpIhU8FLGVMlIQFwYlP/yauf1f56E936j2k0I6ki/BvlYIV5/kXT8Zs5Si/7VLJNViDX9vBpMs2YupyYCHt9PfUBcXGztSH9SDeJUpFvym594Ra23E9oF87ZVnifaUaZDgZCM/z7yTAq2/2BrVjyfs3qRXrOXm6VXKFmFBwCzQAA6Di1VDssplHTvHHCJydM0n+YTXK9TzhUTSPVwOO4Zx7V6WNchhzR2KaNmuGcUl5F4PxQ3dMRvH6LVl2Q+1N3msasFgFbuTydn5jDn13h5+L8AN328GkyzZi6nBjNGAzWZfSf1t4NBifFpy4+TvNZy9Dc1Qx5o5jPaSLNmPd9Ju6qtYFdiRmr0EjTie+RxHKA8JeFdOKklGYUHALNAABYNjZvucEE9Jfseohqhznhh0/5AzGLl87pv6GWKTVDPO5dzcie1M5z3HnclzlKwzVDxiTyza72B1nlQF7to/9eXx9YVQ3ZBVEb+2s9p9WJ/D23fJ7B6FRGpPK0Ey/ccgLItodPE2tG/s4nKSf5J7eW+YNpkWbicyfYTVd4dRchzciaKtrloZxmLOA+y39S8DQj1m7PlG1ZsHMHiHxZOPpRRjOih0AzAABawpU33aED+stuuddE+T+35xkT/W84dIJqh0US/JXWaf1hNpkEW/YcVMvWPQflAzTe8CasGdINrLbWYzUjRKM1Q1wEp4ogT2NLlwgmAz/XumkmzDMZXaVgfVEappoQztMM66Bia9vDp2lqM/xycs4X/8jZpJazn/u+88nJ6oncIPIeFVmsL14n+a1vtlapGYu5z/IxB3zNsO8nuYvOUP5iMSfNCB8CzQAAqI9gtYNaTOh/9v6XqXZoLGUag+hlw0s/TELxlWGi2gynUYPV7n/pajMScYbO+VvWVLpux01jX8zxeYYazOeZZ0ccU5thN6dve/hUQaMpubw3It43Y3jlHOEYXktHM0Tf5Oxjzq0jrBlZmok1Y/73mV2p52lGpHuG+2uEaGYZO+1kWs0IHwLNAACoGqodOkKsMcjmfY874dPH7h4+iHf2bjVrbr7tDvkAjfbNCD2Og5US/k+KPi3VjOw65BGLM0DORE3IYuFfyTyTeG1GllumGfG+GV2vzdB/+OVEO4bzh/PJOc2g1jPLcDQj79HtIMLfk+G+GXa3hKo1Y4r7LDoulvzhobA2w9yC6mXuAJEviyn6ZkQP4VXRJGgGAIDHtddvnUe1w3n7jundz9/7nMnzI7395lh1v28owgmfZsEXgNhPisEHdx7C2ONTjT1K0grN0HHJWt7qxGmB4rz92C/IWW6R8K9cnol9xdxTNbUZ9i/Obo/wLvfNiDGZZsjI25q+xFz9GLJHh/1LvB27J+U1Y7H32RR9M/JkJwd98S1QJsovrxnBQ/hfOjJDNAMAlpirblwxAb2J8j/4yS8YeTjjweOTmsPGg6+a3S+8+2md50W7HzMHunr7zrrfN1TD/DTDNDj3n7zhkCbrgZp4v/QnyTLMmzE8yfW8Q6zVTizvaRsO1YJdcyPhX6k8rUkzero/b76XdTEjre5XuzzSVIyJGk0l3sBQlmbYLabEJx2yFE9C7LunVJGY930m8TVjtXCkKe88RTWI6E7kv5F8TWnNCBxCfDelb2pcVQmaAQCNRVY7XLpywMjD+z99RIf+5z7wVaodoBIq1ox4tCOfvCZ4lVudSgw3iMpHuGmrZjjBSSKv2Ppo9pBIqJZYzWfWzVC4wRqPknlavdLtSx09tDsYcYfnzYgRbDpVoBmybiOxNEO2fur5u8tGVxI/Ui+vGfO+zyRuTdmYeTPsBkveDxjupSgd9E9wCK8nSuii5VfOX6kTt72cAEBjodoBGkiFmgHtIvZDcxn8n57bHj4tqDajg5S5z2JVGctH28sJACwSqh2gpVyzbcfFtz9yHZrRbaar+QlWKLU9fKpGM4ID2qqVk17iJaP4PgveT8tK28sJAMzO1dt3moD+ot2P6Sj/wrufNvUGGw++SrUDtBd14+mqs00770MzoBLaHj5VoxkAxchysvczD3/0qVcvf/L4Lz/y9atuXFnIfQ4A88IE9B/p7TdVBOfvfU6H/uftOzZFtcO5D3yVagdoEZfdcq8ZT0zdtNds20H4BJWAZgCMx9xIyjEufOK7v/nl15752muf/8prP//r38Q0AJrGPKodznjwuNn9g5/8gpEHcyC+CqCNKKNQXqFvcmUayjf0esInqAQ0A2A85kb66L8cOsaJjH/9716b4pdOFhaWypcZqx3e/+kjxhwuXTlg5OHa67cu5mEGsGDUva0kXE+nqCxa/S23mjJS9+MX2o25keq6z2cEzYBFYG6kD3z2D17+lrGME7/3nYnnu2VhYZnrQrUDwFhkK6kL7nnWn2fdFKi6H7/QbsyNVMt9PjtoBiwCcyNd+ug3nvlaXpux9lv9sw68sph7HQAAYEau3r5TtpKK9RQifIJKQDMAxvP/s/f+MXNU96E3BvPzhQuCAg21ZccUBMIlwXbMDxM8wxODXQuQsQE/+K19MYRLE+w+Qs3LK+7b2orEQmxqX9yIG1iJN3VSN9eEvo+IhFSpQYry4Lao4YeU/tG/b/+oxG1vbmlTlVuJ9+yemTPn5+zszuzO7szno5G9e2b2zOzMnGe+nz2/1I10/eYHf+23vycrNA49f+Sy3X+wevPDk7nXAQAARubmW9Zfve1gqJWUBeETVAKaATAYvZysuWun7D8q/kyvivdM5D4HAAAYHfHkOm/v6/JBdvmOQ24rKQvCJ6gENANgMLNeTgAAoJ3cuHHzJQ8dkY+wCx995bpN24t8ivAJKmHWwyc0AybBrJcTAABoG1YrKTm9d0EIn6ASZj18QjNgEsx6OQEAgFaxevPDan6YIq2kLCoPn+KF7pJOd0Ek9tL6L3SsxPnOovGxOA5tmf+R/v4XO/OxtXEsj8yXT2OI494pESeiZD7qhOtXU5xTuVbuw/rIrIdPQ2vGWcc/EIt8veGBPfKtWMRrtXbZsffPOfqXajP9IpllxC41+rqcVSUv82RIil084k3pLc/uLWicpd7msZ0YPm/5u/AWqt4F0/cy6K+bYtbLCQAAtIQbbptTraQu2n2iYCspCzd8Ovul90RcdO6Rd5PHYho+qQ2WHzkj3orNrAdoGj5lEUUvsu8/i2P50NUiDZWUfTB9akepP6gnu/vI9uxroSu3l6GFion1sEEwK7HZaFSiGb0rk56l/kmV1yi7XpE8meYZnvXwaTjNEAXgV595TZUK8eLOLdui1DfUSdkc333nV7bqKbFPKJqtGUXQo3aL5Ouba3XNSE6ptoErNqGgv8gu0AwAAGgVN9+y/qrtz6hWUiu2PD5yVlb4JB1DV4uct9avtL2HcSBUsILU5DGt1z84H+xrhLaB+cjO2Vfv+b+46FhN/xNoRqEcPHVBkXkVYuki2hme9fBpOM247TcfjPqFwTpHQjYMzbh7zq7KSKVBXSTlx9lZDihEzqpZJ18zFjudrvnLga4Z3j8f1p+MgZqRsws0AwAA2oPeSuqK+59bu+7WMrm5v9LqOhFpoZSVbuGKRP5jN2uWE/ignm59Nn9f/ef/ghUYxFpq6AhnEb35TS/qTyIilZwJg9FSJw2Q0u1lANvPQKvKsJCBlb5r/e2sh0+j9M1wS4JIWf3Ui+r1ud9699cfP6Rv4GqGe5YbphnqvgndnUZ1jS9e721n1odqDhD485H+EKEyGaQZObtAMwAAoPnccNvcxY8cL9lKysLVjOyBmHrFBZ13xDJAM5xmUTkb6A/u9GXod8x595Gdvy/5Kau6I0uctSAtB73CR5zGTqoZRvyWnoT5TlcmJttoEdTiYlfFY25rKImn2ZspJLMePpXVDFmPseLAy9aJsxK9tqfTeM3w3p2DajPsvwKZAwT+Flj6UUQzgrtAMwAAoNGsXXfrVdufkY+n5ftOlmklZeGtzbBaSalVaoN1O/aJZf2OfcZj1/opUPuRPX3uJwGGrhY5zqCe1CNohnd3TdIM78+4cfojbvI2oHAqRrK2j/pnz6gFUr++O0Fg2roqSVQ30urNDz/4H7/+xWdOXnvw1OeffFW4cVX36lgppRmyS8ba+QMXPP9jqwi5Xu4dJEG/AM3WDO/dWUQz9AqKMWmGfxdoBgAANJdV8R7VSurK+54t2UrKokijKbmsmftP7mI8dp3HvRXmqqe50YEzVzNGrs3w7q5RmuE94WZEZLUcMQY40jQj2z7cMUP10tf2ZXTPUDfSpudOX3ngzd95+Y1D33njG99+41e++kczYRqlNMMaYEosn/XxaoZ2/bJrodIbrxneu7OIZkRal6wxaYZ/F2gGAAA0EauV1PW331v5LkKNptbuftrVjM/+7R/0ZeOuZ7PHrhnRaonGYFD9TazQdvi+Gb59uTFDup8sdG6tZliD8Vi1GVYP5FCvAWuPodqMW549LRzjdMrvf/v74tat/L6tnOE0Y8WBl/URbK26CyUY6oX/hGodNfQLgGZ4Px6lZ0xv/hj6WzBC34zgLpwqvwjNAACAWWbtuluvvO9Z1Upq5dzeMe2o+LwZQjM+/dd/vHrdb8nlf//yH3cdOJ7/YLU1Q++IbY02OcxIU3rvAhc7qulm8UCjNMPrdSHNMC9EZh8+zfD2zYhczQj0zbj0a2++9j1lGadPnTo1EzFVNdPzDdQMOcRzerXQjOE0I0rvwo410tSgKL+4Znh34Z+mY5gDUKAZAABQL0IqxtdKymIozfjkn38hHeOTT/7XJ5/84ne/9QN9A3f8erdvgDdScj+o5tEIPbI9+9LmzcgCuXSrLNtZC9JyWNCmB9C7gAc0Q++p4m80FZnyIE5yx/mRV20ZGmlq5VPfPfSdrDZj4fc65+19fXw3cFVUqRk5jaa8E2Q0e0DbopoxqOmknqKfB3feTb1gZCmFNcOzi/RHj+Rt+sNITuZoBgAATBvX337vRbtPyMfQxY8cn0Cj9qE04+Nf/JNwjI9/8Unv3//5T3/4/Z94H9mhCCp9QPub5Tjxl/kct9eoUZWMxMjTAsIzRmVjMBv4BzUj0jtmiIRwoymj67x5hnM6ZkRa+HT95gd/7be/Jys0Dj1/5LLdf7B688Pjvo3LU7Fm6FUZudPz2RVSLdUMdasFBrTVU9TUnFmK9begcNA/xC6cnk1G5s6fJzdRboxmAADA5LFaSa2K90xmv0Npxn//H//yd73ln//uH/5FmMYbf/bzgZ8aGfVULzmnNQxLztQZCnfcWz18WnPXTlkdd85jp9SdLBJv2rBpMnf1CEyoNgNaDpoBAAATZsWWx1Urqau2PzPWVlIWQ2nGxl3P7jxw7He/9YMT3/+JcIy1Ww5O4LkMkyf/x19vpVB++HTDbXPL9p8WN/m1dz4wsXt7KKrRDO+AtiKxgmsCjQDNAACAiXHdpu0TbiVlUVwzAHLID59u2rBJjZl29baDE77Ji1CNZgDkg2YAAMAEWLvu1ivuf061kqqr/TrhE1RCkfBJTTF5zT1PTuwOLwiaAZMAzQAAgHGzYsvj5zzWG+hz2f7TIva6+Zb1dR0J4RNUQsHwac1dOy956EiNN3wINAMmAZoBAADjQ28lJeKt2idIJnyCSpj18AnNgEkw6+UEAACmk5s2bLp8x6HaW0lZED5BJYwcPq25a+ckxzwIgWbAJEAzAACgcq6550nVSurqbQenp9EI4RNUwmjh03WbtosScf6e166//d4x3eEFKaoZLCyVLJO5rQEAoHns+q0nvvjMyWsPnvr8k6+uuvvRCx99RT5ZLnnoyI0bN9d9dAbqqVd3mAqzzWjhkygOsg2hkI0VWx4f001eBGozYBKgGQAAUAbhGFceePN3Xn7j0Hfe+Ma337jsa2+KZ8p5e19fc9fOug/NA+ETVMLI4dPNt6xXE1OunNs7jpu8CGgGTAI0AwAAyrD+G38sHON0yv/zX984d+93p6eVlAXhE1RCyfBp9eaH6x2BCs2ASYBmAABAGf7D19587XvKMk6f+pM/meZnCuETVMKsh09oBkyCWS8nAABQI9dt2v6rB//00Hey2oyF3+uct/f1uo8rSIXh00J3aWlpsTMfW+lx3F/TXTAT5zuLcnNj+35qhlg/Wv7tRJ7V7oJ9ioald0Kt69VLSk6+3If1kcrDpwmPQIVmwCRAMwAAoAyX7j72ua//QFZoHHr+yGW7/2BKxq714oZPZ7/03lnHPzj3yLvJY/H4B3JRGyw/cka8FZtZD9B+sG+IgUREpQI7bE1SbW3QQ1hpIipoHir/dlKJZvSMwuuE2sXqnXPzQlQbPk1+BCo0AyYBmgEw5dQ+DB0Ly8BlzV07l+87KV6c89ipVfGeugtNHuqY5UNQOoauFjlvdfeI+hrQC/d7UW4W5soI1dWA3sadefdXc+uXcn2DofJvJ+U1o5+D1/26XU0zYuki2oVQN1Ilt+XkR6BCM2ASVFtOAKByao8gWVgGLnWXkiFQx5w8BE2dkC/UKj3dpW8OC1aYG2upWaJMnVdRcba9qxnqV/Pi+bcHvY1Z7zwmJ1Qla2Kgb5q2VUu3lxVF/QzcqozkGi10zaonq0Kj8pv/5lvWX3H/czLPCYxAhWbAJJjFhwRAq6g9gmRhGbjUXUqGQB1z8hDUFEJ5xQWdd8RSTDPm+5ULWY+LLFHXjNQy3F/fjUZTsi7DzWpQ/i0hbVPWF4b5TifVDGUXaX8K2aGiKxPjtC1alNUFdUOtoTIRdDTDEpIx3fyr4j0X7T4xgRGo0AyYBLP4kABoFaqQrgaYMmbxCeJqhttKSq1SG6zbsU8s63fs0x+gqTtk8aiKUXPqKKxVVhdw3UCK598G4lTCzMTEwpK3TmVRkm5qntXP3jrnqZA4mpG0rkpSZvHm1xlaM3Th3vDAHlVmxGu1dtmx9885+pdu40JzkIPM8NybWBUVb3s4dSFVill+PO0L3VEXQsfTWtJz2Dt7+p+qSpj1cgLQeNAMmFpm8Qni1Qz3hVjWzP0nd9EfoOqJrF6owMnp2G015vHHWvrv7sXzbwlWVU+SaMainnNrtpuytzc7ZuhBrEczzO4ZE7v5xzQC1XCaIcrDrz7zmq7gd27ZFqW+oc7R5vjuO7+y1dOHSZfs3AG8imtGWpOVXRKx1mhfGBh1IXQ87cQqMyU1w/XAWXxIALQKNAOmlll8goQaTa3d/bSrGZ/92z/oy8Zdz+qP1CwiSgKiLGbVIyirvsIauNZuXqU99Avm3xKG0oxkzF8VkYYbranajDRqddB1ceK1GTfcNidHoBIvqs15OM247TcfjMwmhhIhG4Zm3D3nbqNHrnp1UknNsFoTuoRGXQgdTzuxagDRDIC2gWbA1DKLT5Dibc6FZnz6r/949brfksv//uU/7jpwXN/Ajoi6ZgikdwYwH9x6gOTTjOShXyT/9mD96pokhjTDjJ0y+/BphjesqqtvhoWwC+EYZ/VHoKp2DLdR+ma4CiFSVj/1onp97rfe/fXHD1nbjEMzvE3ovNfPbUiHZigMs+5fC6s8uBtIvAMsGK3R0o1n8SEB0CrQDJhaZvEJMpRmfPLPv5CO8ckn/+uTT37xu9/6gb6BEa6kv55nT2epGd7gWJsfo0ijqZz8W0UyK6HTBTygGXqHFn+jqcg3aUaSPvGRpkLcfMv6y3cckvuqcASqspoh6zFWHHjZOnFuohvWu7e+u/EAzfDVbfm3zDXLquZ3nF1yajOMIRfMv03eARYiajMAZhA0A6aWWXyCDKUZH//in4RjfPyLT3r//s9/+sPv/0TfwAxXjIb7KoLSxz7Knuzao9luqRPoOB7Kv21oP5jKIDLYNyM7sbLlTEgzHJ3wpo973oyBrNjy+MWPHK9wBKpSmiG7ZKydP+C9SDl9M3RTDDRSq0YzckZdCB1POwlphn8MhNwBFiI0A2AGaapmLDv6V9YgP+4iNlvxhVvrPlIIMotPkKE047//j3/5u97yz3/3D/8iTOONP/t5+cc6TBuhCg2d+THPAj55SmmGGmBKovfQsDqFR1ZbGi0GHV9tRv6oC6HjaSdBzXDOsCUe7gALEZoBMIM0UjOKOIYyjcmzv/vhhx9293vWzB1+27+incziE2Qozdi469mdB4797rd+cOL7PxGOsXbLwQqf7zA9uP2EdbzxcO03/3Wbtpep3BhOM1YceFkfwdYdB1qOQ6UPcaufXG/nhyKaYX0w0wxfY0Qj50AlSc7xtJMRNCM0wEKEZgDMII3UjIKOUZdmGAjnePvwXPIGzTCYxSdIcc0AyKHem184xrL9py989JUbN24eLYfqp+e77TcfvP6x/+ymj6YZ3g20aU2MLgE6A0ddQDN0gprhiFw2c2VggIUIzQCYQZqqGU/8xcfW4iaiGVPOLD5B0AyohHpv/utvv/e8va+LvZ/z2KnVmx8eIYfJzQI+smboQyVEye/rVncZo9WTnDdj4KgLaIZOThdwY8gFTd5CAyxEvjqQWXxIALSKVmnG/E//PlczZJTf+7dPFv6vTlo6Jcn7MxswLMHSBJXRh2YjKfWZLM9kg/AB6HnZWuI/4AYwi08QNAMqofabf+26Wy/d9ULydBjeNGZAMyJr4NTAeMZWD4GBoy6gGTr582ZY49Z60rUBFiL9ijCgLcCM0CrNGFSbIeP1JFjvOUAat+uvEzkYpBn9vJRbGO+Mzzi1Gd4DmDvcTTfSswpu3wxm8QmCZkAlTMnNf809T160+8QInTQmpxnQZqaknABAiKZqxkh9M3pRu68Fk+kSMqAfoBn2R3QDydeMwU2oso8U235mmcUniDpmFpZKlrrv6BFBM2ASzHo5AWg8qpDWHVJWibfThZsYaDSlv+vH8E74HlKGbIUmIinZlvma4TkA9c5uN5W3fQOYxSdI7VEpS8OWuu9om2vvfKDIZmgGTIKpLScAIFGFtO6QskpCmrHyxt/I3SwQtTvOMHHN6LfT0lttoRnTSu1RKUvDlrrvaINV8Z5l+09ftPvETRs25W+JZsAkmM5yAgAKVUjrDimr5Kxj73sSS9VmFGs0pVa4EX/hRlMDq1O0vNGM5nD97fdee+cDV287eOV9z178yPFLd71Q4ZTM08bn73rokoePrl13a90HAkURgrF830lVJK+4/7n87dEMmAStekgAzCKN1IzVxbpnOB8KRe399kr+LuB6h2y7b7jVBdxTG7Haqvco4DlGr280owlctPuE+I4XPvqKsAuhGdfc86TwjfP3vCbEo+5DGwvCLs564v/7P3b/F/F9MY1ZQdyT4i4Vt+WKLY8PrMr4ApoBk6ElDwmA2aWpmjESOVG71jNCjiCbbaeGpbVX+Aeh9TW0Mge09RxAlpVIoNFUsxCC4RrFpbteGG2+gilHeIWsq/lCvwIH05hO1ty186rtz1iJQ3kvmgGToCUPCYDZBc0YAWcYKRgLLXmCeI1CBHmf2/r1Wo5nfEjH0KNVTGOquHHjZnHjqcZRN9w2N3JWaAZMgpY8JABmFzRjaDzdu2EstOQJ4jWKFVseH9j8fbZwHUOCaUwPFz76iixx5+957Zp7nizSOCoEmgGToCUPCYDZBc0ogjFdN44xKVryBPEaxbV3PiCC7zoOZ1yIrxMaC7V5X3ZWsOxuVbxH3IrXbdpePmc0AyZBSx4SALMLmgFTS0ueICLIvvDRV6zEmzZsWr7vZC3HMyZCtRahWg4YHzdu3Hz1toPn7X39yvueHdMu0AyYBC15SADMLmgGTC0teYL0jOI/fu8Lzpi25zx2qu5DqxjXNHCMCSMEQ5xwVbJcv60KNAMmQUseEgCzC5oBU0t7niDCKNwxbUVEWPdxVY9uGjjG5Ln5lvXiZlu2//TlOw6tuWvn+HY0Oc2Y7ywudRfU23ihu7S0tNiZT1YZiGS53kHLwfxUdyGOk5xjuatY33svu16uWaLczEpsBt4zMAK9S6BfMl+22WVKz6R1oSXteUgAzChoBkwtPEEaiTQN+bM6jjFWxEn+3NavWz25r9u0fQId7ofWjLNfeu+s4x+ce+TdJHxMpzdSGyw/cka8FZtZgaYefcoIXwWs3sA0FOxGPkOQyiEzLKoZYitBPzW06xmlEs3onTHttCud0LPt7aZ/VuP0iqp0KZAKHhIAU44qpCwsU7vUXUqgYlZ85bFz9/2/OMb4WBXvueShI7L4XHPPk5M/gOE0QzqGrhY5b3X3iDSXiPsVFXoYOqxmJJ83ayFSc4kLaoZMcDNvAOU1o59DJmCxPE3pf+k25tvUOdJVWf1ShGYATD3WX3uA6aHxT5DLHvzmyrm9dR9FDTT7stbOlfc9K8+wbBxVychRwzKcZlg6IV+oVXq6SxL5ptGouyr098VpumNEt256Ec2I1fv0sAb/nRsb1hfMqgj0ZmHpwadHLGsXkiPXN9TOgErWhKFYnlZVRvJZj1fobdWMtVaFRuMfEgCzDpoBU0uznyBCMGQgWGZ2ghmlwZd1Grj+9nvP3/Paii2P1zgbydCakRX71Csu6LwjloKa4a09GE4zwmJgqYO+ytaM9G1V3RjKoB+bfjzznW5aOZA1SUo8bbGrzEFV40T9k9NZUIKS2IVe+VM8T0sFI1czbHMzzqQlKs1+SAA0ADQDppYGP0HkeLXiq4lYsO5jqYGmXtbJsyrec+muF4RU1H0gNqPUZlitpNQqtcG6HfvEsn7HPv3PRPozuqcvhN0F3Gnd5PQdD2qGqjDJ1wz5Ltt7re2mVNVKFJYoy4vUwXvrduxthswz6p+fnPoi6+PBnWpr1Y20cm7vjscXvvjMyWsPnvr8k6+WmcEeACoEzYCppcGacdmD3xTfq7Vz0jX1sk6Mm29Zf8X9z8kByuQybeOSVdBoSi7Ljv0sKtA3Q//p3VoV+vsylGYUqc3QexG4b2tBaY91KgwB81W/eM+GvY35BQfnaXbM0LIdpjbD7J6hbqRNz52+8sCbv/PyG4e+88Y3vv3Gr3z1jzANgGkAzYCppamaIWLEy3ccWrb/9LSFhhND+FVrFasqZA9v2ThqCtvdjdhoau3upy3N+NJ9vSh5c3y3SvnyV+7V/0yoALrfA8CIjMfRN8Nq86PHxM74uUtLS/b2EyY9vCxSj9WIv1KNAq28htKMgnlGxWszwn0zQrUZtzx7WjjG6ZTf//b3L9p9YjL3OgDkgGbA1NJUzZBMYWgIU8uau3ZaPbnF22n+ubaGeTP8w9FWN9KUN0OVSbAPeq0TaCTtphay1k1WSydr6NhQTUWaW0AziuUZmY3KzIO06iusSiHNOgJ9My792puvfU9ZxulTf/LfmvrkAJgt0AyYWpqtGQADuXHj5qu2P3Pe3tdFKbjkoSN1H84Q1DM9X/KzujbNwpDzZhi/yic5OOMpmb+7650fnLjc3L4WejH7Ytbx2hgfNuvR7VcCbxfwgGYUyrPISFOR5nuuvIVGmlr51HcPfSerzdh/7IfLnvjhWGegBIAioBkwtaAZ0Gau27RdFQFhGp/b+vW6j2gI6psFXAtz3VZMdizrkxBnmnBDHsxMs1XemhBrdrla0F1Ikn0DOcFHeGgs7VRkQ+F6azwK5mnVVGiJ4V3bDdv882Zcv/nBX/vt78kKjd974b+ct/9PznriTZF++Y5DNQ64BgBoBkwtDdOMmzZsaue4UjAywi5EmHTtnQ/UfSBDMznNGDcqgK63UqIxeCs0CpI/C/iau3bK8fvOeezUqniP8PJl+0/Lt+2cnwhgGqjqr73xw5H5m462wvgZIjZ+//D8AXd/izJ+oXIHJ+wnlvwiI1PVOOlZW1/zlyS5dnArAOdk+psTm+fUTtR+/BtqFwPHYvH+gBj6VbFhmiFHl7p628G6D6R+RNw8i6Hz+FCNo6a5u8VQNEczoHJGmyLd+/DLf0iIciWHSpCNDukPBzB53L/2Z7/03lnHPzj3yLtJKXaGEFx+5Ix4KzbTC7tZP62PEuFPj8xhOdxeYd6oNxuaz96LsozaRvWoRDP0H3oWummz2NxZUHWysxAYbcVte+yOzpL/CMjfBZoRYlW8R/6sxpPuCwxoq7Hmrp0qEBLLbLWMygHNgElQ5CGxcm6vHPtZ/NuYAgYwK1h/7aVjWLMkhd7q7qGmB11cNKqXk7E/Fl0xSGQhWRWqADHb3Hb74XWseYa+l1CtyGQorxmhUcUjMxB3m6fqmy12Ol1Tt3TN8LYftqL8gZqRsws0w0vLJ+NzacZlrQQR9pzVnwx+RhtHhUAzYBIUfEiIP8GigMktL9p9ojGVhgDTT5FZktQqPd1CaUa3u6jrgUztdru2ZiRikEyrZAzmoVoLBYLdWPMMfS8THjnQrqaJtWmirG9kVdwkdRRye/ll+xmE26xawwCGKjSSeN4cdlxzgMC48OYQKQU0I2cXaIYHYRdntXgyPpdmXNYRuHHjZmvwG9ljp3mdVNEMmARDPSRU5w2h9Vdtf+bmW9ZXcasDQB6uZmTlN/WKCzrviKWgZvRH6E7j5iQxjaWtwDRJyBwhyUprlxP626J7hZvDBNDHUtfH+lOHrdcb9KthMrUwhllf7OqTqHq/gjtRUkhIlI3ogXvmAIFZbi39KKIZwV2gGQHEA661k/G5NOayFkTEMyvn9srGUSLOaUN4g2bAJBj2ISGE/sr7npUfOX/Pa9ZkNABQOd7aDKuVlPj3gud/bK0Sy/kv/EQV9tipnsgMQrwyNSPW3kdOXwtLM8x+4PoUQ6lnTLzFlLdawBrg25pTKNvMHOtP9wprgtSsVscdJtGcCFXPYTFrV6adwDFohn8XaAYUoFWzgAupkD+hyuWyB7/ZBuEsqhksLJUsQ92dwi6EY8gPXnH/c2UqE2v/4iyNWUa+Cacc9QWTwM7XaEpfPusT7pvRCzEt4egFtpZmmCJh9bUopBm6W8jtJ9hiyhuv50+i6oy17gxBHu6Yoea21fbl756ht62yJmgNHXY0qmb4d4FmADhcvuPQhY++0sjGUSHQDJaJLsPeoML+r952UI54u3zfyZEn8qv9i7M0ZhntDpx+1BdMArvUHNbuftrVDCUY6oUWqnqaQS2mlmFphn/s1KW0NZE2Yq0RqnqbXcn+yJNtMTWUZliDO1m1GdZsUaEe5NYeB9ZmRKk8iLeZA/imqXXTi2uGZxdOFU3UYs1ow4/WYCHClcse/CbD9KMZLBNdRrtNb7ht7qLdJ2QOotyOMA5g7V+cpTHLaPfw9KO+YCisTAK+oTRD7/JsTAEhO2wELcP1EKfDhtuJXMrMRMeY8sbrQc0wW09l9uHTjJAs2ZoxqG+G/qmONdLUoCi/uGZ4d+GfpmOYA1DMdOmTo0td8tCRNjTEB3G5r9r+jGocJUKXuo+oZgZoBsD0cM09T6oRb4f9hUA9pVYDjMRMBzpFGEozCjaaipyJUw3N8PXwtttNBVUkMCPHZMeYiszpJvQu4AHNMJuHBTRDlwdxBjpOpYHaMn+kKec4rcFwHakwa2aG0gzPLtLe8dmXGlRV0kjNkJPxtacHQsu5/vZ75b16/p7XWtU4KgSaAbPETRs26RP5FR/xFs2Aksx0oFOEYTVDr8rI0Qy9biMyNMM/h7c7Rm1k98rIMnc3qGVWPs2EpDcE+2ZkX0QkhBtNxWnrosie1rBQx4zI5wCqF772cbu3i+d7DaMZnl04PVF8Jy07c26i3Hh2S5+cjG/Z/tO0m/LSgFnA3bbcV287KGSjloOZQtAMmD1Wzu1VI94WnMgPzYCSzG6gU5CqajOgEnKmzlDkzALeMGa09K1ddyuT8eUzi5dVcsNtc1fe96y8vgyGmQOaATOJ+POtT+Q3sJCjGVCSGQ10ilNQM7wD2orEyYSbrSK/MsHt+dBgZrf0yX7AdR/F9DKjl/WK+59T9+T5e16b9QqZsYJmwAwj/oKft/d1WdTzJ/JDM6AksxvoFKSgZgBMnsaXvtYyo5d15dzecx47JWSDxlEDQTNgthFqIQRj4I8KaAaUpPGBDpoBU0vjS19rmf7LeuPGzVdvOyjCDD2RQcOKg2ZAE7hu0/YLH31F/sG6fMchd2yHGdWMZUf/ym2gYi1isxVfuLXuI20+jQ900AyYWhpf+lrL1M4CLqKIlXN7xbHJG2/Z/tMjjKQPX0AzoEl8buvX1UR+qzc/rK+aRc0o4hjKNKaB/d0PP/ywu7/uwxgTjQ900AyYWmar9K2K91zy0BGi0pnm5lvWq5FmLnvwmyNPDQxoBjQKfSI//Q/9LGpGQceYHs1oNrMV6IwAmgFTywyVPjkZnzhUpn+eLW7cuNlqB3HNPU8y8UV50AxoILJ71ln9ifzkSIIzqhlP/MXH1uImohmTYYYCndFAM2BqmaHSJyfju+ShI3UfCBRF1j6Jq3b1toN1H0sDQTOgmegT+QnTaJJmzP/07wdqxtzhtz9MUc2Y9EStcVMvubtfrXz78FyWT78dVJK8v79dkqi1jep9sv8hka5/WNudkaf32KafGQp0RgPNgKllVkqfnIzvnMdO0WJqJlhz1075i6RsHGX184ZKQDOgyYg/Ihc/cvzmW9Y3STMG1mb04/g0gJ87fHi/k2i8k2F/YgI9hUilQH+dCIf8iOETc6l9GMnKPdLP6juzj20mmJVAZ2TQDJhaZqX0iSfO8n0naS5VnHpnAb9x42Y5RiWNo8YHmgGtYEY1Y6S+GVZlg0o0qhQ0OzCMIGANVr7aqmx7PdVTseGrCJklZiXQGRk0A6aWGSp9RKtDMcnLuirec9mD37TGohWmMZm9txY0A1rBjGpGkUQ7JWQZdqIyAU0UVmvSYSZb23k/nLlF1tbKbKU1w5aBZgDURuNLX2uZwGW9/vZ7r7j/OdU4ijGjJgyaAa2gSZqx8sbfyNusKs1wPmJsl3zalxY6hpz0WaDxgU5VmrHQXfLTXYjj+c6iLzlLX+zMxyqrJLWXFufssS7kYYvjL5lP74x1F3KyjfVzmm4pN8rL0zyZ3o8YFys9z/4r6Owrfxfek9P7IvpevHn6vlTjS19rmcBllZ3yVeMous1MGDQDWsFMasax9z2JA2szzDZQwUSz0VSgNiPUaGp14hT7jY9mmuE9hpz0WaDxgY6rGWe/9J64u8498m4S6qWN9NQGy4+cEW/FZsHIdWjNMKSiDZrRi7y1wFqdPZVtby/d5AzEfeEQ50OuErtXry2SfMxTp2uGzErfoP++dzWMTAaYTHAXrdKMa+55krZSozGOy2qJxHWbtl9x/3PX335vtXuBgqAZ0ApmUTNWF+ue4X7KmCYv7WZtzp2nx/sBzZC9tb1dwNOEtwWH54wUY3Ntd93Dc246XcCnCUszpGPoapHzVncPOwx1fqdf0gJlK92KsBuvGf0csgqBWEbZ6X/ej/R2uahbhyEGin483+map1rXjMRXzM9aUf5AzcjZRXs0Y+XcXnFg5+19ve4DmUkqnAX8xo2br9r+jLgQjCY8VaAZ0ApmVDNGRuscYfbu9gwxG9IM8xNyyFu9xZMxEFWSYFmHb3f+Y5t+pjnQqQRLMyydkC/UKj09JwwdVjMWFxdVDUdUtWZYIayK1w3HySJ4GSXLL2Eej1kJ013wtPgqmKdVlZGejTzN0CP1KFyhkWyV5KRpW+IA/l3E6UnxnrEhd9EKzbhpwybZ6F9O0AS1cPMt69W0vFL5qFyaHtAMaAVt04xx4AxW1S6mNtCpClczsiAv9YoLOu+Ipbxm2G2mNP3QP1WtZugxrh4EyzZJ2eFpUfLiYlfF3Mk6+fH5Tidr65XE5Xr9QPE8XUnI1wy7I4dPVKLUAaztMwcw3SC06yKaEdxFOzRDzs5U1e/xMDIXPvrKsv2nL99xqMbhccELmgGtAM0oyyz33q6EqQ10qsJbm2G1khL/XvD8j92We+e/8BNvGDqCZsSx+lxcsWakQW6U/Gzvi7PTODhOf9jXPusEzdY2Q+YpT5GnSiGsGbrqZDv1nR/lAHoFxZg0w7+LFmjGTRs2Ld93UkS3DIo6SWTjKKuvxQ23zVkj1cKUgGZAK0AzRsAclrbVjrG6rZrhvlDLZ32q7Zsh01MX6Xaq7puhImNrzCXDfjQlyPph++JyexuzxdHgPM2OGVq2fs1wu2inG3uEQX3TSGseNibN8O+iBZrxhf4sGfx8PhmERayK98jqI7Fccf9zdR8RFALNgFaAZkBJpjbQqYpQo6m1u592NUMJhnrhDUNH0wy7q0Z1mpGGuVkEbA24ZNU8jKYZBfOMCtdm6C2v7I0H1WaoDMXbzAFMIzJyG7JvRnAXTtVN1ETNgJIUnwV8xZbH5T0gG0ddt2n7mA8NqgHNgFaAZkBJGh/oFJw3YwKaEQW6UJcnaTe1kLVuslo6ZaaQW1OhH7ZHM4rlGZmRunmQ9mahcH9g34xsM1k7pI80NSjKL64Z3l34p+kY5gAUjS99rSXnslqNoNauu/XiR44L2aB792yBZkArQDOgJI0PdIbSjJKNpnRUYL7kDo1atWbIo1pcXDR9Ru+w4W/gFJltlvQu4AHNKJRnkZGmQjUPkvyRpqwU/XIkVS72lB3DzZsxYBdpV5Lsyw6qKpkJzRBhLpFuVbiXVTWOWrb/NN0tGgCaAa0AzYCSTFWgMw6G1Qy9KmMcmqH6glerGVawG1k+E27glH2jrLNFsMajYJ56r3Tri5vZ2mgtvnLmzTCrjGQ+OZejcNA/xC6cHiq+k5mdUTdRbjxVpe+yB7+5fN9JGu1UgnVZr9r+jBwgWC70e2kAaAa0AvVni4Wl5FL3vTwu1BcMhZVJwFe4NgOKEGr1VIRQVUbzmJ7StyreIw5DhMLWVNMwGtZlvfK+Z8XbCx99hcZRjQHNgFZQMIQCCDE9gc6YKFhGvAPaisTJXIVGkl9pEMLt+dBgpqT0qcn4Vs7trfdIGoM1C/gNt82Jpb7DgepBM6AVoBlQkikJdMYHZQSmlikpfZc9+E1xDJc8dKTewwCYIdAMaAWEUFCSKQl0xgdlBKaWKSl9N23YJEyD5lIAxUEzoBUQQkFJpiTQGR+UEZhaGl/6AJoKmgGtgBAKStL4QIcyAlNL40sfQFNBM6AVEEJBSRof6FBGYGppfOkDaCpoBrQCQigoSeMDnckPDczCMuwy+XJx04ZNFz76ypq7dk5+1wANAM2AVqCeUnUHqzCr1BjoTAbKCEwtNZY+RpcCKAOaAa2AEApKgmYA1EVdpY/J+ABKgmZAK6gqhIrj3qRYCYud+ThWq7QV3QUtXftE7wP+rJbsPHszdnkpNiGXzFwcR8nv604c1pu0OP0i+ROE9b+C8ZW9HzG+af7Xd/aVvwvvSegdv74Xb56+L4VmANRFLaVPqMXyfSfPYjI+gBKgGdAK3BDq7JfeO+v4B+ceeTd5jKXzGasNlh85I96KzfSnnekGmU6E0iNDP3rxbSArK5yOp0EzegdhOUZyzFlkL97rX0on+QqujKV5xrHShFj7iHH28idIzt8FmjEUaAZMLbWUvhs3br7koSM0lwIoA5oBrcAKoaRj6GqR81Z3DxVnLy4mPpCk95OTVJ9+JKu0gDhblYbpmltkOSRpxezCOs4ymtHPwVtR0O1qmhFLF4k9O+rH852uKVe6ZqT1IrH1Kf3LDtSMnF2gGUOBZsDUUmPpu/mW9ZPfKUBjQDOgFVghlKUT8oVapadbKM3odhf16F+m9iJwSzMSleguZE4R1IxIq/pQwXFBzbArU5IIWyVr+7WqV/qHmm4v99bPwK3KSIL2ha7ZTilUoZFsJ8P2OKv9SB0gWWGf4d4WWf4FNCNnF2jGEKAZMLU0vvQBNBU0A1qBqxnZAyz1igs674iloGZ0FlJ/iOM0MY3SrZA3SXDqLnyaEcdZOyCZUkQz+hklOxW5dhZiq3WTXm8w3+nKxGQbLSJfXOyGWkOpkD12NMMVEnXkMgc9cM8cwHQD6wwYljVIM4K7QDOGAc2AqaXxpQ+gqaAZ0Aq8tRlWKynx7wXP/9haJZbzX/iJetrFTvVEZhBZj4o04tfeR1mFg1pbjWZ4qwXitFIgeZs6gv3ZNOa2tpf71fNUwbdHM5LWVXbmygH0CooxaYZ/F2jGMORpxpatdzz14sbDb204ekYs4oV4KxJD1wWgWiZZ+lZvfphZMgCqAs2AVlCk0ZS+fNYn3DejF7xawtELmS3N0HooR1prJRn4+jUj3WYIzfDF61aEbbVEMvqea5qRbW92zNBDc49mBLpnKAdI9tjPYUya4d8FmjEMIc348q4nvvT8n68/9tfWIhLFqtClAaiQiZU+NboUpgFQCWgGtIJQo6m1u592NUMJhnqhnna6Zpi9u9P2RJpm5I8Wlds3w+ycUJ1mWIM7WbUZVvWFpUPebxEVqM2IUnkQbzMHMM0nO/Lh+2YEd+FU0URoRhivZgiR0NVi26sf3df9SE/xmkbBsYzt8dSsrv9Oun5pBu7CO9qyfsPAWMkf7XpYJlb65GR8Fz9yfNw7AmgJaAa0goLtzofTDD3+zn6hT1eGx6Q1e3SYv8eH4q0czfDF60HNMFtPZfbh0wxvQDZC34xss6VuxxppalCUX1wzvLvwT9MxzAEo2qgZW7Za9RjXHf1IFAqrTsNtPVVgLOOsCjBNWehqt6JxD3Q8WjhwF2hGvRTRDN3585lM6WMyPoDKQTOgFQylGQUbTUXOwFCGZpgtppKP6/0zgvNmOBNH5GpGuo2nC3hAM8xGXAHNCMmDqxn5I005x6lVg8TJgXu/SJZSWDM8u0h7x2dfalBVCZqhvvIdT71oNZRyNUMsvX4anuuSN5axuh/d8xyq5ooczRi8CzSjPmZRMy7fcYjJ+ACqBc2AVjCsZuhVGTmaoddtRIZm6K2ffDN/a42udNwYqOCAtlrVifSGYN+MbK8iIdxoytUJb/qgeTPMBkvpT9ieE+JU42TfaxjN8OzC6YniO2nZmXMT5cYt1IyNh39URDM2Hn7Le12GHcs4vSWCax3NCO4iQjPqICs7cig+0/b1UhZZpc8cGdwtqhMrfXTJAKgWNANaQVW1Ga0iVKGhE6rKaB4t1IwNR88U0QyxmXWuRhvLWKGq2dxsLc0I7SJCMyZOWlOo/eCSXQvPINqRU5uh13FZN0njSx9AU0EzoBUU1AzvgLYicQwP5dkgvzKh2l6eU07jA518zdh04n3hGL/89N+H0owiYxkbPZzseS3tQZZdzfDuwsx2QIUhlMet/Az96TCGrQsPYWfVrza+9AE0FTQDWgFTj0FJGh/o+BpNvdXrevHyz2QlhkC82PbqRwUbTcnXBccy9k7tYv0o7tUM7y4iajMmi3v5rPPvDqIducrhMBnNuG7T9nFkCwBfQDOgJaAZUJIWasYdT734tR/+7ceffCoEY9d3f+5OnZHbBXy4sYyDM0hqG4c0w91FhGZMFlcdra44QbUItJKyGF/pWzm3V2R7xf3PVZ4zAHwBzYCWgGZASVqoGdGWrdtP/PSRk38TEoycAW2HHcs4qBlaj/CQZnh3gWZMElcd1cUKDaIdWZoRHmEsGlvpu2nDpnMeOyWyXbHl8WpzBgAJmgGtAM2AkrRRM5zp+dwlND1fobGMte6/KhjtvbAb22jzXQY0w90FmjFhQl3AQ4NoR04NhjEwdyz7jY+30RST8QGMGzQDWgGaASVpp2ZEfdOwJulT9Rhex4iKDTQcOQMKp7POu8meeU4G7gLNmDDWdKX+7vjaINrGR6xZF53O+uMofWvu2ikyXLb/9I0bN1eYLQDooBnQCtAMKElrNaPHlq13PPXixsM/2nD0jFg2Hn6r1x/DaSsFMCbGVPo+t/XrTMYHMFbQDGgFaAaUpNWaAVArjS99AE0FzYBWQAgFJWl8oEMZgaml8aUPoKmgGdAKCKGgJI0PdCgjMLU0vvQBNBU0A1oBIRSUpPGBDmUEppYKS99lD37z8h2H1q67tXxWADAQNANagRtCnXX8A7HI1xse2CPfikW8VmuXHXv/nKN/qTaTGAOqpEPh+GawTdblrJrkc3oE9PElR/24PRC+O/6PcX7SIWj8J803cFDOLtJZoZ2JpfW9ePP0XRo0A6Auqip9q+I9IpNzHjt104ZNlZQaAMgHzYBWYIVQwhx+9ZnXlD+IF3du2RalvqGebZvju+/8ylY9xRlts8maUQQ9ardIvri5VtcMd/IEV2xCQX+RXaAZQ4FmwNRSSekTarF830mRCaNLAUwMNANagRVC3fabD0Z9u7AeZkI2DM24e86uykilQQWvIkUPZK05wnRyVs0u+Zqx2Ol0zfHv562poJ3PWlH+QM3I2QWaMRRoBkwtlZQ+JuMDmDxoBrQCbwjlaoZIWf3Ui+r1ud9699cfP6Rv4GqGRZM0Q81llsbrqrVY0k7JqKgJTIVmTfSrOUCywvqUPmdwVEgzcnaBZgwBmgFTSyWl73Nbv37OY6eYjA9gkqAZ0AoGaoasx1hx4GX78WYmGv0yfL/iN1gzDLtQ8/gOqM2Yj8zAPXMA0w0Uln4U0YzgLtCMYUAzYGqpqvTdfMv6SgoLABQEzYBWkK8ZskvG2vkDFzz/Y9UXXF/0T9n9MLwdmpuoGaphUhq9F9UMvYJiTJrh3wWaMQxoBkwtjS99AE0FzYBWkK8Z1gBTYvmsj1czJLps6B0DGqwZWXcULaYvohmRDP37m41JM/y7QDOGAc2AqaXxpQ+gqaAZ0AqsEGrFgZf1EWytugslGOqF98kXax01VCKa4X48Ss+VeJs5gNkHQzFC34zgLsxKmGQzNCNAhZphVvhlV9Mdzti6iMk1ko30Bg0PABPG6+0joK6j98ca700ycum7acOmq7cdpK0UQF2gGdAKCoZQAzVDPBetuBbNKKIZUVp90bFGmhoU5RfXDO8u/NN0DHMAihZqxtkvvdcbCOHIu8kZcCr3lh85I96KzXKuizIG7+VwL2IkbzCBY6FoRr1Uohm9QpoVwLTtpVmH2bv+5i0xcumTo0tdcf9z4ygyADAQNANawVCakdNoyjtBRlMHtC2qGYEp/Nzw0ToDiafZkjbcvBkDdtEPcvXRh5cGVZWgGfL7SsfQi0DOW6vGz6xlyuqUCmqGTHEvBJpRL+U1o5+Dpw4zMi9uLF1E+zswWuljMj6A2kEzoBUMqxl6VUbu9Hy+H1xbpRlq7K2Cv1KbW9pTqhcO+ofYhbEH43rZztivlnET5cZt0wxLJyKzL5Oenn9dhtWMWFWQaSMNFLkZoHL0otO7EoGBraPAEHzp9rJI9TPQqjIsrNvAqtAYofQJtRCCwWR8APWCZkArqKo2A1pLCzUj++6pV1zQeUcsI2iGdNRCmpFahvvbOZoxSdKKwL4wzHc6qWZ4B7ae73SN3x30zlGLXb1zjvW7gMStFLWEZITStyres2z/6UseOjK+IgMAA0EzoBUU1AzvgLYiseQDGxpACzXDbSWlVqkN1u3YJ5b1O/bp50o3B70hnFl1ZVQjeT9raQmaMTG8s2fmDGxtbGaKonVx9TyzukOnf1fauipJHK303XDbHM2lAOoFzYBWwGCdUJJ2aob7QizLjv0sGtQ3w2qKJtMH1mZY44wNNewYVIi3z1VO48nIckhffVROxww1tJi2L6N7RuNLH0BTQTOgFaAZUJLGBzqhRlNrdz9tacaX7uuFg5vju1XKl79yr36u3D4zkoGa4a3uMCpG0IyJMJRmJJUSqktGbrO3UA9ya4+V1GYAQO2gGdAK0AwoSeMDnWrnzRhBM7zznKhQNkIzJoh3WpugZpitpzL78GmG98aIXM0YtW/G9bffyywZANMDmgGtAM2AkqAZxRlRM7yhrTYkMZoxSfRONXoX8IBmpEPPZb3EPZqhy0McL3ScuTXVlqONNHXThk3L9508f89rdMkAmBLQDGgFaAaUBM0ozmiaoY9cpNBHLkIzJow5SXdQMyK9tZuc8SSkGWmDqsgZzDqnY0ZUuPTJyfgYXQpgekAzoBWopxQLS8ml7nt5XKgvOKEYFlpJztQZitFmAWcyPoApBM2AVkAIBSVBMwAqIb9WylvlNbD03XzL+vP2vn4Wk/EBTBloBrQCQigoCZoBUBdFSt8Nt81dtf2ZiZUXACgCmgGtgBAKSoJmANRF40sfQFNBM6AVEEJBSRof6FBGYGppfOkDaCpoBrQCQigoSeMDHcoITC2NL30ATQXNgFZACAUlaXygU/sQXiwsAxfrpl05t/ei3SduuG2uliIDAANBM6AVqKdU3cEqzCqhQKcx1B5BsrAMXPQ79qYNm8557JRIXLHl8bpKDQDkg2ZAK1BPqbqDVZhVvIFOk6g9gmRhGbjod+wlDx0RKRc/crymEgMAg0EzoBWop1TdwSrMKt5ABwBqYeXcXlEYl+0/fePGzXUfCwAEQTOgFVSlGb2JpVz6k0n1ZpUyWOzMx+lHktcKdwoq8+PdhTj2TmKVP7NVY4hjeYbiwZvmok5XbF057Rxma3pXqbfH0SYIA4CJccNtcxftPkFzKYApB82AVuBqxtkvvXfW8Q/OPfJuEkQe/0AuaoPlR86It2Kz/PhV4Y1Nsyg2DWHdjWVILdUiSVnoZp6hfUolBYLq5lCJZvTOljrJ2mud3m76lya5Cuk24o1I1rdEMwAAAIYCzYBWYGmGdAxdLXLe6u6hGEozFjudbl80vBurSNeOkh2pcMWjqZTXjH4OWSWS9+pYZzhOr0S6yjjVaAYAAMBQoBnQCizNsHRCvlCr9PQQQ2rGvGUIauP8CgprL1PbYso6sKyKQG8KlqpUqhCymic5J/qGvaRkG5WcCUPBPK3qC79mJC6T5mxeC6tCA80AqJ21626t+xAAYAjQDGgFrmZk4WPqFRd03hHLmDTD+kimGbkVFPraqrorjIM4cSn7OOc73bRyIGuSJF8vLnaNqgb1Nec7nQUlKFr/lqzjRNE87eojp2OGftiRc4YtUUEzAOrl6m0Hz9v7On2+AWYINANagbc2w2olpVapDdbt2CeW9Tv2uYG1XzPsHuBJiCzjXb1NTlHNSAPhyPnpfaoocpwqpo/TE6F91tYne5sh84z6p92rZHJ32cl3NMPYqbYWzQCoETm0lFhWxXvqPhYAKAqaAa2gSKMpuSw79rOo+r4Z89k2/ci1oGboHw/lPyWEjtOwL00JjEoD5wzY22iGVihPs2OGhdrjgNoMs3sGmgFQF8oxxIu6jwUAhgDNgFYQajS1dvfTlmZ86b5erLw5vlulfPkr93qj6hE0Q/6ULt5mmmEG0P6YuLd+eltMSdzjTOoNVGMqs+ZhNM0omGcUrs2ItLoRa9eeHuHUZgDUzdp1t56393VR9K6558m6jwUAhgPNgFZQ+fR8o2lGlEbVnawLuDGOqkvyk/vC9LaYkrjHabV0soaODdVUpLkFNKNYnpFz2o3MVW2G1tbLPWD6ZgBMCTdu3IxjAMwiaAa0gunRjEjNpJHNm2H8Qh+l82aEtp9aet90cdHo22B02PA3cIqSL+jpAh7QjEJ5GpNmxLLfePYpdZCqc7nbu4ORpgAAAMqAZkArmJBmmMio19UMNR1flhKbnzan0Ug7LU9vVYYkbRFmzkKovlG4gVNkTK+eDYXrrfEomKfRK908vcFdG1eEeTMAAABKgWZAK6hcM2D6Cc38XQRmAQeoketvv/fiR44zSwbArINmQCtAM9rJaBMaetu/oRkAk+HGjZuX7zspytqV9z1b97EAQCnQDGgFaAaUBM0AmADCMeS4Upc8dOTmW9bXfTgAUAo0A1oBmgElQTMAxo3wigsffUWUsosfOY5jADQANANaAZoBJUEzACYAvTIAmgSaAa0AzYCSoBkAAABDgWZAK0AzoCRoBgAAwFCgGdAK0AwoCZoBMA5uvmX91dsO0hMDoJGgGdAK0AwoCZoBMA4ue/Cbss933QcCANWDZkArQDOgJGgGQOVcvuOQKFPL9p++btP2uo8FAKoHzYBWkKcZW7be8dSLGw+/teHoGbGIF+KtSJx4HAtTDZoBUC1XbzsoHWPNXTvrPhYAGAtoBrSCkGZ8edcTX3r+z9cf+2trEYliVS3hLEwnaAZAtayc2yscY/Xmh+s+EAAYF2gGtAKvZgiR0NVi26sf3df9SE/xmsZCd2lpabEzH+uJ853Fpe6CnhL3t8uw1sa9T/SzibNszW16W/Q36G+aIdKMbUz0tS3HvShlQDMAKuemDZvqPgQAGCNoBrQCj2Zs2WrVY1x39KPPPvvMqtNwW08l+qAZghXRpl7QXUg3iIVzmNv3NhFouhKnVpF9pJ+FnXk/b5keOZF0nMhNtus2U0QzeifMvDQh0AwAAIChQDOgFbiaccdTL1oNpVzNEEuvn4ZJPy7tdN1ahTSiVbUQOTGrDG6tGgz9rZ6JFS7bm3nrSar7FX92QTMApo3rb7+37kMAgMmBZkArcDVj4+EfFdGMjYffssLNJC5NKhvsWgW9FiIY2qrYVn4s1is0em/VCm+4LD+cE0lbx9YqsqZqi50FpxYoa1jWPzlGuzbd3LTtVM5oBkBJ1ty1c9n+05fvOFT3gQDAhEAzoBW4mrHh6JkimiE2cwNZGeV7axWKhPjKMiydiFXDKfMndqPRVEBvjPzN9lftYaGbKYRqPiZXzXe68oRYtT2eU23kkJ1qNAOgDNdt2i4cQ5QgNAOgPaAZ0AryNWPTifeFY/zy038fSjP0aD6kGdpP41liTnVEnDbJ0utDrH7e9ipXM9LYuXiA3gDcb+32qk+21NTCeG3mYEkgmgEwMtfffu85j53CMQDaBpoBrcDXaOqtXteLl38mKzEE4sW2Vz8q2GhKvjYGgwrXZuiNo+yu3nbPb3sEqsjbvzzcN8PNsyVYLdAi5+QYtubVDGtwMFPqGq8Z6guysJRc3Ltr5dxekX7JQ0cmf2MDQI2gGdAK1PNPBZ13PPXi1374tx9/8qkQjF3f/bk7dUZuF/BEM2RPDPE20wxfiK9HwO4QtJ4xat2RbfUaD18tirG7wt2am4QreFaHmaBaBFpJWeSEUM2g9tiUpTGL9wZbc9fOm29ZP+G7GgDqBc2AVqCef1nYuGXr9hM/feTk34QEI2dAW90KZGza0cJ9t62O1bfbmtrCGpmqmGZo0mKPNDW4D3ojcQVPXQirosPugKFe59YC5YdQDaD22JSlMYu4nXb91hNffObktQdPff7JV2+4ba7uuxsA6gHNgFagnn964GhNz+cuoen5LE9I2tpk7ZqM3871MDdc1xEcVyoaptGUmrHDGyg3nlAXcP20J6coUIPR/1DavC2W/cZb12hqNcBIqFtIOMaVB978nZffOPSdN77x7Td+5at/hGkAtBM0A1qBVzOivmlYk/SpegyvY0Q+zfAG984k4OkIqk5zpoHdLex2VqH+BmZH8xZiTJjeXbAnM1EN1Ixu3+kavTLK15gNzQDIR91C67/xx8IxTqf8/re/f9HuE3Xf4ABQA2gGtIKQZvTYsvWOp17cePhHG46eEcvGw2/1+mM4baWg5aAZAPmoW+jSr7352veUZZw+depUgwsOAOSAZkAryNMMgAKgGQD5qFvomqdPH/pOVpux8Hud8/a+XvcNDgA1gGZAK0AzoCRoBkA+6S305vKv/unVB5IKjUPPH7ls9x+s3vxw3Tc4ANQAmgGtAM2AkqAZAPmoW+hzW7/+a1ueWL7vpHh9zmOnVsV76r67AaAe0AxoBWgGlATNmF2WHf2rs45/kL+IzVZ84da6j3S2aXwZAYBhQTOgFaAZUJLGh1BN1YwijqFMI4e5w29/2N1fySHt7374YVV5TRONLyMAMCxoBrQCNANK0vgQqqmaUdAxqtEMIRBvH56r7NhnjMaXEQAYFjQDWgGaASVpfAjVYM144i8+thY3Ec0oT+PLCAAMC5oBrQDNgJI0PoRqm2bM//TvB2pGv3VTn7cP7zc1o2cdat2cubFqEqVtpOtHU2Wk8WUEAIYFzYBWgGZASdQttHJu747HF774zMlrD576/JOv3nDbXN13dzW0TTMG1mb0tEHZgHSIVDN6+mCsSleYAjF3uJu+6QuHf6vmgGYAgAWaAa2gwCzgbzELOOSgbqFNz52+8sCbv/PyG4e+88Y3vv3Gr3z1j5phGg3WjJH6ZtguoNmEtUprTpUjENoqNAMAWgKaAa0gpBlf3vXEl57/8/XH/tpaRKJYNelIFqYYdQvd8n/9N+EYaobj3//29y/afaLuG7wCGqwZRRLtFKcrRpZgtI4yGkm5AqE3m0IzAKBtoBnQCryaIURCV4ttr350X/cjPcVrGgvdpaWlxc58rCfOdxaXugt6StzfLsNaG/c+0c8mzrI1t+lt0d/AyjxOj8Dag3dHbca9KGVQt9ClX0umN5b88Q9ONyOuaptmrLzxN/I205tC9TE1I9AZ3BCIvo7obavQDABoGWgGtAKPZmzZatVjXHf0o88++8yq03BbTyXBvWYIVkSbKIR4n24QCzMwt+9tItB0JU6tIvtIPws7837eMt04JOzCoYhm9E6zeWlCZH0znvruoe9ktRn7j/3wrK/+6UW7T1y3aXvdt3kpGqsZx973JBaqzQg0mnJWGRupNWZ9iP4hNAMAWgKaAa3A1Yw7nnrRaijlaoZYev00TPpxaafbFw1vRKtqIXJiVhncWnqgv9UzUZlL99D3634QFGPSjOs3P/hrv/09WaFx6PkjF/+f/3X5fzwpV1324Ddv2rCp7pt9RJqqGauLdc9wP5XTBdycX0/r6a1XdOhiIdtOoRkA0DLQDGgFrmZsPPyjIpqx8fBbVriZxKVJZUNsRbR6LUQwtFWxrfxYrFdo9N6qFXrmcVrf4WaIZiiyhmSLnQWnFkitkl5htDrTBU/bTuWsh1Br7tq5fF9PLc557NSqeI9IueaeJ8VrkbJs/+mrtj+zdt2tdd/yQ9NgzRgVrWNFd7/VWUPvoGEMLvV21lcj+7zYgkZTANA+0AxoBa5mbDh6pohmiM3cQFbG+nblg9QMUz+8KMuwdEKJhPUTu9woxyXQDElS19M/b0nfmOwCdaUzxGmzM5nuOdVGDtmlHBhCCbW48r5n5TZCQlZseXySd3h50AwoCZoBABZoBrSCfM3YdOJ94Ri//PTfh9IMvTdFSDO0n8azRJVD5DTsidMmWXp9SJqJ3e/cCK9brxmqjkilhE6LrhbGazMHSwILhlA3btx86a4X5JYXPvrKmrt2TuYOLw+aASVBMwDAAs2AVuBrNPVWr+vFyz+TlRgC8WLbqx8VbDQlX7uDQXlrM/TGUXZXb7vntz0CVZSqSNr322MaaEZknmSJpXB6sym/ZviG7hpWMyTX3vmAcAy5/SUPHZmJiTXQDCgJmgEAFmgGtAJvF/Cv/fBvP/7kUyEYu777c3fqjNwu4IlmqD7ZmWaY2uBGwEawqwW9oeBYT+mHwR7TQDMin+BZHWaCahFoJWUxQgi1YsvjsguHWK6879kp77CBZkBJ0AwAsEAzoBV4B7TdfuKnj5z8m5Bg5Axoq1uBjE07mhu4Qb/Vt9vqxm2NTJWjGd66Du8eW4greOq0WBUddgcM9dqniIrRQqibb1l/9baDy/aflv3FP7f16yJlTDd5SdAMKAmaAQAWaAa0giLT87lLaHo+yxOStjbZvBnGb+d6mBuu67DHldI3MCflSKo07ANovWZE4S7g+mlPhpwK1GDo9UW9q9XNLmKZEOqmDZsue/Cb8uPn7X199eaHK7/Dy4NmQEnQDACwQDOgFXg1I+qbhjVJn6rH8DpG5NMMNR2fHfI6Tfz1ODj7uDn2Ub5muIFyhGakxPqwtbI3iztMrZyvJOv2na7RK6N8jdnKh1DX337vxY8cl5mIF9M2nR+aASVBMwDAAs2AVhDSjB5btt7x1IsbD/9ow9EzYtl4+K1efwynrRS0nKpCqNWbHz5v7+tTOJ2f+oIsLCWXuu9lAJgW0AxoBer5V3ewCrNKhSHUzbes/9zWr6vp/K7ednAaOmxQRqAkaAYAWKAZ0AoIoaAklYdQ0zadH2UESoJmAIAFmgGtgBAKSjKmEOqG2+YueeiIzPnCR1+59s4Hqs2/OJQRKAmaAQAWaAa0AkIoKMlYQyh9Or9Ld71Qy3R+lBEoCZoBABZoBrQCQigoyQRCqHqn86OMQEnQDACwQDOgFdQ+9ApLY5ax3qhCLa7a/oyazu+ae54c6+501BesO1iFWWUyZQQAZgg0A1pB7bEpS2OWCdyutUznp75g3cEqzCqTLCMAMBOgGdAKao9NWRqzTOymvW7T9ot2n5A7vfiR49fffu9Yd6e+YN3BKswqky8jADDloBkAANOLPp3f5TsOjW86PzQDSoJmAIAFmgEAMNVMZjq/qjQjjuc7i0sJi535OFartBXdBS1d+0TvA/6sluw8F7rOqjTv4scpjqPk9+0dhrnHuJeUfBG5j7zPml/Z+xHjm+Z/fWdf+bvwnoTe8et78ebp+1JoBgBYoBkAADPATRs2XXH/czKMW77v5Kp4T7X5u5px9kvvnXX8g3OPvJsEkcc/kIvaYPmRM+Kt2MwIUg03yHQilB4Z+tGLbwNZWeF0PA2a0TsIyzGSY84ie/Fe/1I6yVdwZSzNM46VJsTaR4yzFwr6i+wCzQCAsYJmAADMDOObzs/SDOkYulrkvNXdQ8XZi4uJDyTp/eQk1acfySotIM5WpWG65hZZDklaMbuwjrOMZvRz8FYUdLuaZsTSRWLPjvrxfKdrypWuGWm9SGx9Sv+yAzUjZxdoBgCMFTQDAGDGWHPXzvP3vCZDukt3vXDjxs3l87Q0w9IJ+UKt0tMtlGZ0u4t69C9TexG4pRmJSnQXMqcIakakVX2o4LigZtiVKUmErZK1/VrVK/1DTbeXe+tn4FZlJEH7QtdspxSq0Ei2k2F7nNV+pA6QrLDPcG+LLP8CmpGzCzQDAMYImgEAMJOo6fyW7T9dfjo/VzOy8DH1igs674iloGZ0FlJ/iOM0MY3SrZA3SXDqLnyaEcdZO6As6h2kGf2Mkp2KXDsLsdW6Sa83mO90ZWKyjRaRLy52Q62hVMgeO5rhCok6cpmDHrhnDmC6gXUGDMsapBnBXaAZADBO0AwAgFmlwun8vLUZVisp8e8Fz//YWiWW81/4iRVt69UTmUFkPSrSiF97H2UVDmptNZrhrRaI00qB5G3qCPZn05jb2l7uV89TBd8ezUhaV9mZKwfQKyjGpBn+XaAZADBO0AwAgNnmxo2bL931gozwzt/z2pq7do6QSZFGU/ryWZ9w34xe8GoJRy9ktjRD66GchsKZdfg1I91mCM3wxetWhG21RDL6nmuakW1vdszQQ3OPZgS6ZygHSPbYz2FMmuHfBZoBAOMEzQAAaAIlp/MLNZpau/tpVzOUYKgXWhDsaQa1mFqGpRn5o0Xl9s0wOydUpxnW4E5WbYZVfWHpkPdbRAVqM6JUHsTbzAFM88mOfPi+GcFdOFU0EZoBANWBZgAANIdV8R7ZYUMsV9z/XPHp/ArOmzGcZujxd/YLfboyPCat2aPD/D3ejOCjIprhi9eDmmG2nsrsw6cZ3o7dI/TNyDZb6naskaYGRfnFNcO7C/80HcMcgALNAAALNAMAoFHo0/mJfwtO5zeUZhRsNBU5A0MZmmG2mEo+rvfPCM6b4UwckasZ6TaeLuABzTAbcQU0IyQPrmbkjzTlHKdWDRInB+79IllKYc3w7CLtHZ99qUFVJWgGABQEzQAAaCDDTuc3rGboVRk5mqHXbUSGZuitn3wzf2uNrnTceL3ggLZa1Yn0hmDfjGyvIiHcaMrVCW/6oHkzzAZLaS8WzwlxqnGy7zWMZnh24fRE8Z207My5iXJjNAMALNAMAIDGcv3t9178yHEZ/F20+8R1m7aHtqyqNqNVhCo0dHJmAW8YaAYAWKAZAAANp8h0fgU1wzugrUicTCA7heRXJrg9HxoMmgEAFmgGAEAruOaeJ2WHjWX7T1+1/RlrOr+CmgEQAs0AAAs0AwCgLejT+S3fd1Kfzg/NgJKgGQBggWYAALQL73R+aAaUBM0AAAs0AwCgjVx75wMXPvqKjAtXxXvQDCgJmgEAFmgGAEB7EYIhZOPmW9ajGVASNAMALNAMAADIGk2xsJRc6r6XAWBaQDMAAIC+GVAWNAMALNAMAABAM6AsaAYAWKAZAACAZkBZ0AwAsEAzAAAAzYCyoBkAYIFmAAAAmgFlQTMAwALNAAAANAPKgmYAgAWaAQAAaAaUBc0AAAs0AwAA0AwoC5oBABZoBgAAoBlQFjQDACzQDAAAqEwzFrpLHroLYtV8Z9FMXezMx+lHkteK3sb9T/k+2Nt64O6aQRzLMxEP3jSX3onSTos32+xk9q5GnJOuXx0FmgEAFmgGAAB4NOPsl9476/gH5x55Nwkij38gF7XB8iNnxFuxWZG4NhSbZlGsGdrammGEyPITIkg2Q+EG2YWiEs3onTDt5Cht0LPt7aZ/CeQejZMfSFeyJ0EzAMACzQAAAFszpGPoapHzVncPI5YtrBmLnU5Xq6OIcjUjSoNvO3RGM4I5ZJVFsTxT6X/pNubbzC386elHDNNDMwDAAs0AAABbMyydkC/UKj09xJCaMZ8GtLG7sfeD1vZTohnWYWThut7wK623SRXCqJzRN+wlJduoZE0YiuVpVWUkn/X4Q3Yy1dpQuvp2uhmiGTrqbLCwlF/qvp1HB80AAACPZmThY+oVF3TeEcuYNMP6yGDN0H5Z9+6uFuLEmfSIX8pDN60EyOph5OvFxa76Fsk6+fH5TmdBCYrWjyXrIFE0T6t1U+RqhnbY+pGH0rNPaee8ASFRhdQemLI0aan7dh4dNAMAAPy1GVYrKbVKbbBuxz6xrN+xzw24/Zph9wBPQmcZB+vmMFgz0hA4tLta0I/KqgrItklj9zj9wtpn7fZR9jZD5hn1z4zb5qqIZiRVTL707GC0tQ0IiSqk9sCUpUlL3bfz6KAZAABQqNGUXJYd+1lUfd+M+WybfuQ6o7UZkfZ1rMM2LEtTAiPWdxTC3sb81oPzNDtmaNlWUZthds9oQEhUIepsrAYYlQaUKTQDAACCjabW7n7a0owv3deLoTfHd6uUL3/lXm+0PYJmyPBXvC3UN0OLgKdHM9IDyyLyZGgs1ZjKrHkYTTMK5hkVr83w9s0IpGcHQ21GADQDytOAMoVmAABA9dPzjaYZKuTtDBhpym5fNEWaIUP+hax1k9XSyRoiNlRTkeYW0IxieUbO6dUO0qqXsDqX97uPB9KTt/TNCINmQHkaUKbQDAAAmCLNiNTEDqF5M2RTITOr6dGMSH6jxUWjD4PRYcPfwClKvrinC3hAMwrlWWSkqUjrXG51wAilR4w0lQuaAeVpQJlCMwAAYFKaYc/WbXQBz4JgUyScD3r6QE+VZqQtv8zJ71QPinADp8iY1zwbCtdb41EwT6tGQksM79pVOCedeTPyQTOgPA0oU2gGAABUrxkwPXgrNErCLOD5oBlQngaUKTQDAADQjIZTbW2Pt/1bA0KiCmmkZiw7+lfWEHPuIjZb8YVb6z7ShtCAMoVmAAAAmgFlaUBIVCHN04wijqFMYxBzh9/+sLt/9IMp+/kZoQFlCs0AAAA0A8rSgJCoQpqnGQUdA82okAaUKTQDAADQDChLA0KiCmmkZjzxFx9bi5uIZlRIA8oUmgEAAGgGlKUBIVGFtEcz5n/69wM1o2cFKX07kJqgkt8+PCc33N/NXtsyIdZ9mG6+39QMLX/t47NPA8oUmgEAAGgGlKUBIVGFtEczBtZm9B0gdYK5w4dTzVBK0POH7KVfM7RtUuHIsnzbXNWcao4GlCk0AwAA0AwoSwNCogpppGaM1DfDG/gbaqDpREgzzHQjU2tVo5pTNaBMoRkAAIBmQFkaEBJVSCM1o0iineKvXjBlIJOOgGY47mAIiAOaMT2gGQAAgGZAWRoQElVIezRj5Y2/kbdZJZrhZGJqRmO0wqYBZQrNAAAANAPK0oCQqEIaqBnH3vckDqzNMJtH6amDNUMphJNJJhf+/BtCA8oUmgEAAGgGlKUBIVGFNE8zVhfrnuF+qt+sydMF3KcZendxo6N3ThdwI3+RQ/dwY6SjAWUKzQAAgOo1Y76zuJTRXYhjtSqO+ysXO/NaomChq32iv7pghr0PdheqOvKZQJ5DcRZK5qNOXayfffNkZmvSSyb3bWXVgJCoQhqpGSOjdaDIdMKnGfq2csBbzR/e/tC/xuyg0aSqjQaUKTQDAAA8mnH2S++ddfyDc4+8mwSR6a+VaoPlR86It2IzbwSsm4AIYfWAuLde4IiECGdFknytRCTyaYnagRUrt4dKNKOnFtIxRG7d5PTGfeEwLkT/zCdXIT3PvWuYbiNpQEhUIWgGlKcBZQrNAAAAWzOkY+hqkfNWdw89MA1Ft1InXDfQNUMGtfJtEvbGbuVGYjJoxqg52KYn0dRCntpUF9MVUWIjRp1SA0KiCkEzoDwNKFNoBgAA2Jph6YR8oVbp6U7wagSmgQ36MWwSJxttn1zNCGWop0+/ZlhHmMXxelOwRVWfIE+NbKyUnCJ9w15Sso1KzoShYJ6qKsNFXSLrGlnXwqrQaEBIVCFoBpSnAWUKzQAAAI9mZOFj6hUXdN4RywDNSALRsGaoENb5Pd7VjF5Gjo2420+/ZqhvHZkVEbKtkkrMmjAJDVnsKnPQq27Eys6CEpTELvQKn+J5Wq2eFEaHDa0eybpklqg0ICSqEDQDytOAMoVmAACAvzbDaiWlVqkN1u3YJ5b1O/YZ8XSuZtgdMLQ4VV/V/9U9/dE9rBny4zOgGWnAHiW1DZ5vZAmYZlye+hx7myHzjPonzVvpZCiNTzOMnWprGxASVQiaAeVpQJlCMwAAoFCjKbksO/azKNw3I18z9Mb97ltjpCn123+uZsxKbUakHa0lV8YIWr56Hu8ZsLcxz+TgPAMdM5TdZbvOqc0wu2c0ICSqEDQDytOAMoVmAABAsNHU2t1PW5rxpft6sfLm+G6V8uWv3JuFv2a8a2EOSpuFwVYgbsbTTeibEWUhexapy69gCFVpzSiYZ+TUZlgDSXl37ekRTm1GADQDytOAMoVmAABAZfNmeKNVfZUlEvqwVF7NiJoy0lTSbmoha91ktXSyho4N1VSkuQU0o1iekXO2vedQb+vlHjB9M3JQZ4OFpfxS9+08OmgGAABUOT2f9YN6lM6b4Q+XU11wA9+cDPVZNaIZ0YxIfsHFrOO1MT5s1qPbrwTeLuABzSiUpy4JOXVQyvFcS2SkqRwqLFDQWhpQptAMAACoOCoyB2pdygamdSol9NqPkGZIzDnCl2zNMNdU8i0qR50ClZKdJjmTSEAJIuM7GmPNJjlrnlAwT6dXuo0x+2GaZH6ceTOCoBlQngaUKTQDAABmLypSgXHJmbDbTM7UGQNhFvB8Zq5AwRTSgDKFZgAAAFFRSxmtvZk1WJakASFRhVCgoDwNKFNoBgAAEBVBWRoQElUIBQrK04AyhWYAAABREZSlASFRhVCgoDwNKFNoBgAAEBVBWRoQElUIBQrK04AyhWYAAABREZSlASFRhVCgoDwNKFNoBgAAEBVBWRoQElUIBQrK04AyhWYAAABREZSlASHRaKxdd+vlOw6Jf/XEqgqUMQWNOe2MtsKYwCQ2Zk7xDPdszZKipnW0cWa5KXKo5QeYdkc/0yec8Y5yZnzW+dbuR4yZdtKv6czMY88VU2QX3pOQTlGT7sWbp+9LNaBMoRkAAIBmQFkaEBKNgLCLix85vnJur/hXNw23QJ390ntnHf/g3CPvJqfr+AdyURssP3JGvBWb6WfVFIBMJ0LpkWkR1twmXp0IasaQ89JUohnuXC6xNpu9+oKheTwTVXB9TE14HytN0GefNE5g/ijP+btAMyzQDAAAQDOgLHpItOu3nvjiMyevPXjq80++esNtc3Xf3eNCOsb1t98rXot/ddOwCpR0DF0tct7q7qGC7MVFI+iXyUmqTz+SVWY0rH6w1/PpapqhwvdYn/u9WJ1Gec3o5+CtKOh2Nc1wZ6DXv+Bip9M1/UrXjLReJLY+pUf5AzUjZxdohgWaAQAAaAaURd1CwjGuPPDm77z8xqHvvPGNb7/xK1/9o0aahu4YEt00rAJl6YR8oVbp6RZKM7rdRb0Nj0zthd+WZiS+0F3IxMFaZVdxRLqcWKFzboWGXZ+SRNgq2bNr3XzS7aXQ9DNwqzKSoH2ha7ZTClVoJNvJsD3Oaj9SB0hW2F+/t0WWfwHNyNkFmmGAZgAAAJoBZVG30Bf/755jnE75/W9//6LdJ9w7zRs/zcpa1zEkyjRczchOVOoVF3TeEUtBzegspP4Qx2liGqJb8W6SEKqg8HTY8GpGrH3APbD+B5L9ik93FmKrdZNebyCrTLIdaRH54mI31BpKheyxoxmukEjkdpEZuGcOYLqB9U2VGxTRjOAu0AwTNAMAADyaocc9Gx7Yo5pziNdq7bJj759z9C+t8MjqcKnaQltP04GdNb19PdUzPtJagFjBU6EPhsMIcFurF0HdQv/ha3/62veUZZw+deqUHidNjyqUWStc4to7H/AWJZEu1nprM6xWUuLfC57/sbVKLOe/8BN1VmOneiIzCPkrv6YZsfY+ymobkrXWW51hNcNbLRCnlQLJ29QR7M+mMbe1vbzx9DxVOfVoRtK6ys5cFXO9gmJMmuHfBZphgmYAAICnjcevPvOa3q7jzi3botQ31FNwc3z3nV/ZmqMZ6W+Xnuf3wM6aRWxBvZYt1XPGokEzqkWPnCTqFlr51HcPfSerzVj4vc55e1+v+wavGKsnhkLVchRpNKUvn/UJ983oFSJLOHrxsqUZZn1FrIlFNIJm5DSy8sXrVoRttUQy+phrmpFtb3bM0G8wj2YEumfYfxNU9/YxaIZ/F2iGCZoBAAC2Ztz2mw9GZksPiZANQzPunnO3sVpCW79W6pqR31lzKM3QfxlFMyZAjmZcv/nBX/vt78kKjUPPH7ls9x+s3vxw3Td49bimobekCjWaWrv7aVczlGCoF9l51jTD7N2dNibSzME/JOvSkhZkh2oncvpm+BpZDaMZ1uBOVm2GVX0h3wZHvtJ/v8itzYi0vz/ZXyTTfLIjH75vRnAXThVNhGYAAEDL8fbNcBVCpKx+6kX1+txvvfvrjx+ytknbSnget45mBHtSRmhGfWTNQgKdeo1wNj2Teki05q6dy/edFK/PeezUqnhP3Xf3uNBNw+qtUbCz03CaoQffhjnIDhtByzB7dGT1G1F4pCl9U/ewvfF6UDPM1lOZffg0w9sPZIS+GdlmS92ONdLUoCi/uGZ4d+H+/bFrcdEMAABoFQM1Q9ZjrDjwsv0gdBKz4WNyn6b5PSm9T+tokGZkjUPQjBJYmuHt1JtTm1H3vTxRpGncuHGz1SN8KM0o2GgqckZ/MjTD18PbajcVnoUvUHsQ7qKjd+DRu4AHNMNsxxXQjJA8uJqRP9KUc5xaNUicHLj3i2QphTXDswuzpag+t2AoczQDAACaTL5myC4Za+cPeJ+7nr4ZTrjjPk3ze1JGVmNuMypyn/d6rFDkg2hGDpZmeDv1ohkKYRfn7X3dGnVqWM3QqzJyNEOv24gMzdCLXex+XIuzrfIhQ35PofHG8dZ94mbi7ZuR5S4Swo2mXJ3wpg+aN8NssJR2ZPGck9SkPN9rGM3w7MLpieI7admZcxPlxg0oU2gGAAAM0Aw1wJRE76FhdQqPUlVIf9ELToOV35MyKlgpYT6th/ggmhHGaTTlCRzRjHyqqs1oG6EKDZ1QVUbzaECZQjMAAMCOilYceFkfwdYdjlOOQ6UPcatQUX5+a4T8npTRkI2mvAeQ80E0Iwc0ozwFNcM7oK1IHNu1nQHyi6e3dDeVBpQpNAMAAEaZnu+233zw+sf+s5tuDbqiB6MhzYiK9aSM0IyJgGaUZ4QCBWDRgDKFZgAAQJVRkTFvhtnhMkczIqcnJZpRF0U1w6yqakBIVCFoBpSnAWUKzQAAgHFpRmSOLZOvGVZPSjSjLgpphtO3uAEhUYWgGVCeBpQpNAMAAIiKoCwNCIkqhAIF5WlAmUIzAACAqAjK0oCQqEIoUFCeBpQpNAMAAIiKoCwNCIkqRJ0NFpbyS9238+igGQAAgGZAWRoQElUIBQrK04AyhWYAAABREZSlASFRhVCgoDwNKFNoBgAAEBVBWRoQElUIBQrK04AyhWYAAABREZSlASFRhVCgoDwNKFNoBgAAEBVBWRoQElUIBQrK04AyhWYAAABREZSlASFRhVCgoDwNKFNoBgAAEBVBWRoQElUIBQrK04AyhWYAAEBuVLRl6x1Pvbjx8Fsbjp4Ri3gh3orEiT9zYappQEhUIWgGlKcBZQrNAACAYFT05V1PfOn5P19/7K+tRSSKVbU8emE6aUBIVCFoBpSnAWUKzQAAAH9UJERCV4ttr350X/cjPcVrGgvdpaWlxc58rCfOdxaXugt6StzfLsNaG/c+0c8mzrI1t+lt0d+gv2mGSDO2MdHXthz3opShASFRhVSlGVYp0QuLc28nha5gATQ/3l3oF7Q2lxf5h0SciJL5qL9U+p846zRma9I/cd7C2IAyhWYAAIAvKtqy1arHuO7oR5999plVp+G2nkqeoJohWA/R1AuSyKafstA1t+9tItCipTi1iuwjS0lMYGTez1vFCtbDO06e/Nmu20wRzeidMPPShGhASFQhboE6+6X3zjr+wblH3k1O1/EP5KI2WH7kjHgrNvOeXr9m+y7fKAVwoesWpahl5aUSzeidsPQE9k9qHJl/rCLt95E4/Wul0i0baUCZQjMAAMATFd3x1ItWQylXM8TS66dh0o9LO123VkF7mg6MXGVwa4VW+ls9Eys2sjfz1pNU9yv+7IJmjA+rQEnH0NUi563uHoqhNGPkAtjm8lJeM/o52PVIkqyKw1QO/deTWDqKdl0aUKbQDAAA8GjGxsM/KqIZGw+/5T5Qe4/N5GFq1ypYT9nA0zqNbZPnvv5I7r21AgJXM1SA5Q3FrGNrFXprjQWnFshqyGG02NGDVLOVjqQBIVGFWAXK0gn5Qq3S0/Mu3BCaMWIBnKHyYp2QrIrAdyenfzGMyhl9w/6fFbmNSraqUgfnqVdluEcr/yjZf9Ocig5dDhtQptAMAADwaMaGo2eKaIbYLPRA9dYqFAlZlGVYOhGrn/7Mn9iNBiGB6MrI32x/1R4WulqQlEZHctV8p5v+pGr8eu051UYO2aluQEhUIa5mqKugvOKCzjtiGZNmRCMVwBkqL/qdqf+h8N7JyZ+Oxa76Fmnjyv6W853OghIUrYtLVl9aNE9vVxb9nFsFyv4TZ4pKA8oUmgEAAAM0Y9OJ94Vj/PLTfx9KM/ToJBTlaL8SZok51RFx2iJE/znW6rdqr3LDpvRR7wYEDcb91m7kmmypB3BGMGfkYEVIDQiJKsRbm2G1klKr1AbrduwTy/od+9yL4tcMq7N2WgdVvABazFB50Y/KqiLItjF/sFB/VbxVOvY2Q+YZ9c+8nmfas8XoJ+PVDGOn2toGlCk0AwAAvI2m3up1vXj5Z7ISQyBebHv1o4KNpuRrYzCocJSjP9Htrt52z297BKrI27013DfDzbMluGGTdXKMsNWrGb5hj9AML0UaTcll2bGfRdX3zRiuAObnObXlRX3TgXeyp9LA/StkbWN+68F5hjtmqD9a0cDaDLN7RgPKFJoBAAD+LuBf++HffvzJp0Iwdn335+7UGbldwI1fDcXbLMrxhSx6BOwOqbkU7szqTfH+iGvsrnC35ibhhlZWe/2gWgRaSVk0ICSqkFCjqbW7n7Y040v39e7tzfHdKuXLX7nXPb2jaUbBApif59SWl/TAskg9dCeX0YyCeUZObYZ9qKr/RrhvBrUZAADQQLwD2m4/8dNHTv5NSDByBrTVrUA+Rjta+OIGTFbfbqt9szUwTjHN0KTFHjlncB/0RuLGl9noN2ZFh90BQ73OjVAbEBJVSOXT842mGZFTAPNHjpqt8pK0m1qw6kI9d3J+TUWaW0AziuUZOWfeyFxphtXy0OoRTt8MAABoHkWm53OX0PR8/rmosnZNxq+D+rM2XNdhDMaSE2/lN5pSEwZ4Q4HGE+oCboyqmfWD9dRg9D+kZgOQPWOb88trhUyPZkRFCmBo3oypLy+9L7uYdbwO3cleJfB2AQ9oRqE8dUkQJ7nj1Clluw707phnpCkAAGgeoahIiIQ1SZ+qx/A6RuSLcrzBitXOXz6t9Tg4+/ig7hZ2O6tQK+2lpZw2P23AGOxTjtzpDlMr5ysxx/DRz6p+4RoWElXIhDTD10+mSAE0h30156KeqfKSBvC+ASG0O9k7J4Z2J2dD4XprPArmafRKN8+wX/zsi7LAvBkAANBA8qKiLVvveOrFjYd/tOHoGbFsPPxWrz+G01YKWk4DQqIKqVwzYCbImTpjIPPMAg4AAI2EqAhK0oCQqEIoUK0lNE50Pt4mcA0oU2gGAAAQFUFZGhASVQgFCsrTgDKFZgAAAFERlKUBIVGFUKCgPA0oU2gGAAAQFUFZGhASVQgFCsrTgDKFZgAAAFERlKUBIVGFUKCgPA0oU2gGAAAQFUFZGhASVYg6Gyws5Ze6b+fRQTMAAADNgLI0ICSqkNoDU5YmLXXfzqODZgAAAJoBZWlASFQhtQemLE1a6r6dRwfNAAAANAPK0oCQCACqBc0AAIAis4C/xSzgkAOaAQAWaAYAAAQ148u7nvjS83++/thfW4tIFKtqCWdhOkEzAMACzQAAAL9mCJHQ1WLbqx/d1/1IT/GaxkJ3aWlpsTMf64nzncWl7oKeEve3y7DWxr1P9LOJs2zNbXpb9DewMo/TI7D24N1Rm3EvShnQDACwQDMAAMCnGVu2WvUY1x396LPPPrPqNNzWU0lwrxmCFdEmCiHepxvEwgzM7XubCDRdiVOryD7Sz8LOvJ+3TDcOCbtwKKIZvdNsXpoQaAYAWKAZAADg0Yw7nnrRaijlaoZYev00TPpxaafbFw1vRKtqIXJiVhncWnqgv9UzUZlL99D3634QFGgGAIwVNAMAADyasfHwj4poxsbDb1nhZhKXJpUNsRXR6rUQwdBWxbbyY7FeodF7q1bomcdpfYebIZqhyBqSLXYWnFogtUp6hdHqTBc8bTuVM5oBABZoBgAAeDRjw9EzRTRDbOYGsjLWtysfpGaY+uFFWYalE0okrJ/Y5UY5LoFmSJK6nv55S/rGZBeoK50hTpudyXTPqTZyyC4lmgEAFmgGAAAM0IxNJ94XjvHLT/99KM3Qe1OENEP7aTxLVDlETsOeOG2SpdeHpJnY/c6N8Lr1mqHqiFRK6LToamG8NnOwJBDNAAALNAMAALyNpt7qdb14+WeyEkMgXmx79aOCjabka3cwKG9tht44yu7qbff8tkegilIVSft+e0wDzYjMkyyxFE5vNuXXDN/QXWgGAIRAMwAAwN8F/Gs//NuPP/lUCMau7/7cnTojtwt4ohmqT3amGaY2uBGwEexqQW8oONZT+mGwxzTQjMgneFaHmaBaBFpJWaAZAGCBZgAAgH9A2+0nfvrIyb8JCUbOgLa6FcjYtKO5gRv0W327rW7c1shUOZrhrevw7rGFuIKnTotV0WF3wFCvfYqoQDMAwALNAACAQtPzuUtoej7LE5K2Ntm8GcZv53qYG67rsMeV0jcwJ+VIqjTsA2i9ZkThLuD6aU+GnArUYOj1Rb2r1c0uIpoBABZoBgAA+DUj6puGNUmfqsfwOkbk0ww1HZ8d8jpN/PU4OPu4OfZRvma4gXKEZqTE+rC1sjeLO0ytnK8k6/adrtEro3yN2dAMALBAMwAAIKgZPbZsveOpFzce/tGGo2fEsvHwW73+GE5bKWg5aAYAWKAZAACQqxkABUAzAMACzQAAADQDyoJmAIAFmgEAAGgGlAXNAAALNAMAANAMKAuaAQAWaAYAAKAZUBY0AwAs0AwAAEAzoCxoBgBYoBkAAIBmQFnQDACwQDMAAADNgLKgGQBggWYAAACaAWVBMwDAAs0AAAA0A8qCZgCABZoBAABoBpQFzQAACzQDAACq1IyF7tLS0mJnPrbS47i/prtgJs53FuXm9vaC/jpFd6G/jZm4JHdW/rCbgTyf4kyVzKd3qawr1UtKLqvch/URNAMALNAMAADwaMbZL7131vEPzj3ybhJEHv9ALmqD5UfOiLdiM0+E6gv9RWwqsIPXJNXWkkQ/UrWQYa6Mnq0YN7EXbcs2U4lm9M6o1wa1y9S7buYlRjMAwALNAAAAWzOkY+hqkfNWd4+orxk9cTDjfhmnuprR27gz7/523t86XMXhDYKd39dbSHnN6OdgW18/025X04xYuoh2gdAMALBAMwAAwNYMSyfkC7VKT3fpm8OCFezGWqoW0UrLULGxHsIGY2Vvi530E62r0NCbkPW+f3IqVbImBvqmqcKl22c1Qp6qjOTqLHTNSierQgPNAAALNAMAADyakYWPqVdc0HlHLMU0Y96qjsgSdc1ILcP6DT7fGfyake7PH4w3lKQSRwrDfKeTaoayi7Q/hWxs1pWJeuVPWsvUDbWGyhTQ0QxLSNAMALBAMwAAwF+bYbWSUqvUBut27BPL+h379Ng3dYcsKlWRqmUIcossYk5XjaIZThDceLx1PnHqW8lbs5oo28wUPN0rZFso/W0qJI5mJK2rkhQ0AwAs0AwAACjUaEoua+b+k7voIaySB/VCiYHhEmb9g/6W2owieM+SXS9knhZjkC5vPZLZMUPZSOTVDLN7BpoBABZoBgAABBtNrd39tKsZn/3bP+jLxl3P6pGusos0gs0iV90Q3HFp1fhU+c4Q7JsR6DLeVIbSjGQ8LuUMgeZqkVabEcfeS7RkiCK1GQAQBs0AAIAh5s0QmvHpv/7j1et+Sy7/+5f/uOvAcX2DTDNifYAiQzPctjqRNrpU/shRvpGm8rqMNxWvjAU1w2w9ZZ1qSzO885DQNwMAhgXNAACA4TTjk3/+hXSMTz75X5988ovf/dYP9A30OFX9hp5Ft1IzvCFy2qM5DWqNafuC82akE2wMPPLmkcx36HQBD2iG3lXG32gq8k2akaQz0hQADAmaAQAAw2nGx7/4J+EYH//ik96///Of/vD7P7Fi30wzzOb7yhD0EZC0QNaoxLAb7ehVIlYjnja1lbKQI9FqnS2CfTOy8yZnKglpRqAzvZXOvBkAMBA0AwAAhtOM//4//uXvess//90//IswjTf+7OclY2WYKkIVGjrMAg4AA0EzAABgOM3YuOvZnQeO/e63fnDi+z8RjrF2y8FSUe3/397987hNxwEcRggk3gE7c6cidbaFeAEVN3AD6shCUYZKfQeRWiFOgjFrh0ost7IgVToYWLrwDuhWWo6mBQEDOPGf/Py141xkS43S55GFLj47KfYNv4//xBye7nPZU7134csMIJAZAOyRGdBLZgCBzABAZjCWzAACmQGAzGAsmQEEMgMAmcFYMgMIZAYAMoOxZAYQyAwAZAZjyQwgkBkAyAzGkhlAIDMAkBmMJTOAQGYAIDMYS2YAgcwAQGYwlswAApkBwPSZkc8WF6nFrJi5mrf+IRVmns7PW6vlebXMxfn8NE9XXC1Zr9he66JcevP+XZ1/xnHI83Kr5LsXHdTslHQ/Nps03fINmQEEMgOAnsx4+6uf3zp7/O79H6tB5NnjcmoWeOf+T8XLYrHekW5TCOs5s8WqEfK8HL3mebJwNat/xdmi/FU11l2/SbNuzIxk4JtXo+PWZ/VGzpGZJDNWG6/eUOs9UO6dzZ7K1hu8qY6SzAACmQFAzIyyMdK0GHiZtkc5AA09kAyCW0PVakRbx8DAisVS5/P5Ijmgng1mRtZESzJTZlz5HeKJo1K6AfOyRZKdJTOAQGYAEDMj5ET5Q/OrdH5nkBpDYmComr4cXnGdGafhZMhwZmTthul+9HFIrxZb/a9WmdHM3gRDni5a51y9/ObkT3oqIyj3QvrR6UuZAQQyA4CezNgMH+uueG/+QzHtyIzOZVEDC6SH3odXbAa4aSrszoz6/EjzJkeWGdX5mnJjns7ndWY0dTFbbIridL4oZ6bnecqfz88XzVbqXg1V6rngrR0kMgMIZAYA/WczwlVSza+aBa7fvFVMH968tW0wmhxATy/xrwbBdWXskRlpOezOjOSzsqPLjN7zP3m9gaqXyRZuLVZtmDwsn623UuuqtuYe8M71bPXVVdVMmQEEMgOAK100VU4ffPR5d2qNXzvj2jDYbZohbYMrZkaW3MLxhp/N6N/U7XszwhZofR9Xkhmb5bffmFGeAkmDJNyeITOAQGYAsPWiqWufftHNjP/+fpZON07utgejcZwaMqM+lD40IA7SzCiPrxcvr3RvRnK4/U3OjOqkRHNLRvtsRnr6IpzNGPhEZzOAYTIDgD2em1Fkxj9/PX//+mfl9O+fz09un6ULdEfzMTPKQe4szIxfDBXes3Ucff0Z8x3fNBWvKTq2zOgtum2Z0d4Fm/roy4zeezOybma4NwMYJDMA2C8zli8vy8ZYLv9YLi/v3HvYHum2DpxnnczImudg9IVBa8XkuRlh7BveIT43o34CR1zliDIjqzZCzy3gWzIjvSWm/6KprB0PxR6Zd04iNUv6pilgmMwAYL/MeHr5omiMp5fL1X9/f/Htg0dbRsCtp3mnv83rAXJYq/6ipPi9q93MCCHReQp4z20ex5cZWWs7l92w9VK0zSYqZmy/aKp1j357dwzcmJHJDKBDZgCwX2b8+turJ6vp5ZNnr4rS+O77X6YaNHMIBh6d0fAUcGAnmQHAfplx4+TuJ7e/vnPv4TcPHhWNce3jL0eNajk8w2d+em+4lxlAIDMA2CMzoJfMAAKZAYDMYCyZAQQyAwCZwVgyAwhkBgAyg7FkBhDIDAA2mWEyjZxe998ycChkBgAywzTZ9Lr/loFDITMAkBmmyabX/bcMHAqZAQAATExmAAAAE5MZAADAxGQGAAAwMZkBAABMTGYAAAATkxkAAMDEZAYAADAxmQEAAExMZgAAABP7H3XKYwxZZs/EAAAAAElFTkSuQmCC;" vertex="1" parent="1">
          <mxGeometry x="1420" y="-129" width="1190.43" height="918" as="geometry" />
        </mxCell>
      </root>
    </mxGraphModel>
  </diagram>
</mxfile>
